<?xml version="1.0" encoding="UTF-8"?>
<svg xmlns="http://www.w3.org/2000/svg" width="933.5999999999999" height="986.1999999999998" viewBox="-28 -27.999999999999993 933.5999999999999 986.1999999999998" class="mermaid">
  <style>

.mermaid {
  font-family: trebuchet ms, verdana, arial, sans-serif;
  font-size: 16px;
}

.node rect,
.node polygon,
.node circle,
.node ellipse,
.node path {
  fill: #ECECFF;
  stroke: #9370DB;
  stroke-width: 1px;
}

.node line {
  stroke: #9370DB;
  stroke-width: 1px;
}

.node .label {
  fill: #333333;
}

.node text {
  fill: #333333;
  font-family: trebuchet ms, verdana, arial, sans-serif;
  font-size: 16px;
}

.edge-path {
  fill: none;
  stroke: #333333;
  stroke-width: 1px;
}

.edge-label {
  fill: #333333;
  font-family: trebuchet ms, verdana, arial, sans-serif;
}

.edge-label-bg {
  fill: rgba(232, 232, 232, 0.8);
}

.subgraph {
  fill: #ffffde;
  stroke: #aaaa33;
  stroke-width: 1px;
}

.subgraph-title {
  fill: #333333;
  font-weight: bold;
}

.cluster rect {
  fill: #ffffde;
  stroke: #aaaa33;
  stroke-width: 1px;
  rx: 5px;
  ry: 5px;
}

.cluster-label {
  fill: #333333;
  font-family: trebuchet ms, verdana, arial, sans-serif;
  font-size: 16px;
  font-weight: bold;
}

marker path {
  fill: #333333;
  stroke: #333333;
}

  </style>
  <defs>
    <marker id="arrow_point" viewBox="0 0 10 10" refX="10" refY="5" markerWidth="8" markerHeight="8" orient="auto" markerUnits="userSpaceOnUse">
      <path d="M 0 0 L 10 5 L 0 10 z"/>
    </marker>
    <marker id="arrow_point_start" viewBox="0 0 10 10" refX="4.5" refY="5" markerWidth="8" markerHeight="8" orient="auto" markerUnits="userSpaceOnUse">
      <path d="M 0 5 L 10 10 L 10 0 z"/>
    </marker>
    <marker id="arrow_cross" viewBox="0 0 11 11" refX="12" refY="5.2" markerWidth="11" markerHeight="11" orient="auto" markerUnits="userSpaceOnUse">
      <path d="M 1 1 L 10 10 M 10 1 L 1 10" fill="none" stroke-width="2"/>
    </marker>
    <marker id="arrow_cross_start" viewBox="0 0 11 11" refX="-1" refY="5.2" markerWidth="11" markerHeight="11" orient="auto" markerUnits="userSpaceOnUse">
      <path d="M 1 1 L 10 10 M 10 1 L 1 10" stroke-width="2" fill="none"/>
    </marker>
    <marker id="arrow_circle" viewBox="0 0 10 10" refX="11" refY="5" markerWidth="11" markerHeight="11" orient="auto" markerUnits="userSpaceOnUse">
      <circle cx="5" cy="5" r="5"/>
    </marker>
    <marker id="arrow_circle_start" viewBox="0 0 10 10" refX="-1" refY="5" markerWidth="11" markerHeight="11" orient="auto" markerUnits="userSpaceOnUse">
      <circle cx="5" cy="5" r="5"/>
    </marker>
  </defs>
  <g class="root">
    <g class="clusters">
      <g class="subgraph" id="subgraph-subGraph0">
        <rect x="-20" y="-19.999999999999993" width="663.8" height="965.1999999999998" class="cluster"/>
        <text x="311.9" y="-3.999999999999993" class="cluster-label" text-anchor="middle">Current Architecture (with resvg)</text>
      </g>
      <g class="subgraph" id="subgraph-subGraph1">
        <rect x="42.40000000000002" y="-19.999999999999993" width="855.1999999999999" height="426.20000000000005" class="cluster"/>
        <text x="470" y="-3.999999999999993" class="cluster-label" text-anchor="middle">Proposed Architecture (ASCII + Browser)</text>
      </g>
    </g>
    <g class="edgePaths">
      <g class="edge" id="edge-L-A1-B1-0">
        <path d="M 457.40 61.38 C 342.27 75.19, 227.13 88.99, 169.57 100.06 C 112.00 111.13, 112.00 119.47, 112.00 127.80" class="edge-path" stroke-width="1" marker-end="url(#arrow_point)" fill="none"/>
      </g>
      <g class="edge" id="edge-L-B1-C1-0">
        <path d="M 112.00 180.60 C 112.00 188.93, 112.00 197.27, 112.00 205.60 C 112.00 213.93, 112.00 222.27, 112.00 230.60" class="edge-path" fill="none" marker-end="url(#arrow_point)" stroke-width="1"/>
      </g>
      <g class="edge" id="edge-L-C1-D1-0">
        <path d="M 112.00 283.40 C 112.00 291.73, 112.00 300.07, 112.00 308.40 C 112.00 316.73, 112.00 325.07, 112.00 333.40" class="edge-path" fill="none" marker-end="url(#arrow_point)" stroke-width="1"/>
      </g>
      <g class="edge" id="edge-L-D1-E1-0">
        <path d="M 222.02 386.20 C 256.74 394.53, 291.47 402.87, 308.84 415.37 C 326.20 427.87, 326.20 444.53, 326.20 461.20" class="edge-path" fill="none" stroke-width="1" marker-end="url(#arrow_point)"/>
      </g>
      <g class="edge" id="edge-L-E1-F1-0">
        <path d="M 326.20 514.00 C 326.20 522.33, 326.20 530.67, 326.20 539.00 C 326.20 547.33, 326.20 555.67, 326.20 564.00" class="edge-path" fill="none" marker-end="url(#arrow_point)" stroke-width="1"/>
      </g>
      <g class="edge" id="edge-L-F1-G1-0">
        <path d="M 326.20 616.80 C 326.20 625.13, 326.20 633.47, 326.20 641.80 C 326.20 650.13, 326.20 658.47, 326.20 666.80" class="edge-path" marker-end="url(#arrow_point)" fill="none" stroke-width="1"/>
      </g>
      <g class="edge" id="edge-L-G1-H1-0">
        <path d="M 326.20 719.60 C 326.20 727.93, 326.20 736.27, 326.20 744.60 C 326.20 752.93, 326.20 761.27, 326.20 769.60" class="edge-path" fill="none" marker-end="url(#arrow_point)" stroke-width="1"/>
      </g>
      <g class="edge" id="edge-L-H1-I1-0">
        <path d="M 326.20 822.40 C 326.20 830.73, 326.20 839.07, 326.20 847.40 C 326.20 855.73, 326.20 864.07, 326.20 872.40" class="edge-path" stroke-width="1" fill="none" marker-end="url(#arrow_point)"/>
      </g>
      <g class="edge" id="edge-L-A2-B2-0">
        <path d="M 228.80 64.30 C 311.60 77.13, 394.40 89.97, 435.80 100.55 C 477.20 111.13, 477.20 119.47, 477.20 127.80" class="edge-path" marker-end="url(#arrow_point)" fill="none" stroke-width="1"/>
      </g>
      <g class="edge" id="edge-L-B2-C2-0">
        <path d="M 477.20 180.60 C 477.20 188.93, 477.20 197.27, 477.20 205.60 C 477.20 213.93, 477.20 222.27, 477.20 230.60" class="edge-path" fill="none" stroke-width="1" marker-end="url(#arrow_point)"/>
      </g>
      <g class="edge" id="edge-L-C2-D2-0">
        <path d="M 477.20 283.40 C 477.20 291.73, 477.20 300.07, 477.20 308.40 C 477.20 316.73, 477.20 325.07, 477.20 333.40" class="edge-path" marker-end="url(#arrow_point)" fill="none" stroke-width="1"/>
      </g>
      <g class="edge" id="edge-L-A2-E2-0">
        <path d="M 228.80 58.24 C 409.33 73.10, 589.87 87.95, 680.13 99.54 C 770.40 111.13, 770.40 119.47, 770.40 127.80" class="edge-path" fill="none" stroke-width="1" marker-end="url(#arrow_point)"/>
      </g>
      <g class="edge" id="edge-L-E2-F2-0">
        <path d="M 770.40 180.60 C 770.40 188.93, 770.40 197.27, 770.40 205.60 C 770.40 213.93, 770.40 222.27, 770.40 230.60" class="edge-path" stroke-width="1" fill="none" marker-end="url(#arrow_point)"/>
      </g>
      <g class="edge" id="edge-L-F2-G2-0">
        <path d="M 770.40 283.40 C 770.40 291.73, 770.40 300.07, 770.40 308.40 C 770.40 316.73, 770.40 325.07, 770.40 333.40" class="edge-path" fill="none" marker-end="url(#arrow_point)" stroke-width="1"/>
      </g>
    </g>
    <g class="edgeLabels">

    </g>
    <g class="nodes">
      <g class="node" id="node-A1">
        <rect x="457.3999999999999" y="25.000000000000007" width="166.4" height="52.8"/>
        <text x="540.5999999999999" y="51.400000000000006" class="label" text-anchor="middle" dominant-baseline="central">Mermaid Source</text>
      </g>
      <g class="node" id="node-A2">
        <rect x="62.40000000000002" y="25.000000000000007" width="166.4" height="52.8"/>
        <text x="145.60000000000002" y="51.400000000000006" class="label" dominant-baseline="central" text-anchor="middle">Mermaid Source</text>
      </g>
      <g class="node" id="node-B1">
        <rect x="4.799999999999997" y="127.80000000000001" width="214.4" height="52.8"/>
        <text x="112" y="154.20000000000002" class="label" text-anchor="middle" dominant-baseline="central">selkie::render_text</text>
      </g>
      <g class="node" id="node-B2">
        <rect x="341.19999999999993" y="127.80000000000001" width="272" height="52.8"/>
        <text x="477.19999999999993" y="154.20000000000002" class="label" text-anchor="middle" dominant-baseline="central">selkie::render_text_ascii</text>
      </g>
      <g class="node" id="node-C1">
        <rect x="48" y="230.6" width="128" height="52.8"/>
        <text x="112" y="257" class="label" dominant-baseline="central" text-anchor="middle">SVG String</text>
      </g>
      <g class="node" id="node-C2">
        <rect x="417.99999999999994" y="230.6" width="118.39999999999999" height="52.8" style="fill:#51cf66 !important"/>
        <text x="477.19999999999993" y="257" class="label" dominant-baseline="central" text-anchor="middle" style="fill: #ffffff">ASCII Art</text>
      </g>
      <g class="node" id="node-D1">
        <rect x="0" y="333.40000000000003" width="224" height="52.8" style="fill:#ff6b6b !important"/>
        <text x="112" y="359.8" class="label" dominant-baseline="central" style="fill: #ffffff" text-anchor="middle">svg_to_png via resvg</text>
      </g>
      <g class="node" id="node-D2">
        <rect x="384.3999999999999" y="333.40000000000003" width="185.6" height="52.8"/>
        <text x="477.19999999999993" y="359.8" class="label" text-anchor="middle" dominant-baseline="central">Terminal Display</text>
      </g>
      <g class="node" id="node-E1">
        <rect x="262.19999999999993" y="461.20000000000005" width="128" height="52.8" style="fill:#ff6b6b !important"/>
        <text x="326.19999999999993" y="487.6" class="label" dominant-baseline="central" text-anchor="middle" style="fill: #ffffff">usvg Parse</text>
      </g>
      <g class="node" id="node-E2">
        <rect x="663.1999999999999" y="127.80000000000001" width="214.4" height="52.8"/>
        <text x="770.4" y="154.20000000000002" class="label" dominant-baseline="central" text-anchor="middle">selkie::render_text</text>
      </g>
      <g class="node" id="node-F1">
        <rect x="218.99999999999994" y="564" width="214.4" height="52.8" style="fill:#ff6b6b !important"/>
        <text x="326.19999999999993" y="590.4" class="label" dominant-baseline="central" text-anchor="middle" style="fill: #ffffff">tiny-skia Rasterize</text>
      </g>
      <g class="node" id="node-F2">
        <rect x="706.4" y="230.6" width="128" height="52.8"/>
        <text x="770.4" y="257" class="label" text-anchor="middle" dominant-baseline="central">SVG String</text>
      </g>
      <g class="node" id="node-G1">
        <rect x="266.99999999999994" y="666.8" width="118.39999999999999" height="52.8"/>
        <text x="326.19999999999993" y="693.1999999999999" class="label" text-anchor="middle" dominant-baseline="central">PNG bytes</text>
      </g>
      <g class="node" id="node-G2">
        <rect x="687.1999999999999" y="333.40000000000003" width="166.4" height="52.8" style="fill:#51cf66 !important"/>
        <text x="770.4" y="359.8" class="label" style="fill: #ffffff" dominant-baseline="central" text-anchor="middle">Browser Viewer</text>
      </g>
      <g class="node" id="node-H1">
        <rect x="199.79999999999995" y="769.5999999999999" width="252.79999999999998" height="52.8" style="fill:#ff6b6b !important"/>
        <text x="326.19999999999993" y="795.9999999999999" class="label" dominant-baseline="central" style="fill: #ffffff" text-anchor="middle">Kitty Terminal Protocol</text>
      </g>
      <g class="node" id="node-I1">
        <rect x="214.19999999999993" y="872.3999999999999" width="224" height="52.8"/>
        <text x="326.19999999999993" y="898.7999999999998" class="label" text-anchor="middle" dominant-baseline="central">Inline Image Display</text>
      </g>
    </g>
  </g>
</svg>
