<?xml version="1.0" encoding="UTF-8"?>
<svg xmlns="http://www.w3.org/2000/svg" width="1852.8000000000002" height="1134.8" viewBox="-8 -27.999999999999993 1852.8000000000002 1134.8" class="mermaid">
  <style>

.mermaid {
  font-family: trebuchet ms, verdana, arial, sans-serif;
  font-size: 16px;
}

.node rect,
.node polygon,
.node circle,
.node ellipse,
.node path {
  fill: #ECECFF;
  stroke: #9370DB;
  stroke-width: 1px;
}

.node line {
  stroke: #9370DB;
  stroke-width: 1px;
}

.node .label {
  fill: #333333;
}

.node text {
  fill: #333333;
  font-family: trebuchet ms, verdana, arial, sans-serif;
  font-size: 16px;
}

.edge-path {
  fill: none;
  stroke: #333333;
  stroke-width: 1px;
}

.edge-label {
  fill: #333333;
  font-family: trebuchet ms, verdana, arial, sans-serif;
}

.edge-label-bg {
  fill: rgba(232, 232, 232, 0.8);
}

.subgraph {
  fill: #ffffde;
  stroke: #aaaa33;
  stroke-width: 1px;
}

.subgraph-title {
  fill: #333333;
  font-weight: bold;
}

.cluster rect {
  fill: #ffffde;
  stroke: #aaaa33;
  stroke-width: 1px;
  rx: 5px;
  ry: 5px;
}

.cluster-label {
  fill: #333333;
  font-family: trebuchet ms, verdana, arial, sans-serif;
  font-size: 16px;
  font-weight: bold;
}

marker path {
  fill: #333333;
  stroke: #333333;
}

  </style>
  <defs>
    <marker id="arrow_point" viewBox="0 0 10 10" refX="10" refY="5" markerWidth="8" markerHeight="8" orient="auto" markerUnits="userSpaceOnUse">
      <path d="M 0 0 L 10 5 L 0 10 z"/>
    </marker>
    <marker id="arrow_point_start" viewBox="0 0 10 10" refX="4.5" refY="5" markerWidth="8" markerHeight="8" orient="auto" markerUnits="userSpaceOnUse">
      <path d="M 0 5 L 10 10 L 10 0 z"/>
    </marker>
    <marker id="arrow_cross" viewBox="0 0 11 11" refX="12" refY="5.2" markerWidth="11" markerHeight="11" orient="auto" markerUnits="userSpaceOnUse">
      <path d="M 1 1 L 10 10 M 10 1 L 1 10" fill="none" stroke-width="2"/>
    </marker>
    <marker id="arrow_cross_start" viewBox="0 0 11 11" refX="-1" refY="5.2" markerWidth="11" markerHeight="11" orient="auto" markerUnits="userSpaceOnUse">
      <path d="M 1 1 L 10 10 M 10 1 L 1 10" stroke-width="2" fill="none"/>
    </marker>
    <marker id="arrow_circle" viewBox="0 0 10 10" refX="11" refY="5" markerWidth="11" markerHeight="11" orient="auto" markerUnits="userSpaceOnUse">
      <circle cx="5" cy="5" r="5"/>
    </marker>
    <marker id="arrow_circle_start" viewBox="0 0 10 10" refX="-1" refY="5" markerWidth="11" markerHeight="11" orient="auto" markerUnits="userSpaceOnUse">
      <circle cx="5" cy="5" r="5"/>
    </marker>
  </defs>
  <g class="root">
    <g class="clusters">
      <g class="subgraph" id="subgraph-subGraph0">
        <rect x="617" y="460.2" width="690" height="154.59999999999997" class="cluster"/>
        <text x="962" y="476.2" class="cluster-label" text-anchor="middle">Daemon State (In-Memory)</text>
      </g>
      <g class="subgraph" id="subgraph-subGraph1">
        <rect x="104.4" y="-19.999999999999993" width="1202.6" height="634.8" class="cluster"/>
        <text x="705.6999999999999" y="-3.999999999999993" class="cluster-label" text-anchor="middle">Lifecycle</text>
      </g>
      <g class="subgraph" id="subgraph-subGraph2">
        <rect x="1377" y="460.2" width="430.3000000000002" height="633.6000000000001" class="cluster"/>
        <text x="1592.15" y="476.2" class="cluster-label" text-anchor="middle">Deduplication Flow</text>
      </g>
      <g class="subgraph" id="subgraph-subGraph3">
        <rect x="20" y="-19.999999999999993" width="340" height="302.4" class="cluster"/>
        <text x="190" y="-3.999999999999993" class="cluster-label" text-anchor="middle">Bounded Growth</text>
      </g>
    </g>
    <g class="edgePaths">
      <g class="edge" id="edge-L-START-IH-0">
        <path d="M 846.28 410.20 C 826.52 421.87, 806.76 433.53, 796.88 449.37 C 787.00 465.20, 787.00 485.20, 787.00 505.20" class="edge-path" marker-end="url(#arrow_point)" stroke-width="1" fill="none"/>
      </g>
      <g class="edge" id="edge-L-START-RNT-0">
        <path d="M 964.60 402.17 C 1022.07 416.51, 1079.53 430.86, 1108.27 448.03 C 1137.00 465.20, 1137.00 485.20, 1137.00 505.20" class="edge-path" marker-end="url(#arrow_point)" stroke-width="1" fill="none"/>
      </g>
      <g class="edge" id="edge-L-MERGE-RESTART-0">
        <path d="M 296.81 77.80 C 329.88 89.47, 362.94 101.13, 379.47 112.80 C 396.00 124.47, 396.00 136.13, 464.63 151.64 C 670.53 186.51, 807.80 205.87, 807.80 205.87" class="edge-path" fill="none" stroke-width="1" marker-end="url(#arrow_point)"/>
      </g>
      <g class="edge" id="edge-L-RESTART-START-0">
        <path d="M 891.00 244.00 C 891.00 258.47, 891.00 272.93, 891.00 286.00 C 891.00 299.07, 891.00 310.73, 891.00 322.40 C 891.00 345.73, 891.00 357.40, 891.00 357.40" class="edge-path" marker-end="url(#arrow_point)" fill="none" stroke-width="1"/>
      </g>
      <g class="edge" id="edge-L-EVENT-CHECK-0">
        <path d="M 1689.80 594.80 C 1689.80 614.80, 1689.80 634.80, 1670.82 658.34 C 1651.84 681.88, 1613.88 708.95, 1575.93 736.03" class="edge-path" fill="none" stroke-width="1" marker-end="url(#arrow_point)"/>
      </g>
      <g class="edge" id="edge-L-CHECK-DROP-0">
        <path d="M 1505.75 824.25 L 1480.20 918.20" class="edge-path" marker-end="url(#arrow_point)" stroke-width="1" fill="none"/>
      </g>
      <g class="edge" id="edge-L-CHECK-INSERT-0">
        <path d="M 1577.03 800.87 C 1617.79 828.31, 1658.54 855.76, 1678.92 875.31 C 1699.30 894.87, 1699.30 906.53, 1699.30 918.20" class="edge-path" marker-end="url(#arrow_point)" stroke-width="1" fill="none"/>
      </g>
      <g class="edge" id="edge-L-INSERT-POST-0">
        <path d="M 1699.30 971.00 C 1699.30 979.33, 1699.30 987.67, 1699.30 996.00 C 1699.30 1004.33, 1699.30 1012.67, 1699.30 1021.00" class="edge-path" marker-end="url(#arrow_point)" fill="none" stroke-width="1"/>
      </g>
      <g class="edge" id="edge-L-MERGE-WINDOW-0">
        <path d="M 208.24 77.80 L 190.00 172.80" class="edge-path" stroke-dasharray="3,3" fill="none" stroke-width="2" marker-end="url(#arrow_point)"/>
      </g>
      <g class="edge" id="edge-L-IH-CHECK-0">
        <path d="M 787.00 594.80 C 787.00 603.13, 787.00 611.47, 886.17 621.47 C 985.33 631.47, 1183.67 643.13, 1300.01 662.24 C 1450.69 707.91, 1485.03 734.47, 1485.03 734.47" class="edge-path" fill="none" marker-end="url(#arrow_point)" stroke-width="2" stroke-dasharray="3,3"/>
      </g>
      <g class="edge" id="edge-L-RNT-CHECK-0">
        <path d="M 1137.00 594.80 C 1137.00 603.13, 1137.00 611.47, 1202.45 621.47 C 1267.90 631.47, 1398.80 643.13, 1464.25 654.80 C 1529.70 678.13, 1529.70 689.80, 1529.70 689.80" class="edge-path" stroke-dasharray="3,3" stroke-width="2" fill="none" marker-end="url(#arrow_point)"/>
      </g>
    </g>
    <g class="edgeLabels">
      <g class="edgeLabel" id="edge-label-L-START-IH-0">
        <rect x="750.8079656762923" y="431.9518356488044" width="80" height="22" class="edge-label-bg"/>
        <text x="790.8079656762923" y="442.9518356488044" class="edge-label" text-anchor="middle" dominant-baseline="central">Empty sets</text>
      </g>
      <g class="edgeLabel" id="edge-label-L-START-RNT-0">
        <rect x="1039.9070569060834" y="419.94997273997365" width="80" height="22" class="edge-label-bg"/>
        <text x="1079.9070569060834" y="430.94997273997365" class="edge-label" text-anchor="middle" dominant-baseline="central">Empty sets</text>
      </g>
      <g class="edgeLabel" id="edge-label-L-MERGE-RESTART-0">
        <rect x="474.49669103433496" y="156.04741219029614" width="116" height="22" class="edge-label-bg"/>
        <text x="532.496691034335" y="167.04741219029614" class="edge-label" text-anchor="middle" dominant-baseline="central">midtown restart</text>
      </g>
      <g class="edgeLabel" id="edge-label-L-RESTART-START-0">
        <rect x="836.6" y="289.7" width="108.8" height="22" class="edge-label-bg"/>
        <text x="891" y="300.7" class="edge-label" text-anchor="middle" dominant-baseline="central">Memory cleared</text>
      </g>
      <g class="edgeLabel" id="edge-label-L-EVENT-CHECK-0">
        <rect x="1610.0865708750387" y="666.9919650597789" width="94.39999999999999" height="22" class="edge-label-bg"/>
        <text x="1657.2865708750387" y="677.9919650597789" class="edge-label" dominant-baseline="central" text-anchor="middle">Generate key</text>
      </g>
      <g class="edgeLabel" id="edge-label-L-CHECK-DROP-0">
        <rect x="1471.215948264693" y="858.7821961246884" width="29.599999999999998" height="22" class="edge-label-bg"/>
        <text x="1486.015948264693" y="869.7821961246884" class="edge-label" text-anchor="middle" dominant-baseline="central">Yes</text>
      </g>
      <g class="edgeLabel" id="edge-label-L-CHECK-INSERT-0">
        <rect x="1641.4810717513437" y="840.8091886438883" width="22.4" height="22" class="edge-label-bg"/>
        <text x="1652.6810717513438" y="851.8091886438883" class="edge-label" text-anchor="middle" dominant-baseline="central">No</text>
      </g>
      <g class="edgeLabel" id="edge-label-L-MERGE-WINDOW-0">
        <rect x="114" y="112.06592017699975" width="152" height="22" class="edge-label-bg"/>
        <text x="190" y="123.06592017699975" class="edge-label" text-anchor="middle" dominant-baseline="central">Restarts every merge</text>
      </g>
      <g class="edgeLabel" id="edge-label-L-IH-CHECK-0">
        <rect x="1089.8296807809388" y="629.3899812224082" width="94.39999999999999" height="22" class="edge-label-bg"/>
        <text x="1137.0296807809389" y="640.3899812224082" class="edge-label" dominant-baseline="central" text-anchor="middle">Check/insert</text>
      </g>
      <g class="edgeLabel" id="edge-label-L-RNT-CHECK-0">
        <rect x="1291.1302586753916" y="626.7438733222275" width="94.39999999999999" height="22" class="edge-label-bg"/>
        <text x="1338.3302586753916" y="637.7438733222275" class="edge-label" text-anchor="middle" dominant-baseline="central">Check/insert</text>
      </g>
    </g>
    <g class="nodes">
      <g class="node" id="node-CHECK">
        <polygon points="1529.7,689.8 1608.9,769 1529.7,848.1999999999999 1450.5,769"/>
        <text x="1529.7" y="769" class="label" text-anchor="middle" dominant-baseline="central">Key in set?</text>
      </g>
      <g class="node" id="node-DROP">
        <rect x="1397" y="918.2" width="166.4" height="52.8" style="fill:#ffe1e1 !important"/>
        <text x="1480.2" y="944.6" class="label" text-anchor="middle" style="fill: #000000" dominant-baseline="central">Drop duplicate</text>
      </g>
      <g class="node" id="node-EVENT">
        <rect x="1606.6000000000001" y="505.2" width="166.4" height="89.6"/>
        <text x="1689.8000000000002" y="550" class="label" text-anchor="middle" dominant-baseline="central"><tspan x="1689.8000000000002" y="550" dy="-0.6em">Event</tspan><tspan x="1689.8000000000002" dy="1.2em">insight/review</tspan></text>
      </g>
      <g class="node" id="node-IH">
        <rect x="637" y="505.2" width="300" height="89.6" style="fill:#e1f5ff !important"/>
        <text x="787" y="550" class="label" dominant-baseline="central" style="fill: #000000" text-anchor="middle"><tspan x="787" y="550" dy="-0.6em">insight_hashes</tspan><tspan x="787" dy="1.2em">Mutex&lt;HashSet&lt;u64&gt;&gt;</tspan></text>
      </g>
      <g class="node" id="node-INSERT">
        <rect x="1635.3000000000002" y="918.2" width="128" height="52.8"/>
        <text x="1699.3000000000002" y="944.6" class="label" text-anchor="middle" dominant-baseline="central">Insert key</text>
      </g>
      <g class="node" id="node-MERGE">
        <rect x="124.4" y="25.000000000000007" width="195.2" height="52.8"/>
        <text x="222" y="51.400000000000006" class="label" dominant-baseline="central" text-anchor="middle">PR Merged to Main</text>
      </g>
      <g class="node" id="node-POST">
        <rect x="1611.3000000000002" y="1021.0000000000001" width="176" height="52.8" style="fill:#e1ffe1 !important"/>
        <text x="1699.3000000000002" y="1047.4" class="label" text-anchor="middle" style="fill: #000000" dominant-baseline="central">Post to channel</text>
      </g>
      <g class="node" id="node-RESTART">
        <rect x="807.8" y="191.20000000000002" width="166.4" height="52.8" style="fill:#ffe1e1 !important"/>
        <text x="891" y="217.60000000000002" class="label" dominant-baseline="central" style="fill: #000000" text-anchor="middle">Daemon Restart</text>
      </g>
      <g class="node" id="node-RNT">
        <rect x="987" y="505.2" width="300" height="89.6" style="fill:#e1f5ff !important"/>
        <text x="1137" y="550" class="label" dominant-baseline="central" text-anchor="middle" style="fill: #000000"><tspan x="1137" y="550" dy="-0.6em">review_note_tracker</tspan><tspan x="1137" dy="1.2em">Mutex&lt;HashSet&lt;(String, u64)&gt;&gt;</tspan></text>
      </g>
      <g class="node" id="node-START">
        <rect x="817.4" y="357.4" width="147.2" height="52.8"/>
        <text x="891" y="383.79999999999995" class="label" text-anchor="middle" dominant-baseline="central">Daemon Start</text>
      </g>
      <g class="node" id="node-WINDOW">
        <rect x="40" y="172.8" width="300" height="89.6" style="fill:#fff9e1 !important"/>
        <text x="190" y="217.60000000000002" class="label" dominant-baseline="central" text-anchor="middle" style="fill: #000000"><tspan x="190" y="217.60000000000002" dy="-0.6em">Window: Between merges</tspan><tspan x="190" dy="1.2em">Growth: Bounded by PR velocity</tspan></text>
      </g>
    </g>
  </g>
</svg>
