<?xml version="1.0" encoding="UTF-8"?>
<svg xmlns="http://www.w3.org/2000/svg" width="1343" height="1198.1999999999998" viewBox="-8 -27.999999999999993 1343 1198.1999999999998" class="mermaid">
  <style>

.mermaid {
  font-family: trebuchet ms, verdana, arial, sans-serif;
  font-size: 16px;
}

.node rect,
.node polygon,
.node circle,
.node ellipse,
.node path {
  fill: #ECECFF;
  stroke: #9370DB;
  stroke-width: 1px;
}

.node line {
  stroke: #9370DB;
  stroke-width: 1px;
}

.node .label {
  fill: #333333;
}

.node text {
  fill: #333333;
  font-family: trebuchet ms, verdana, arial, sans-serif;
  font-size: 16px;
}

.edge-path {
  fill: none;
  stroke: #333333;
  stroke-width: 1px;
}

.edge-label {
  fill: #333333;
  font-family: trebuchet ms, verdana, arial, sans-serif;
}

.edge-label-bg {
  fill: rgba(232, 232, 232, 0.8);
}

.subgraph {
  fill: #ffffde;
  stroke: #aaaa33;
  stroke-width: 1px;
}

.subgraph-title {
  fill: #333333;
  font-weight: bold;
}

.cluster rect {
  fill: #ffffde;
  stroke: #aaaa33;
  stroke-width: 1px;
  rx: 5px;
  ry: 5px;
}

.cluster-label {
  fill: #333333;
  font-family: trebuchet ms, verdana, arial, sans-serif;
  font-size: 16px;
  font-weight: bold;
}

marker path {
  fill: #333333;
  stroke: #333333;
}

  </style>
  <defs>
    <marker id="arrow_point" viewBox="0 0 10 10" refX="10" refY="5" markerWidth="8" markerHeight="8" orient="auto" markerUnits="userSpaceOnUse">
      <path d="M 0 0 L 10 5 L 0 10 z"/>
    </marker>
    <marker id="arrow_point_start" viewBox="0 0 10 10" refX="4.5" refY="5" markerWidth="8" markerHeight="8" orient="auto" markerUnits="userSpaceOnUse">
      <path d="M 0 5 L 10 10 L 10 0 z"/>
    </marker>
    <marker id="arrow_cross" viewBox="0 0 11 11" refX="12" refY="5.2" markerWidth="11" markerHeight="11" orient="auto" markerUnits="userSpaceOnUse">
      <path d="M 1 1 L 10 10 M 10 1 L 1 10" fill="none" stroke-width="2"/>
    </marker>
    <marker id="arrow_cross_start" viewBox="0 0 11 11" refX="-1" refY="5.2" markerWidth="11" markerHeight="11" orient="auto" markerUnits="userSpaceOnUse">
      <path d="M 1 1 L 10 10 M 10 1 L 1 10" stroke-width="2" fill="none"/>
    </marker>
    <marker id="arrow_circle" viewBox="0 0 10 10" refX="11" refY="5" markerWidth="11" markerHeight="11" orient="auto" markerUnits="userSpaceOnUse">
      <circle cx="5" cy="5" r="5"/>
    </marker>
    <marker id="arrow_circle_start" viewBox="0 0 10 10" refX="-1" refY="5" markerWidth="11" markerHeight="11" orient="auto" markerUnits="userSpaceOnUse">
      <circle cx="5" cy="5" r="5"/>
    </marker>
  </defs>
  <g class="root">
    <g class="clusters">
      <g class="subgraph" id="subgraph-subGraph0">
        <rect x="48.59999999999998" y="-19.999999999999993" width="454.7" height="1177.1999999999998" class="cluster"/>
        <text x="275.95" y="-3.999999999999993" class="cluster-label" text-anchor="middle">OLD: Inline Graphics (Problematic)</text>
      </g>
      <g class="subgraph" id="subgraph-subGraph1">
        <rect x="626.8" y="-19.999999999999993" width="680.1999999999998" height="774.6" class="cluster"/>
        <text x="966.8999999999999" y="-3.999999999999993" class="cluster-label" text-anchor="middle">NEW: Text Placeholders + Fullscreen View</text>
      </g>
    </g>
    <g class="edgePaths">
      <g class="edge" id="edge-L-A1-B1-0">
        <path d="M 159.00 77.80 C 159.00 86.13, 159.00 94.47, 159.00 108.93 C 159.00 123.40, 159.00 144.00, 159.00 164.60" class="edge-path" fill="none" stroke-width="1" marker-end="url(#arrow_point)"/>
      </g>
      <g class="edge" id="edge-L-B1-C1-0">
        <path d="M 159.00 217.40 C 159.00 238.00, 159.00 258.60, 159.00 282.67 C 159.00 306.73, 159.00 334.27, 159.00 361.80" class="edge-path" stroke-width="1" marker-end="url(#arrow_point)" fill="none"/>
      </g>
      <g class="edge" id="edge-L-C1-D1-0">
        <path d="M 159.00 414.60 C 159.00 445.47, 159.00 476.33, 170.80 500.67 C 182.60 525.00, 206.20 542.80, 229.80 560.60" class="edge-path" fill="none" stroke-width="1" marker-end="url(#arrow_point)"/>
      </g>
      <g class="edge" id="edge-L-D1-E1-0">
        <path d="M 264.80 613.40 C 264.80 627.87, 264.80 642.33, 264.80 653.73 C 264.80 665.13, 264.80 673.47, 264.80 681.80" class="edge-path" stroke-width="1" marker-end="url(#arrow_point)" fill="none"/>
      </g>
      <g class="edge" id="edge-L-E1-F1-0">
        <path d="M 264.80 734.60 C 264.80 742.93, 264.80 751.27, 264.80 759.60 C 264.80 767.93, 264.80 776.27, 264.80 784.60 C 264.80 801.27, 264.80 809.60, 264.80 809.60" class="edge-path" stroke-width="1" marker-end="url(#arrow_point)" fill="none"/>
      </g>
      <g class="edge" id="edge-L-F1-G1-0">
        <path d="M 225.75 938.55 L 161.40 1047.60" class="edge-path" marker-end="url(#arrow_point)" fill="none" stroke-width="1"/>
      </g>
      <g class="edge" id="edge-L-F1-H1-0">
        <path d="M 312.25 930.15 C 347.93 957.63, 383.62 985.12, 401.46 1007.76 C 419.30 1030.40, 419.30 1048.20, 419.30 1066.00" class="edge-path" stroke-width="1" fill="none" marker-end="url(#arrow_point)"/>
      </g>
      <g class="edge" id="edge-L-I1-D1-0">
        <path d="M 365.80 414.60 C 365.80 445.47, 365.80 476.33, 354.54 500.67 C 343.27 525.00, 320.74 542.80, 298.21 560.60" class="edge-path" stroke-width="2" marker-end="url(#arrow_point)" fill="none" stroke-dasharray="3,3"/>
      </g>
      <g class="edge" id="edge-L-A2-B2-0">
        <path d="M 893.40 77.80 C 893.40 86.13, 893.40 94.47, 893.40 108.93 C 893.40 123.40, 893.40 144.00, 893.40 164.60" class="edge-path" marker-end="url(#arrow_point)" stroke-width="1" fill="none"/>
      </g>
      <g class="edge" id="edge-L-B2-C2-0">
        <path d="M 893.40 217.40 C 893.40 238.00, 893.40 258.60, 893.40 273.07 C 893.40 287.53, 893.40 295.87, 893.40 304.20" class="edge-path" fill="none" marker-end="url(#arrow_point)" stroke-width="1"/>
      </g>
      <g class="edge" id="edge-L-C2-D2-0">
        <path d="M 848.08 426.88 C 816.72 453.66, 785.36 480.43, 769.68 499.65 C 754.00 518.87, 754.00 530.53, 754.00 542.20" class="edge-path" fill="none" marker-end="url(#arrow_point)" stroke-width="1"/>
      </g>
      <g class="edge" id="edge-L-C2-E2-0">
        <path d="M 938.72 426.88 C 970.08 453.66, 1001.44 480.43, 1017.12 499.65 C 1032.80 518.87, 1032.80 530.53, 1032.80 542.20" class="edge-path" marker-end="url(#arrow_point)" fill="none" stroke-width="1"/>
      </g>
      <g class="edge" id="edge-L-D2-F2-0">
        <path d="M 754.00 631.80 C 754.00 640.13, 754.00 648.47, 765.30 656.80 C 776.60 665.13, 799.20 673.47, 821.80 681.80" class="edge-path" stroke-width="1" fill="none" marker-end="url(#arrow_point)"/>
      </g>
      <g class="edge" id="edge-L-E2-F2-0">
        <path d="M 1032.80 631.80 C 1032.80 640.13, 1032.80 648.47, 1021.50 656.80 C 1010.20 665.13, 987.60 673.47, 965.00 681.80" class="edge-path" stroke-width="1" fill="none" marker-end="url(#arrow_point)"/>
      </g>
      <g class="edge" id="edge-L-G2-H2-0">
        <path d="M 1160.60 77.80 C 1160.60 86.13, 1160.60 94.47, 1160.60 102.80 C 1160.60 111.13, 1160.60 119.47, 1160.60 127.80" class="edge-path" fill="none" stroke-width="1" marker-end="url(#arrow_point)"/>
      </g>
      <g class="edge" id="edge-L-H2-I2-0">
        <path d="M 1160.60 254.20 C 1160.60 262.53, 1160.60 270.87, 1160.60 288.80 C 1160.60 306.73, 1160.60 334.27, 1160.60 361.80" class="edge-path" marker-end="url(#arrow_point)" fill="none" stroke-width="1"/>
      </g>
    </g>
    <g class="edgeLabels">
      <g class="edgeLabel" id="edge-label-L-F1-G1-0">
        <rect x="167.2948418226015" y="977.7829189855938" width="29.599999999999998" height="22" class="edge-label-bg"/>
        <text x="182.09484182260152" y="988.7829189855938" class="edge-label" text-anchor="middle" dominant-baseline="central">Yes</text>
      </g>
      <g class="edgeLabel" id="edge-label-L-F1-H1-0">
        <rect x="375.7286540191831" y="976.6667302801475" width="22.4" height="22" class="edge-label-bg"/>
        <text x="386.9286540191831" y="987.6667302801475" class="edge-label" dominant-baseline="central" text-anchor="middle">No</text>
      </g>
      <g class="edgeLabel" id="edge-label-L-I1-D1-0">
        <rect x="289.79999999999995" y="492.9682319370339" width="152" height="22" class="edge-label-bg"/>
        <text x="365.79999999999995" y="503.9682319370339" class="edge-label" text-anchor="middle" dominant-baseline="central">Recalc ALL positions</text>
      </g>
      <g class="edgeLabel" id="edge-label-L-C2-D2-0">
        <rect x="769.3322264746246" y="467.4041969119059" width="36.8" height="22" class="edge-label-bg"/>
        <text x="787.7322264746246" y="478.4041969119059" class="edge-label" text-anchor="middle" dominant-baseline="central">Text</text>
      </g>
      <g class="edgeLabel" id="edge-label-L-C2-E2-0">
        <rect x="969.8677735253754" y="467.4041969119059" width="58.4" height="22" class="edge-label-bg"/>
        <text x="999.0677735253754" y="478.4041969119059" class="edge-label" dominant-baseline="central" text-anchor="middle">Mermaid</text>
      </g>
    </g>
    <g class="nodes">
      <g class="node" id="node-A1">
        <rect x="71" y="25.000000000000007" width="176" height="52.8"/>
        <text x="159" y="51.400000000000006" class="label" text-anchor="middle" dominant-baseline="central">Message Content</text>
      </g>
      <g class="node" id="node-A2">
        <rect x="805.4" y="25.000000000000007" width="176" height="52.8"/>
        <text x="893.4" y="51.400000000000006" class="label" text-anchor="middle" dominant-baseline="central">Message Content</text>
      </g>
      <g class="node" id="node-B1">
        <rect x="80.6" y="164.6" width="156.8" height="52.8"/>
        <text x="159" y="191" class="label" text-anchor="middle" dominant-baseline="central">Parse Mermaid</text>
      </g>
      <g class="node" id="node-B2">
        <rect x="810.1999999999999" y="164.6" width="166.4" height="52.8"/>
        <text x="893.4" y="191" class="label" text-anchor="middle" dominant-baseline="central">Parse Segments</text>
      </g>
      <g class="node" id="node-C1">
        <rect x="80.6" y="361.8" width="156.8" height="52.8"/>
        <text x="159" y="388.2" class="label" dominant-baseline="central" text-anchor="middle">Render to PNG</text>
      </g>
      <g class="node" id="node-C2">
        <polygon points="893.4,304.2 977.4,388.2 893.4,472.2 809.4,388.2"/>
        <text x="893.4" y="388.2" class="label" dominant-baseline="central" text-anchor="middle">Segment Type</text>
      </g>
      <g class="node" id="node-D1">
        <rect x="114.79999999999995" y="560.6" width="300" height="52.8"/>
        <text x="264.79999999999995" y="587" class="label" dominant-baseline="central" text-anchor="middle">Calculate Absolute Pixel Coords</text>
      </g>
      <g class="node" id="node-D2">
        <rect x="646.8" y="542.2" width="214.4" height="89.6" style="fill:#9f9 !important;stroke:#0f0 !important"/>
        <text x="754" y="587" class="label" dominant-baseline="central" style="fill: #000000" text-anchor="middle"><tspan x="754" y="587" dy="-0.6em">Normal Ratatui Flow</tspan><tspan x="754" dy="1.2em">Cell-based Layout</tspan></text>
      </g>
      <g class="node" id="node-E1">
        <rect x="138.39999999999998" y="681.8000000000001" width="252.79999999999998" height="52.8"/>
        <text x="264.79999999999995" y="708.2" class="label" dominant-baseline="central" text-anchor="middle">Kitty Graphics Protocol</text>
      </g>
      <g class="node" id="node-E2">
        <rect x="911.1999999999999" y="542.2" width="243.2" height="89.6" style="fill:#9f9 !important;stroke:#0f0 !important"/>
        <text x="1032.8" y="587" class="label" style="fill: #000000" text-anchor="middle" dominant-baseline="central"><tspan x="1032.8" y="587" dy="-0.6em">Text Placeholder</tspan><tspan x="1032.8" dy="1.2em">&apos;rendering diagram...&apos;</tspan></text>
      </g>
      <g class="node" id="node-F1">
        <polygon points="264.79999999999995,809.6 348.79999999999995,893.6 264.79999999999995,977.6 180.79999999999995,893.6"/>
        <text x="264.79999999999995" y="893.6" class="label" dominant-baseline="central" text-anchor="middle">Inside tmux?</text>
      </g>
      <g class="node" id="node-F2">
        <rect x="810.1999999999999" y="681.8000000000001" width="166.4" height="52.8"/>
        <text x="893.4" y="708.2" class="label" text-anchor="middle" dominant-baseline="central">Ratatui Buffer</text>
      </g>
      <g class="node" id="node-G1">
        <rect x="68.59999999999998" y="1047.6" width="185.6" height="89.6" style="fill:#f99 !important;stroke:#f00 !important"/>
        <text x="161.39999999999998" y="1092.3999999999999" class="label" style="fill: #ffffff" dominant-baseline="central" text-anchor="middle"><tspan x="161.39999999999998" y="1092.3999999999999" dy="-0.6em">DCS Passthrough</tspan><tspan x="161.39999999999998" dy="1.2em">Double ESC chars</tspan></text>
      </g>
      <g class="node" id="node-G2">
        <rect x="1058.1999999999998" y="25.000000000000007" width="204.79999999999998" height="52.8"/>
        <text x="1160.6" y="51.400000000000006" class="label" text-anchor="middle" dominant-baseline="central">User Opens Diagram</text>
      </g>
      <g class="node" id="node-H1">
        <rect x="355.29999999999995" y="1065.9999999999998" width="128" height="52.8"/>
        <text x="419.29999999999995" y="1092.3999999999999" class="label" text-anchor="middle" dominant-baseline="central">Direct APC</text>
      </g>
      <g class="node" id="node-H2">
        <rect x="1058.1999999999998" y="127.80000000000001" width="204.79999999999998" height="126.39999999999999" style="fill:#9f9 !important;stroke:#0f0 !important"/>
        <text x="1160.6" y="191" class="label" style="fill: #000000" text-anchor="middle" dominant-baseline="central"><tspan x="1160.6" y="191" dy="-1.2em">Fullscreen View</tspan><tspan x="1160.6" dy="1.2em">Simple Context</tspan><tspan x="1160.6" dy="1.2em">No Scroll Tracking</tspan></text>
      </g>
      <g class="node" id="node-I1">
        <rect x="292.19999999999993" y="361.8" width="147.2" height="52.8" style="fill:#f99 !important;stroke:#f00 !important"/>
        <text x="365.79999999999995" y="388.2" class="label" dominant-baseline="central" style="fill: #ffffff" text-anchor="middle">User Scrolls</text>
      </g>
      <g class="node" id="node-I2">
        <rect x="1034.1999999999998" y="361.8" width="252.79999999999998" height="52.8"/>
        <text x="1160.6" y="388.2" class="label" dominant-baseline="central" text-anchor="middle">Kitty Graphics Protocol</text>
      </g>
    </g>
  </g>
</svg>
