<?xml version="1.0" encoding="UTF-8"?>
<svg xmlns="http://www.w3.org/2000/svg" width="1985.6000000000001" height="1579.2" viewBox="-8 -27.999999999999993 1985.6000000000001 1579.2" class="mermaid">
  <style>

.mermaid {
  font-family: trebuchet ms, verdana, arial, sans-serif;
  font-size: 16px;
}

.node rect,
.node polygon,
.node circle,
.node ellipse,
.node path {
  fill: #ECECFF;
  stroke: #9370DB;
  stroke-width: 1px;
}

.node line {
  stroke: #9370DB;
  stroke-width: 1px;
}

.node .label {
  fill: #333333;
}

.node text {
  fill: #333333;
  font-family: trebuchet ms, verdana, arial, sans-serif;
  font-size: 16px;
}

.edge-path {
  fill: none;
  stroke: #333333;
  stroke-width: 1px;
}

.edge-label {
  fill: #333333;
  font-family: trebuchet ms, verdana, arial, sans-serif;
}

.edge-label-bg {
  fill: rgba(232, 232, 232, 0.8);
}

.subgraph {
  fill: #ffffde;
  stroke: #aaaa33;
  stroke-width: 1px;
}

.subgraph-title {
  fill: #333333;
  font-weight: bold;
}

.cluster rect {
  fill: #ffffde;
  stroke: #aaaa33;
  stroke-width: 1px;
  rx: 5px;
  ry: 5px;
}

.cluster-label {
  fill: #333333;
  font-family: trebuchet ms, verdana, arial, sans-serif;
  font-size: 16px;
  font-weight: bold;
}

marker path {
  fill: #333333;
  stroke: #333333;
}

  </style>
  <defs>
    <marker id="arrow_point" viewBox="0 0 10 10" refX="10" refY="5" markerWidth="8" markerHeight="8" orient="auto" markerUnits="userSpaceOnUse">
      <path d="M 0 0 L 10 5 L 0 10 z"/>
    </marker>
    <marker id="arrow_point_start" viewBox="0 0 10 10" refX="4.5" refY="5" markerWidth="8" markerHeight="8" orient="auto" markerUnits="userSpaceOnUse">
      <path d="M 0 5 L 10 10 L 10 0 z"/>
    </marker>
    <marker id="arrow_cross" viewBox="0 0 11 11" refX="12" refY="5.2" markerWidth="11" markerHeight="11" orient="auto" markerUnits="userSpaceOnUse">
      <path d="M 1 1 L 10 10 M 10 1 L 1 10" fill="none" stroke-width="2"/>
    </marker>
    <marker id="arrow_cross_start" viewBox="0 0 11 11" refX="-1" refY="5.2" markerWidth="11" markerHeight="11" orient="auto" markerUnits="userSpaceOnUse">
      <path d="M 1 1 L 10 10 M 10 1 L 1 10" fill="none" stroke-width="2"/>
    </marker>
    <marker id="arrow_circle" viewBox="0 0 10 10" refX="11" refY="5" markerWidth="11" markerHeight="11" orient="auto" markerUnits="userSpaceOnUse">
      <circle cx="5" cy="5" r="5"/>
    </marker>
    <marker id="arrow_circle_start" viewBox="0 0 10 10" refX="-1" refY="5" markerWidth="11" markerHeight="11" orient="auto" markerUnits="userSpaceOnUse">
      <circle cx="5" cy="5" r="5"/>
    </marker>
  </defs>
  <g class="root">
    <g class="clusters">
      <g class="subgraph" id="subgraph-Data Collection (snapshot.rs)">
        <rect x="20" y="-19.999999999999993" width="340" height="323.4" class="cluster"/>
        <text x="190" y="-3.999999999999993" class="cluster-label" text-anchor="middle">Data Collection (snapshot.rs)</text>
      </g>
      <g class="subgraph" id="subgraph-Task Dispatch (dispatch.rs)">
        <rect x="430.0000000000001" y="-19.999999999999993" width="959.6" height="1558.2" class="cluster"/>
        <text x="909.8000000000002" y="-3.999999999999993" class="cluster-label" text-anchor="middle">Task Dispatch (dispatch.rs)</text>
      </g>
      <g class="subgraph" id="subgraph-The Bug">
        <rect x="1695.2" y="358.40000000000003" width="254.4000000000001" height="154.59999999999997" class="cluster"/>
        <text x="1822.4" y="374.40000000000003" class="cluster-label" text-anchor="middle">The Bug</text>
      </g>
      <g class="subgraph" id="subgraph-Fix Location">
        <rect x="1042.8" y="376.80000000000007" width="582.4000000000001" height="873.9999999999999" class="cluster"/>
        <text x="1334" y="392.80000000000007" class="cluster-label" text-anchor="middle">Fix Location</text>
      </g>
    </g>
    <g class="edgePaths">
      <g class="edge" id="edge-L-A-B-0">
        <path d="M 190.00 77.80 C 190.00 86.13, 190.00 94.47, 190.00 102.80 C 190.00 111.13, 190.00 119.47, 190.00 127.80" class="edge-path" fill="none" stroke-width="1" marker-end="url(#arrow_point)"/>
      </g>
      <g class="edge" id="edge-L-B-C-0">
        <path d="M 190.00 180.60 C 190.00 188.93, 190.00 197.27, 190.00 205.60 C 190.00 213.93, 190.00 222.27, 190.00 230.60" class="edge-path" stroke-width="1" marker-end="url(#arrow_point)" fill="none"/>
      </g>
      <g class="edge" id="edge-L-D-E-0">
        <path d="M 672.70 77.80 C 672.70 86.13, 672.70 94.47, 672.70 102.80 C 672.70 111.13, 672.70 119.47, 672.70 127.80" class="edge-path" fill="none" stroke-width="1" marker-end="url(#arrow_point)"/>
      </g>
      <g class="edge" id="edge-L-E-F-0">
        <path d="M 672.70 180.60 C 672.70 188.93, 672.70 197.27, 672.70 205.60 C 672.70 213.93, 672.70 222.27, 672.70 230.60" class="edge-path" stroke-width="1" marker-end="url(#arrow_point)" fill="none"/>
      </g>
      <g class="edge" id="edge-L-F-G-0">
        <path d="M 631.46 283.40 C 618.44 509.67, 605.42 735.93, 693.15 870.73 C 780.88 1005.52, 969.35 1048.85, 1157.83 1092.17" class="edge-path" stroke-width="1" fill="none" marker-end="url(#arrow_point)"/>
      </g>
      <g class="edge" id="edge-L-G-H-0">
        <path d="M 1198.66 1176.66 C 1175.88 1203.04, 1153.09 1229.42, 1049.38 1248.44 C 945.67 1267.47, 761.03 1279.13, 668.72 1293.87 C 576.40 1326.40, 576.40 1344.20, 576.40 1344.20" class="edge-path" stroke-width="1" marker-end="url(#arrow_point)" fill="none"/>
      </g>
      <g class="edge" id="edge-L-G-I-0">
        <path d="M 1317.10 1166.50 C 1353.57 1196.26, 1390.03 1226.03, 1309.85 1246.75 C 1229.67 1267.47, 1032.83 1279.13, 934.42 1290.80 C 836.00 1314.13, 836.00 1325.80, 836.00 1325.80" class="edge-path" marker-end="url(#arrow_point)" fill="none" stroke-width="1"/>
      </g>
      <g class="edge" id="edge-L-I-J-0">
        <path d="M 836.00 1415.40 C 836.00 1423.73, 836.00 1432.07, 836.00 1440.40 C 836.00 1448.73, 836.00 1457.07, 836.00 1465.40" class="edge-path" stroke-width="1" marker-end="url(#arrow_point)" fill="none"/>
      </g>
      <g class="edge" id="edge-L-C-K-0">
        <path d="M 190.00 283.40 C 190.00 303.40, 190.00 323.40, 394.18 339.23 C 598.37 355.07, 1006.73 366.73, 1260.93 381.14 C 1615.17 412.69, 1715.20 429.83, 1715.20 429.83" class="edge-path" fill="none" stroke-dasharray="3,3" stroke-width="2" marker-end="url(#arrow_point)"/>
      </g>
      <g class="edge" id="edge-L-F-K-0">
        <path d="M 682.97 283.40 C 686.21 315.07, 689.46 346.73, 861.50 373.10 C 1033.53 399.46, 1374.37 420.52, 1715.20 441.58" class="edge-path" marker-end="url(#arrow_point)" fill="none" stroke-width="2" stroke-dasharray="3,3"/>
      </g>
      <g class="edge" id="edge-L-K-G-0">
        <path d="M 1822.40 493.00 C 1822.40 501.33, 1822.40 509.67, 1752.67 519.67 C 1682.93 529.67, 1543.47 541.33, 1473.73 615.37 C 1404.00 689.40, 1404.00 825.80, 1388.51 909.55 C 1342.06 1024.39, 1311.08 1055.48, 1311.08 1055.48" class="edge-path" fill="none" stroke-dasharray="3,3" marker-end="url(#arrow_point)" stroke-width="2"/>
      </g>
      <g class="edge" id="edge-L-L-M-0">
        <path d="M 1212.80 474.60 C 1212.80 489.07, 1212.80 503.53, 1212.80 516.60 C 1212.80 529.67, 1212.80 541.33, 1212.80 553.00 C 1212.80 576.33, 1212.80 588.00, 1212.80 588.00" class="edge-path" stroke-width="1" marker-end="url(#arrow_point)" fill="none"/>
      </g>
      <g class="edge" id="edge-L-M-N-0">
        <path d="M 1306.32 821.46 C 1375.01 868.38, 1443.71 915.29, 1478.05 956.58 C 1512.40 997.87, 1512.40 1033.53, 1512.40 1069.20" class="edge-path" marker-end="url(#arrow_point)" fill="none" stroke-width="1"/>
      </g>
      <g class="edge" id="edge-L-M-G-0">
        <path d="M 1212.80 927.20 L 1228.44 1021.56" class="edge-path" marker-end="url(#arrow_point)" fill="none" stroke-width="1"/>
      </g>
      <g class="edge" id="edge-L-F-L-0">
        <path d="M 641.73 283.40 C 631.95 315.07, 622.18 346.73, 697.89 371.94 C 773.60 397.14, 934.80 415.88, 1096.00 434.62" class="edge-path" fill="none" marker-end="url(#arrow_point)" stroke-width="1"/>
      </g>
    </g>
    <g class="edgeLabels">
      <g class="edgeLabel" id="edge-label-L-F-G-0">
        <rect x="563.2" y="891.2013460684518" width="58.4" height="22" class="edge-label-bg"/>
        <text x="592.4000000000001" y="902.2013460684518" class="edge-label" text-anchor="middle" dominant-baseline="central">PR #709</text>
      </g>
      <g class="edgeLabel" id="edge-label-L-G-H-0">
        <rect x="856.8870485900741" y="1260.6863572835305" width="44" height="22" class="edge-label-bg"/>
        <text x="878.8870485900741" y="1271.6863572835305" class="edge-label" dominant-baseline="central" text-anchor="middle">found</text>
      </g>
      <g class="edgeLabel" id="edge-label-L-G-I-0">
        <rect x="1147.8661922565962" y="1259.1576346672637" width="72.8" height="22" class="edge-label-bg"/>
        <text x="1184.2661922565962" y="1270.1576346672637" class="edge-label" text-anchor="middle" dominant-baseline="central">not found</text>
      </g>
      <g class="edgeLabel" id="edge-label-L-C-K-0">
        <rect x="848.7375746936167" y="353.3907886003401" width="152" height="22" class="edge-label-bg"/>
        <text x="924.7375746936167" y="364.3907886003401" class="edge-label" dominant-baseline="central" text-anchor="middle">Available but unused</text>
      </g>
      <g class="edgeLabel" id="edge-label-L-F-K-0">
        <rect x="1083.2292160637905" y="396.00269034367767" width="144.79999999999998" height="22" class="edge-label-bg"/>
        <text x="1155.6292160637906" y="407.00269034367767" class="edge-label" text-anchor="middle" dominant-baseline="central">PR number extracted</text>
      </g>
      <g class="edgeLabel" id="edge-label-L-K-G-0">
        <rect x="1335.2" y="590.0010913625658" width="137.6" height="22" class="edge-label-bg"/>
        <text x="1404" y="601.0010913625658" class="edge-label" text-anchor="middle" dominant-baseline="central">Should filter here</text>
      </g>
      <g class="edgeLabel" id="edge-label-L-M-N-0">
        <rect x="1438.7391047408225" y="911.0032737983053" width="29.599999999999998" height="22" class="edge-label-bg"/>
        <text x="1453.5391047408225" y="922.0032737983053" class="edge-label" text-anchor="middle" dominant-baseline="central">yes</text>
      </g>
      <g class="edgeLabel" id="edge-label-L-M-G-0">
        <rect x="1204.9615267447084" y="963.9569939961685" width="22.4" height="22" class="edge-label-bg"/>
        <text x="1216.1615267447085" y="974.9569939961685" class="edge-label" text-anchor="middle" dominant-baseline="central">no</text>
      </g>
    </g>
    <g class="nodes">
      <g class="node" id="node-A">
        <rect x="68.4" y="25.000000000000007" width="243.2" height="52.8"/>
        <text x="190" y="51.400000000000006" class="label" dominant-baseline="central" text-anchor="middle">collect_world_snapshot</text>
      </g>
      <g class="node" id="node-B">
        <rect x="40" y="127.80000000000001" width="300" height="52.8"/>
        <text x="190" y="154.20000000000002" class="label" dominant-baseline="central" text-anchor="middle">get_coworkers_with_merged_prs</text>
      </g>
      <g class="node" id="node-C">
        <rect x="40" y="230.6" width="300" height="52.8"/>
        <text x="190" y="257" class="label" text-anchor="middle" dominant-baseline="central">coworkers_with_merged_prs: HashSet</text>
      </g>
      <g class="node" id="node-D">
        <rect x="546.2999999999998" y="25.000000000000007" width="252.79999999999998" height="52.8"/>
        <text x="672.6999999999998" y="51.400000000000006" class="label" dominant-baseline="central" text-anchor="middle">spawn_for_pending_tasks</text>
      </g>
      <g class="node" id="node-E">
        <rect x="555.8999999999999" y="127.80000000000001" width="233.6" height="52.8"/>
        <text x="672.6999999999998" y="154.20000000000002" class="label" text-anchor="middle" dominant-baseline="central">iterate pending tasks</text>
      </g>
      <g class="node" id="node-F">
        <rect x="527.0999999999998" y="230.6" width="291.2" height="52.8"/>
        <text x="672.6999999999998" y="257" class="label" text-anchor="middle" dominant-baseline="central">extract_pr_number_from_task</text>
      </g>
      <g class="node" id="node-G">
        <polygon points="1252.8000000000002,997.2 1369.6000000000001,1114 1252.8000000000002,1230.8 1136.0000000000002,1114"/>
        <text x="1252.8000000000002" y="1114" class="label" text-anchor="middle" dominant-baseline="central"><tspan x="1252.8000000000002" y="1114" dy="-0.6em">Check in-memory</tspan><tspan x="1252.8000000000002" dy="1.2em">PR map?</tspan></text>
      </g>
      <g class="node" id="node-H">
        <rect x="450.0000000000001" y="1344.2" width="252.79999999999998" height="52.8"/>
        <text x="576.4000000000001" y="1370.6000000000001" class="label" text-anchor="middle" dominant-baseline="central">Group to existing owner</text>
      </g>
      <g class="node" id="node-I">
        <rect x="752.8" y="1325.8000000000002" width="166.4" height="89.6"/>
        <text x="836" y="1370.6000000000001" class="label" text-anchor="middle" dominant-baseline="central"><tspan x="836" y="1370.6000000000001" dy="-0.6em">Check disk for</tspan><tspan x="836" dy="1.2em">PR owner</tspan></text>
      </g>
      <g class="node" id="node-J">
        <rect x="719.2" y="1465.4" width="233.6" height="52.8"/>
        <text x="836" y="1491.8000000000002" class="label" text-anchor="middle" dominant-baseline="central">Assign/nudge coworker</text>
      </g>
      <g class="node" id="node-K">
        <rect x="1715.2" y="403.40000000000003" width="214.4" height="89.6" style="fill:#ff6b6b !important;stroke:#c92a2a !important;color:#fff !important"/>
        <text x="1822.4" y="448.20000000000005" class="label" text-anchor="middle" style="fill: #fff" dominant-baseline="central"><tspan x="1822.4" y="448.20000000000005" dy="-0.6em">❌ Never checks if</tspan><tspan x="1822.4" dy="1.2em">PR is in merged set</tspan></text>
      </g>
      <g class="node" id="node-L">
        <rect x="1096" y="421.80000000000007" width="233.6" height="52.8"/>
        <text x="1212.8" y="448.20000000000005" class="label" text-anchor="middle" dominant-baseline="central">After extracting PR #</text>
      </g>
      <g class="node" id="node-M">
        <polygon points="1212.8,588 1362.8,757.6 1212.8,927.2 1062.8,757.6"/>
        <text x="1212.8" y="757.6" class="label" dominant-baseline="central" text-anchor="middle"><tspan x="1212.8" y="757.6" dy="-0.6em">Is PR in</tspan><tspan x="1212.8" dy="1.2em">coworkers_with_merged_prs?</tspan></text>
      </g>
      <g class="node" id="node-N">
        <rect x="1419.6000000000001" y="1069.2" width="185.6" height="89.6" style="fill:#51cf66 !important;stroke:#2f9e44 !important;color:#000 !important"/>
        <text x="1512.4" y="1114" class="label" text-anchor="middle" dominant-baseline="central" style="fill: #000"><tspan x="1512.4" y="1114" dy="-0.6em">Skip task or</tspan><tspan x="1512.4" dy="1.2em">auto-complete it</tspan></text>
      </g>
    </g>
  </g>
</svg>
