<?xml version="1.0" encoding="UTF-8"?>
<svg xmlns="http://www.w3.org/2000/svg" width="2610" height="2353.0145214135673" viewBox="-8 -8 2610 2353.0145214135673" class="mermaid">
  <style>

.mermaid {
  font-family: trebuchet ms, verdana, arial, sans-serif;
  font-size: 16px;
}

.node rect,
.node polygon,
.node circle,
.node ellipse,
.node path {
  fill: #ECECFF;
  stroke: #9370DB;
  stroke-width: 1px;
}

.node line {
  stroke: #9370DB;
  stroke-width: 1px;
}

.node .label {
  fill: #333333;
}

.node text {
  fill: #333333;
  font-family: trebuchet ms, verdana, arial, sans-serif;
  font-size: 16px;
}

.edge-path {
  fill: none;
  stroke: #333333;
  stroke-width: 1px;
}

.edge-label {
  fill: #333333;
  font-family: trebuchet ms, verdana, arial, sans-serif;
}

.edge-label-bg {
  fill: rgba(232, 232, 232, 0.8);
}

.subgraph {
  fill: #ffffde;
  stroke: #aaaa33;
  stroke-width: 1px;
}

.subgraph-title {
  fill: #333333;
  font-weight: bold;
}

.cluster rect {
  fill: #ffffde;
  stroke: #aaaa33;
  stroke-width: 1px;
  rx: 5px;
  ry: 5px;
}

.cluster-label {
  fill: #333333;
  font-family: trebuchet ms, verdana, arial, sans-serif;
  font-size: 16px;
  font-weight: bold;
}

marker path {
  fill: #333333;
  stroke: #333333;
}

  </style>
  <defs>
    <marker id="arrow_point" viewBox="0 0 10 10" refX="10" refY="5" markerWidth="8" markerHeight="8" orient="auto" markerUnits="userSpaceOnUse">
      <path d="M 0 0 L 10 5 L 0 10 z"/>
    </marker>
    <marker id="arrow_point_start" viewBox="0 0 10 10" refX="4.5" refY="5" markerWidth="8" markerHeight="8" orient="auto" markerUnits="userSpaceOnUse">
      <path d="M 0 5 L 10 10 L 10 0 z"/>
    </marker>
    <marker id="arrow_cross" viewBox="0 0 11 11" refX="12" refY="5.2" markerWidth="11" markerHeight="11" orient="auto" markerUnits="userSpaceOnUse">
      <path d="M 1 1 L 10 10 M 10 1 L 1 10" fill="none" stroke-width="2"/>
    </marker>
    <marker id="arrow_cross_start" viewBox="0 0 11 11" refX="-1" refY="5.2" markerWidth="11" markerHeight="11" orient="auto" markerUnits="userSpaceOnUse">
      <path d="M 1 1 L 10 10 M 10 1 L 1 10" stroke-width="2" fill="none"/>
    </marker>
    <marker id="arrow_circle" viewBox="0 0 10 10" refX="11" refY="5" markerWidth="11" markerHeight="11" orient="auto" markerUnits="userSpaceOnUse">
      <circle cx="5" cy="5" r="5"/>
    </marker>
    <marker id="arrow_circle_start" viewBox="0 0 10 10" refX="-1" refY="5" markerWidth="11" markerHeight="11" orient="auto" markerUnits="userSpaceOnUse">
      <circle cx="5" cy="5" r="5"/>
    </marker>
  </defs>
  <g class="root">
    <g class="clusters">
      <g class="subgraph" id="subgraph-Before Refactoring (daemon/mod.rs)">
        <rect x="1009.4000000000001" y="859.0145214135671" width="497.1999999999998" height="616.1999999999998" class="cluster"/>
        <text x="1258" y="875.0145214135671" class="cluster-label" text-anchor="middle">Before Refactoring (daemon/mod.rs)</text>
      </g>
      <g class="subgraph" id="subgraph-After Refactoring (chat.rs, health.rs)">
        <rect x="1932.4" y="1184.614521413567" width="661.5999999999999" height="571.1999999999998" class="cluster"/>
        <text x="2263.2" y="1200.614521413567" class="cluster-label" text-anchor="middle">After Refactoring (chat.rs, health.rs)</text>
      </g>
      <g class="subgraph" id="subgraph-Coworker Lifecycle States">
        <rect x="125.70000000000005" y="361.99999999999994" width="708" height="369.2" class="cluster"/>
        <text x="479.70000000000005" y="377.99999999999994" class="cluster-label" text-anchor="middle">Coworker Lifecycle States</text>
      </g>
      <g class="subgraph" id="subgraph-PR #722 Fix">
        <rect x="2124.4" y="1835.8145214135668" width="340" height="501.2000000000005" class="cluster"/>
        <text x="2294.4" y="1851.8145214135668" class="cluster-label" text-anchor="middle">PR #722 Fix</text>
      </g>
    </g>
    <g class="edgePaths">
      <g class="edge" id="edge-L-M1-M2-0">
        <path d="M 1336.60 956.81 C 1336.60 965.15, 1336.60 973.48, 1336.60 983.48 C 1336.60 993.48, 1336.60 1005.15, 1336.60 1016.81 C 1336.60 1028.48, 1336.60 1040.15, 1336.60 1050.15 C 1336.60 1068.48, 1336.60 1076.81, 1336.60 1076.81" class="edge-path" fill="none" stroke-width="1" marker-end="url(#arrow_point)"/>
      </g>
      <g class="edge" id="edge-L-M2-M3-0">
        <path d="M 1336.60 1129.61 C 1336.60 1137.95, 1336.60 1146.28, 1336.60 1154.61 C 1336.60 1162.95, 1336.60 1171.28, 1336.60 1179.61 C 1336.60 1187.95, 1336.60 1196.28, 1336.60 1204.61 C 1336.60 1221.28, 1336.60 1229.61, 1336.60 1229.61" class="edge-path" marker-end="url(#arrow_point)" fill="none" stroke-width="1"/>
      </g>
      <g class="edge" id="edge-L-M3-M4-0">
        <path d="M 1255.86 1282.41 C 1230.37 1290.75, 1204.89 1299.08, 1192.14 1319.08 C 1179.40 1339.08, 1179.40 1370.75, 1179.40 1402.41" class="edge-path" marker-end="url(#arrow_point)" fill="none" stroke-width="2" stroke-dasharray="3,3"/>
      </g>
      <g class="edge" id="edge-L-R1-R2-0">
        <path d="M 2102.40 1282.41 C 2102.40 1290.75, 2102.40 1299.08, 2102.40 1309.08 C 2102.40 1319.08, 2102.40 1330.75, 2102.40 1342.41 C 2102.40 1354.08, 2102.40 1365.75, 2102.40 1375.75 C 2102.40 1394.08, 2102.40 1402.41, 2102.40 1402.41" class="edge-path" fill="none" stroke-width="1" marker-end="url(#arrow_point)"/>
      </g>
      <g class="edge" id="edge-L-R3-R4-0">
        <path d="M 2424.00 1282.41 C 2424.00 1290.75, 2424.00 1299.08, 2424.00 1309.08 C 2424.00 1319.08, 2424.00 1330.75, 2424.00 1342.41 C 2424.00 1354.08, 2424.00 1365.75, 2424.00 1375.75 C 2424.00 1394.08, 2424.00 1402.41, 2424.00 1402.41" class="edge-path" stroke-width="1" fill="none" marker-end="url(#arrow_point)"/>
      </g>
      <g class="edge" id="edge-L-R2-R5-0">
        <path d="M 2102.40 1455.21 C 2102.40 1480.21, 2102.40 1505.21, 2117.96 1521.88 C 2133.53 1538.55, 2164.66 1546.88, 2195.79 1555.21" class="edge-path" marker-end="url(#arrow_point)" fill="none" stroke-width="1"/>
      </g>
      <g class="edge" id="edge-L-R4-R5-0">
        <path d="M 2424.00 1455.21 L 2360.96 1555.21" class="edge-path" stroke-width="1" marker-end="url(#arrow_point)" fill="none"/>
      </g>
      <g class="edge" id="edge-L-R5-R6-0">
        <path d="M 2294.40 1608.01 C 2294.40 1616.35, 2294.40 1624.68, 2294.40 1633.01 C 2294.40 1641.35, 2294.40 1649.68, 2294.40 1658.01 C 2294.40 1674.68, 2294.40 1683.01, 2294.40 1683.01" class="edge-path" marker-end="url(#arrow_point)" fill="none" stroke-width="1"/>
      </g>
      <g class="edge" id="edge-L-S1-S2-0">
        <path d="M 254.50 433.40 C 267.83 433.40, 281.17 433.40, 287.83 434.73 C 294.50 436.07, 294.50 438.73, 301.17 440.07 C 321.17 441.40, 334.50 441.40, 334.50 441.40" class="edge-path" marker-end="url(#arrow_point)" stroke-dasharray="3,3" stroke-width="2" fill="none"/>
      </g>
      <g class="edge" id="edge-L-S2-S3-0">
        <path d="M 433.70 441.40 C 385.70 441.40, 337.70 441.40, 313.70 465.52 C 289.70 489.63, 289.70 537.87, 265.70 561.98 C 193.70 586.10, 145.70 586.10, 145.70 586.10" class="edge-path" stroke-dasharray="3,3" marker-end="url(#arrow_point)" fill="none" stroke-width="2"/>
      </g>
      <g class="edge" id="edge-L-S3-S4-0">
        <path d="M 254.50 586.10 C 267.83 586.10, 281.17 586.10, 287.83 602.55 C 294.50 619.00, 294.50 651.90, 301.17 668.35 C 321.17 684.80, 334.50 684.80, 334.50 684.80" class="edge-path" stroke-dasharray="3,3" marker-end="url(#arrow_point)" stroke-width="2" fill="none"/>
      </g>
      <g class="edge" id="edge-L-S1-L1-0">
        <path d="M 254.50 433.40 C 303.23 433.40, 351.97 433.40, 376.33 461.52 C 400.70 489.63, 400.70 545.87, 425.07 573.98 C 498.17 602.10, 546.90 602.10, 546.90 602.10" class="edge-path" stroke-width="2" stroke-dasharray="3,3" marker-end="url(#arrow_point)" fill="none"/>
      </g>
      <g class="edge" id="edge-L-S2-L1-0">
        <path d="M 433.70 441.40 C 452.57 441.40, 471.43 441.40, 480.87 468.18 C 490.30 494.97, 490.30 548.53, 499.73 575.32 C 528.03 602.10, 546.90 602.10, 546.90 602.10" class="edge-path" stroke-dasharray="3,3" marker-end="url(#arrow_point)" stroke-width="2" fill="none"/>
      </g>
      <g class="edge" id="edge-L-S3-L1-0">
        <path d="M 254.50 586.10 L 546.90 602.10" class="edge-path" stroke-width="2" fill="none" stroke-dasharray="3,3" marker-end="url(#arrow_point)"/>
      </g>
      <g class="edge" id="edge-L-S4-L1-0">
        <path d="M 433.70 684.80 C 452.57 684.80, 471.43 684.80, 480.87 671.02 C 490.30 657.23, 490.30 629.67, 499.73 615.88 C 528.03 602.10, 546.90 602.10, 546.90 602.10" class="edge-path" stroke-dasharray="3,3" marker-end="url(#arrow_point)" fill="none" stroke-width="2"/>
      </g>
      <g class="edge" id="edge-L-S2-L2-0">
        <path d="M 433.70 441.40 C 447.03 441.40, 460.37 441.40, 467.03 447.95 C 473.70 454.50, 473.70 467.60, 480.37 474.15 C 500.37 480.70, 513.70 480.70, 513.70 480.70" class="edge-path" stroke-width="2" fill="none" stroke-dasharray="3,3" marker-end="url(#arrow_point)"/>
      </g>
      <g class="edge" id="edge-L-F1-F2-0">
        <path d="M 2294.40 1933.61 C 2294.40 1941.95, 2294.40 1950.28, 2294.40 1958.61 C 2294.40 1966.95, 2294.40 1975.28, 2294.40 1983.61 C 2294.40 2000.28, 2294.40 2008.61, 2294.40 2008.61" class="edge-path" fill="none" stroke-width="1" marker-end="url(#arrow_point)"/>
      </g>
      <g class="edge" id="edge-L-F2-F3-0">
        <path d="M 2294.40 2061.41 C 2294.40 2069.75, 2294.40 2078.08, 2294.40 2086.41 C 2294.40 2094.75, 2294.40 2103.08, 2294.40 2111.41 C 2294.40 2128.08, 2294.40 2136.41, 2294.40 2136.41" class="edge-path" stroke-width="1" marker-end="url(#arrow_point)" fill="none"/>
      </g>
      <g class="edge" id="edge-L-F3-F4-0">
        <path d="M 2294.40 2189.21 C 2294.40 2197.55, 2294.40 2205.88, 2294.40 2214.21 C 2294.40 2222.55, 2294.40 2230.88, 2294.40 2239.21 C 2294.40 2255.88, 2294.40 2264.21, 2294.40 2264.21" class="edge-path" marker-end="url(#arrow_point)" stroke-width="1" fill="none"/>
      </g>
      <g class="edge" id="edge-L-M3-R2-0">
        <path d="M 1320.58 1282.41 C 1315.52 1314.08, 1310.46 1345.75, 1415.76 1368.54 C 1521.07 1391.32, 1736.73 1405.23, 1952.40 1419.14" class="edge-path" stroke-width="2" fill="none" marker-end="url(#arrow_point)" stroke-dasharray="3,3"/>
      </g>
      <g class="edge" id="edge-L-M3-R4-0">
        <path d="M 1467.47 1282.41 C 1508.78 1290.75, 1550.09 1299.08, 1570.75 1314.91 C 1591.40 1330.75, 1591.40 1354.08, 1710.70 1373.11 C 2068.60 1406.87, 2307.20 1421.60, 2307.20 1421.60" class="edge-path" marker-end="url(#arrow_point)" stroke-dasharray="3,3" fill="none" stroke-width="2"/>
      </g>
      <g class="edge" id="edge-L-R6-F1-0">
        <path d="M 2294.40 1735.81 C 2294.40 1744.15, 2294.40 1752.48, 2294.40 1760.81 C 2294.40 1769.15, 2294.40 1777.48, 2294.40 1787.48 C 2294.40 1797.48, 2294.40 1809.15, 2294.40 1820.81 C 2294.40 1832.48, 2294.40 1844.15, 2294.40 1854.15 C 2294.40 1872.48, 2294.40 1880.81, 2294.40 1880.81" class="edge-path" stroke-width="2" fill="none" marker-end="url(#arrow_point)" stroke-dasharray="3,3"/>
      </g>
    </g>
    <g class="edgeLabels">
      <g class="edgeLabel" id="edge-label-L-M3-M4-0">
        <rect x="1139.4" y="1303.6932562157497" width="80" height="22" class="edge-label-bg"/>
        <text x="1179.4" y="1314.6932562157497" class="edge-label" dominant-baseline="central" text-anchor="middle">assumption</text>
      </g>
      <g class="edgeLabel" id="edge-label-L-S1-S2-0">
        <rect x="243.70000000000005" y="426.39999999999986" width="101.6" height="22" class="edge-label-bg"/>
        <text x="294.50000000000006" y="437.39999999999986" class="edge-label" text-anchor="middle" dominant-baseline="central">no window yet</text>
      </g>
      <g class="edgeLabel" id="edge-label-L-S2-S3-0">
        <rect x="249.70000000000005" y="502.7499999999998" width="80" height="22" class="edge-label-bg"/>
        <text x="289.70000000000005" y="513.7499999999998" class="edge-label" dominant-baseline="central" text-anchor="middle">has window</text>
      </g>
      <g class="edgeLabel" id="edge-label-L-S3-S4-0">
        <rect x="211.30000000000007" y="624.4499999999998" width="166.4" height="22" class="edge-label-bg"/>
        <text x="294.50000000000006" y="635.4499999999998" class="edge-label" text-anchor="middle" dominant-baseline="central">window being torn down</text>
      </g>
      <g class="edgeLabel" id="edge-label-L-S1-L1-0">
        <rect x="357.1" y="506.7499999999999" width="87.2" height="22" class="edge-label-bg"/>
        <text x="400.70000000000005" y="517.7499999999999" class="edge-label" text-anchor="middle" dominant-baseline="central">included in</text>
      </g>
      <g class="edgeLabel" id="edge-label-L-S2-L1-0">
        <rect x="446.70000000000005" y="510.7499999999998" width="87.2" height="22" class="edge-label-bg"/>
        <text x="490.30000000000007" y="521.7499999999998" class="edge-label" dominant-baseline="central" text-anchor="middle">included in</text>
      </g>
      <g class="edgeLabel" id="edge-label-L-S3-L1-0">
        <rect x="357.1" y="583.0999999999998" width="87.2" height="22" class="edge-label-bg"/>
        <text x="400.70000000000005" y="594.0999999999998" class="edge-label" text-anchor="middle" dominant-baseline="central">included in</text>
      </g>
      <g class="edgeLabel" id="edge-label-L-S4-L1-0">
        <rect x="446.70000000000005" y="632.4499999999998" width="87.2" height="22" class="edge-label-bg"/>
        <text x="490.30000000000007" y="643.4499999999998" class="edge-label" text-anchor="middle" dominant-baseline="central">included in</text>
      </g>
      <g class="edgeLabel" id="edge-label-L-S2-L2-0">
        <rect x="430.1" y="450.0499999999998" width="87.2" height="22" class="edge-label-bg"/>
        <text x="473.70000000000005" y="461.0499999999998" class="edge-label" text-anchor="middle" dominant-baseline="central">included in</text>
      </g>
      <g class="edgeLabel" id="edge-label-L-M3-R2-0">
        <rect x="1467.3802584957748" y="1384.084013617686" width="224" height="22" class="edge-label-bg"/>
        <text x="1579.3802584957748" y="1395.084013617686" class="edge-label" text-anchor="middle" dominant-baseline="central">refactoring exposed assumption</text>
      </g>
      <g class="edgeLabel" id="edge-label-L-M3-R4-0">
        <rect x="1739.2734169798891" y="1382.4576317099475" width="224" height="22" class="edge-label-bg"/>
        <text x="1851.2734169798891" y="1393.4576317099475" class="edge-label" dominant-baseline="central" text-anchor="middle">refactoring exposed assumption</text>
      </g>
      <g class="edgeLabel" id="edge-label-L-R6-F1-0">
        <rect x="2254.4" y="1797.314521413567" width="80" height="22" class="edge-label-bg"/>
        <text x="2294.4" y="1808.314521413567" class="edge-label" dominant-baseline="central" text-anchor="middle">PR #722 fi</text>
      </g>
    </g>
    <g class="nodes">
      <g class="node" id="node-F1">
        <rect x="2163.2000000000003" y="1880.8145214135668" width="262.4" height="52.8"/>
        <text x="2294.4" y="1907.214521413567" class="label" text-anchor="middle" dominant-baseline="central">Replace active_coworkers</text>
      </g>
      <g class="node" id="node-F2">
        <rect x="2172.8" y="2008.6145214135668" width="243.2" height="52.8"/>
        <text x="2294.4" y="2035.0145214135669" class="label" text-anchor="middle" dominant-baseline="central">With running_coworkers</text>
      </g>
      <g class="node" id="node-F3">
        <rect x="2144.4" y="2136.414521413567" width="300" height="52.8"/>
        <text x="2294.4" y="2162.814521413567" class="label" text-anchor="middle" dominant-baseline="central">Filter by CoworkerStatus::Running</text>
      </g>
      <g class="node" id="node-F4">
        <rect x="2144.4" y="2264.214521413567" width="300" height="52.8" style="fill:#dfd !important"/>
        <text x="2294.4" y="2290.614521413567" class="label" text-anchor="middle" dominant-baseline="central" style="fill: #000000">✓ Only nudge coworkers with tmux windows</text>
      </g>
      <g class="node" id="node-L1">
        <rect x="546.9000000000001" y="575.6999999999998" width="233.6" height="52.8" style="fill:#fee !important"/>
        <text x="663.7" y="602.0999999999998" class="label" text-anchor="middle" dominant-baseline="central" style="fill: #000000">list() → all statuses</text>
      </g>
      <g class="node" id="node-L2">
        <rect x="513.7" y="454.2999999999998" width="300" height="52.8" style="fill:#efe !important"/>
        <text x="663.7" y="480.69999999999976" class="label" text-anchor="middle" style="fill: #000000" dominant-baseline="central">list_running() → Running only</text>
      </g>
      <g class="node" id="node-M1">
        <rect x="1205.3999999999999" y="904.0145214135671" width="262.4" height="52.8"/>
        <text x="1336.6" y="930.4145214135671" class="label" text-anchor="middle" dominant-baseline="central">Monolithic daemon module</text>
      </g>
      <g class="node" id="node-M2">
        <rect x="1215" y="1076.814521413567" width="243.2" height="52.8"/>
        <text x="1336.6" y="1103.2145214135671" class="label" text-anchor="middle" dominant-baseline="central">All nudge logic inline</text>
      </g>
      <g class="node" id="node-M3">
        <rect x="1186.6" y="1229.614521413567" width="300" height="52.8"/>
        <text x="1336.6" y="1256.014521413567" class="label" text-anchor="middle" dominant-baseline="central">Implicit use of active_coworkers</text>
      </g>
      <g class="node" id="node-M4">
        <rect x="1029.4" y="1402.414521413567" width="300" height="52.8"/>
        <text x="1179.4" y="1428.814521413567" class="label" dominant-baseline="central" text-anchor="middle">All active = have tmux windows</text>
      </g>
      <g class="node" id="node-R1">
        <rect x="1980.8000000000002" y="1229.614521413567" width="243.2" height="52.8"/>
        <text x="2102.4" y="1256.014521413567" class="label" dominant-baseline="central" text-anchor="middle">Extracted route_at_all</text>
      </g>
      <g class="node" id="node-R2">
        <rect x="1952.4" y="1402.414521413567" width="300" height="52.8"/>
        <text x="2102.4" y="1428.814521413567" class="label" text-anchor="middle" dominant-baseline="central">Uses .list() → active_coworkers</text>
      </g>
      <g class="node" id="node-R3">
        <rect x="2274" y="1229.614521413567" width="300" height="52.8"/>
        <text x="2424" y="1256.014521413567" class="label" text-anchor="middle" dominant-baseline="central">Extracted maybe_nudge_usage_limit_expiry</text>
      </g>
      <g class="node" id="node-R4">
        <rect x="2307.2" y="1402.414521413567" width="233.6" height="52.8"/>
        <text x="2424" y="1428.814521413567" class="label" text-anchor="middle" dominant-baseline="central">Uses active_coworkers</text>
      </g>
      <g class="node" id="node-R5">
        <rect x="2168" y="1555.214521413567" width="252.79999999999998" height="52.8"/>
        <text x="2294.4" y="1581.614521413567" class="label" text-anchor="middle" dominant-baseline="central">Attempts tmux send-keys</text>
      </g>
      <g class="node" id="node-R6">
        <rect x="2144.4" y="1683.0145214135669" width="300" height="52.8" style="fill:#fdd !important"/>
        <text x="2294.4" y="1709.414521413567" class="label" text-anchor="middle" style="fill: #000000" dominant-baseline="central">❌ Error: Starting/Stopping have no tmux window</text>
      </g>
      <g class="node" id="node-S1">
        <rect x="145.70000000000005" y="406.99999999999994" width="108.8" height="52.8"/>
        <text x="200.10000000000005" y="433.3999999999999" class="label" dominant-baseline="central" text-anchor="middle">Starting</text>
      </g>
      <g class="node" id="node-S2">
        <rect x="334.50000000000006" y="414.99999999999983" width="99.2" height="52.8"/>
        <text x="384.1000000000001" y="441.3999999999998" class="label" dominant-baseline="central" text-anchor="middle">Running</text>
      </g>
      <g class="node" id="node-S3">
        <rect x="145.70000000000005" y="559.6999999999998" width="108.8" height="52.8"/>
        <text x="200.10000000000005" y="586.0999999999998" class="label" text-anchor="middle" dominant-baseline="central">Stopping</text>
      </g>
      <g class="node" id="node-S4">
        <rect x="334.50000000000006" y="658.4" width="99.2" height="52.8"/>
        <text x="384.1000000000001" y="684.8" class="label" text-anchor="middle" dominant-baseline="central">Stopped</text>
      </g>
    </g>
  </g>
</svg>
