<?xml version="1.0" encoding="UTF-8"?>
<svg xmlns="http://www.w3.org/2000/svg" width="2378.6" height="713.2999999999998" viewBox="-321.0000000000001 -8 2378.6 713.2999999999998" class="mermaid">
  <style>

.mermaid {
  font-family: trebuchet ms, verdana, arial, sans-serif;
  font-size: 16px;
}

.node rect,
.node polygon,
.node circle,
.node ellipse,
.node path {
  fill: #ECECFF;
  stroke: #9370DB;
  stroke-width: 1px;
}

.node line {
  stroke: #9370DB;
  stroke-width: 1px;
}

.node .label {
  fill: #333333;
}

.node text {
  fill: #333333;
  font-family: trebuchet ms, verdana, arial, sans-serif;
  font-size: 16px;
}

.edge-path {
  fill: none;
  stroke: #333333;
  stroke-width: 1px;
}

.edge-label {
  fill: #333333;
  font-family: trebuchet ms, verdana, arial, sans-serif;
}

.edge-label-bg {
  fill: rgba(232, 232, 232, 0.8);
}

.subgraph {
  fill: #ffffde;
  stroke: #aaaa33;
  stroke-width: 1px;
}

.subgraph-title {
  fill: #333333;
  font-weight: bold;
}

.cluster rect {
  fill: #ffffde;
  stroke: #aaaa33;
  stroke-width: 1px;
  rx: 5px;
  ry: 5px;
}

.cluster-label {
  fill: #333333;
  font-family: trebuchet ms, verdana, arial, sans-serif;
  font-size: 16px;
  font-weight: bold;
}

marker path {
  fill: #333333;
  stroke: #333333;
}

  </style>
  <defs>
    <marker id="arrow_point" viewBox="0 0 10 10" refX="10" refY="5" markerWidth="8" markerHeight="8" orient="auto" markerUnits="userSpaceOnUse">
      <path d="M 0 0 L 10 5 L 0 10 z"/>
    </marker>
    <marker id="arrow_point_start" viewBox="0 0 10 10" refX="4.5" refY="5" markerWidth="8" markerHeight="8" orient="auto" markerUnits="userSpaceOnUse">
      <path d="M 0 5 L 10 10 L 10 0 z"/>
    </marker>
    <marker id="arrow_cross" viewBox="0 0 11 11" refX="12" refY="5.2" markerWidth="11" markerHeight="11" orient="auto" markerUnits="userSpaceOnUse">
      <path d="M 1 1 L 10 10 M 10 1 L 1 10" stroke-width="2" fill="none"/>
    </marker>
    <marker id="arrow_cross_start" viewBox="0 0 11 11" refX="-1" refY="5.2" markerWidth="11" markerHeight="11" orient="auto" markerUnits="userSpaceOnUse">
      <path d="M 1 1 L 10 10 M 10 1 L 1 10" stroke-width="2" fill="none"/>
    </marker>
    <marker id="arrow_circle" viewBox="0 0 10 10" refX="11" refY="5" markerWidth="11" markerHeight="11" orient="auto" markerUnits="userSpaceOnUse">
      <circle cx="5" cy="5" r="5"/>
    </marker>
    <marker id="arrow_circle_start" viewBox="0 0 10 10" refX="-1" refY="5" markerWidth="11" markerHeight="11" orient="auto" markerUnits="userSpaceOnUse">
      <circle cx="5" cy="5" r="5"/>
    </marker>
  </defs>
  <g class="root">
    <g class="clusters">
      <g class="subgraph" id="subgraph-OLD: Inline Graphics (Problematic)">
        <rect x="-59.39999999999998" y="439.8999999999999" width="1796" height="257.3999999999999" class="cluster"/>
        <text x="838.6" y="455.8999999999999" class="cluster-label" text-anchor="middle">OLD: Inline Graphics (Problematic)</text>
      </g>
      <g class="subgraph" id="subgraph-NEW: Text Placeholders + Fullscreen View">
        <rect x="-313.0000000000001" y="165.69999999999996" width="1342" height="403.20000000000005" class="cluster"/>
        <text x="357.9999999999999" y="181.69999999999996" class="cluster-label" text-anchor="middle">NEW: Text Placeholders + Fullscreen View</text>
      </g>
    </g>
    <g class="edgePaths">
      <g class="edge" id="edge-L-A1-B1-0">
        <path d="M 136.60000000000002 538.8999999999999 L 186.6 538.8999999999999" class="edge-path" marker-end="url(#arrow_point)" stroke-width="1" fill="none"/>
      </g>
      <g class="edge" id="edge-L-B1-C1-0">
        <path d="M 343.4 538.8999999999999 L 393.4000000000001 538.8999999999999" class="edge-path" marker-end="url(#arrow_point)" fill="none" stroke-width="1"/>
      </g>
      <g class="edge" id="edge-L-C1-D1-0">
        <path d="M 550.20 538.90 C 563.53 538.90, 576.87 538.90, 583.53 547.47 C 590.20 556.03, 590.20 573.17, 596.87 581.73 C 616.87 590.30, 630.20 590.30, 630.20 590.30" class="edge-path" fill="none" stroke-width="1" marker-end="url(#arrow_point)"/>
      </g>
      <g class="edge" id="edge-L-D1-E1-0">
        <path d="M 930.2 590.2999999999998 L 980.2 590.2999999999998" class="edge-path" fill="none" stroke-width="1" marker-end="url(#arrow_point)"/>
      </g>
      <g class="edge" id="edge-L-E1-F1-0">
        <path d="M 1233 590.2999999999998 L 1283 590.3" class="edge-path" marker-end="url(#arrow_point)" fill="none" stroke-width="1"/>
      </g>
      <g class="edge" id="edge-L-F1-G1-0">
        <path d="M 1451.00 590.30 C 1464.33 590.30, 1477.67 590.30, 1484.33 580.20 C 1491.00 570.10, 1491.00 549.90, 1497.67 539.80 C 1517.67 529.70, 1531.00 529.70, 1531.00 529.70" class="edge-path" marker-end="url(#arrow_point)" fill="none" stroke-width="1"/>
      </g>
      <g class="edge" id="edge-L-F1-H1-0">
        <path d="M 1451.00 590.30 C 1469.13 590.30, 1487.27 590.30, 1496.33 600.40 C 1505.40 610.50, 1505.40 630.70, 1514.47 640.80 C 1541.67 650.90, 1559.80 650.90, 1559.80 650.90" class="edge-path" marker-end="url(#arrow_point)" fill="none" stroke-width="1"/>
      </g>
      <g class="edge" id="edge-L-I1-D1-0">
        <path d="M 545.40 641.70 C 559.53 641.70, 573.67 641.70, 580.73 633.13 C 587.80 624.57, 587.80 607.43, 594.87 598.87 C 616.07 590.30, 630.20 590.30, 630.20 590.30" class="edge-path" marker-end="url(#arrow_point)" stroke-width="2" fill="none" stroke-dasharray="3,3"/>
      </g>
      <g class="edge" id="edge-L-A2-B2-0">
        <path d="M -102.60000000000014 325.29999999999995 L -19.000000000000114 325.29999999999995" class="edge-path" marker-end="url(#arrow_point)" stroke-width="1" fill="none"/>
      </g>
      <g class="edge" id="edge-L-B2-C2-0">
        <path d="M 147.3999999999999 325.29999999999995 L 258.9999999999999 325.29999999999995" class="edge-path" fill="none" stroke-width="1" marker-end="url(#arrow_point)"/>
      </g>
      <g class="edge" id="edge-L-C2-D2-0">
        <path d="M 427.00 325.30 C 449.80 325.30, 472.60 325.30, 484.00 313.67 C 495.40 302.03, 495.40 278.77, 506.80 267.13 C 541.00 255.50, 563.80 255.50, 563.80 255.50" class="edge-path" fill="none" marker-end="url(#arrow_point)" stroke-width="1"/>
      </g>
      <g class="edge" id="edge-L-C2-E2-0">
        <path d="M 427.00 325.30 C 447.40 325.30, 467.80 325.30, 478.00 336.93 C 488.20 348.57, 488.20 371.83, 498.40 383.47 C 529.00 395.10, 549.40 395.10, 549.40 395.10" class="edge-path" stroke-width="1" marker-end="url(#arrow_point)" fill="none"/>
      </g>
      <g class="edge" id="edge-L-D2-F2-0">
        <path d="M 778.20 255.50 C 788.93 255.50, 799.67 255.50, 805.03 267.13 C 810.40 278.77, 810.40 302.03, 815.77 313.67 C 831.87 325.30, 842.60 325.30, 842.60 325.30" class="edge-path" fill="none" stroke-width="1" marker-end="url(#arrow_point)"/>
      </g>
      <g class="edge" id="edge-L-E2-F2-0">
        <path d="M 792.60 395.10 C 800.93 395.10, 809.27 395.10, 813.43 383.47 C 817.60 371.83, 817.60 348.57, 821.77 336.93 C 834.27 325.30, 842.60 325.30, 842.60 325.30" class="edge-path" stroke-width="1" fill="none" marker-end="url(#arrow_point)"/>
      </g>
      <g class="edge" id="edge-L-G2-H2-0">
        <path d="M -88.20000000000013 485.69999999999993 L -38.2000000000001 485.7" class="edge-path" fill="none" stroke-width="1" marker-end="url(#arrow_point)"/>
      </g>
      <g class="edge" id="edge-L-H2-I2-0">
        <path d="M 166.59999999999988 485.7 L 216.5999999999999 485.69999999999993" class="edge-path" marker-end="url(#arrow_point)" fill="none" stroke-width="1"/>
      </g>
    </g>
    <g class="edgeLabels">
      <g class="edgeLabel" id="edge-label-L-F1-G1-0">
        <rect x="1476.2" y="549" width="29.599999999999998" height="22" class="edge-label-bg"/>
        <text x="1491" y="560" class="edge-label" text-anchor="middle" dominant-baseline="central">Yes</text>
      </g>
      <g class="edgeLabel" id="edge-label-L-F1-H1-0">
        <rect x="1494.2" y="609.5999999999999" width="22.4" height="22" class="edge-label-bg"/>
        <text x="1505.4" y="620.5999999999999" class="edge-label" text-anchor="middle" dominant-baseline="central">No</text>
      </g>
      <g class="edgeLabel" id="edge-label-L-I1-D1-0">
        <rect x="511.80000000000007" y="604.9999999999999" width="152" height="22" class="edge-label-bg"/>
        <text x="587.8000000000001" y="615.9999999999999" class="edge-label" text-anchor="middle" dominant-baseline="central">Recalc ALL positions</text>
      </g>
      <g class="edgeLabel" id="edge-label-L-C2-D2-0">
        <rect x="476.99999999999983" y="279.4" width="36.8" height="22" class="edge-label-bg"/>
        <text x="495.3999999999998" y="290.4" class="edge-label" dominant-baseline="central" text-anchor="middle">Text</text>
      </g>
      <g class="edgeLabel" id="edge-label-L-C2-E2-0">
        <rect x="458.99999999999983" y="349.19999999999993" width="58.4" height="22" class="edge-label-bg"/>
        <text x="488.1999999999998" y="360.19999999999993" class="edge-label" text-anchor="middle" dominant-baseline="central">Mermaid</text>
      </g>
    </g>
    <g class="nodes">
      <g class="node" id="node-A1">
        <rect x="-39.39999999999998" y="512.4999999999999" width="176" height="52.8"/>
        <text x="48.60000000000002" y="538.8999999999999" class="label" dominant-baseline="central" text-anchor="middle">Message Content</text>
      </g>
      <g class="node" id="node-A2">
        <rect x="-278.60000000000014" y="298.9" width="176" height="52.8"/>
        <text x="-190.60000000000014" y="325.29999999999995" class="label" text-anchor="middle" dominant-baseline="central">Message Content</text>
      </g>
      <g class="node" id="node-B1">
        <rect x="186.6" y="512.4999999999999" width="156.8" height="52.8"/>
        <text x="265" y="538.8999999999999" class="label" dominant-baseline="central" text-anchor="middle">Parse Mermaid</text>
      </g>
      <g class="node" id="node-B2">
        <rect x="-19.000000000000114" y="298.9" width="166.4" height="52.8"/>
        <text x="64.19999999999989" y="325.29999999999995" class="label" text-anchor="middle" dominant-baseline="central">Parse Segments</text>
      </g>
      <g class="node" id="node-C1">
        <rect x="393.4000000000001" y="512.4999999999999" width="156.8" height="52.8"/>
        <text x="471.80000000000007" y="538.8999999999999" class="label" text-anchor="middle" dominant-baseline="central">Render to PNG</text>
      </g>
      <g class="node" id="node-C2">
        <polygon points="342.9999999999999,241.29999999999995 426.9999999999999,325.29999999999995 342.9999999999999,409.29999999999995 258.9999999999999,325.29999999999995"/>
        <text x="342.9999999999999" y="325.29999999999995" class="label" text-anchor="middle" dominant-baseline="central">Segment Type</text>
      </g>
      <g class="node" id="node-D1">
        <rect x="630.2" y="563.8999999999999" width="300" height="52.8"/>
        <text x="780.2" y="590.2999999999998" class="label" text-anchor="middle" dominant-baseline="central">Calculate Absolute Pixel Coords</text>
      </g>
      <g class="node" id="node-D2">
        <rect x="563.7999999999997" y="210.69999999999996" width="214.4" height="89.6" style="fill:#9f9 !important;stroke:#0f0 !important"/>
        <text x="670.9999999999998" y="255.49999999999994" class="label" text-anchor="middle" dominant-baseline="central" style="fill: #000000"><tspan x="670.9999999999998" y="255.49999999999994" dy="-0.6em">Normal Ratatui Flow</tspan><tspan x="670.9999999999998" dy="1.2em">Cell-based Layout</tspan></text>
      </g>
      <g class="node" id="node-E1">
        <rect x="980.2" y="563.8999999999999" width="252.79999999999998" height="52.8"/>
        <text x="1106.6000000000001" y="590.2999999999998" class="label" dominant-baseline="central" text-anchor="middle">Kitty Graphics Protocol</text>
      </g>
      <g class="node" id="node-E2">
        <rect x="549.3999999999997" y="350.29999999999995" width="243.2" height="89.6" style="fill:#9f9 !important;stroke:#0f0 !important"/>
        <text x="670.9999999999998" y="395.09999999999997" class="label" text-anchor="middle" dominant-baseline="central" style="fill: #000000"><tspan x="670.9999999999998" y="395.09999999999997" dy="-0.6em">Text Placeholder</tspan><tspan x="670.9999999999998" dy="1.2em">&apos;rendering diagram...&apos;</tspan></text>
      </g>
      <g class="node" id="node-F1">
        <polygon points="1367,506.2999999999999 1451,590.3 1367,674.3 1283,590.3"/>
        <text x="1367" y="590.3" class="label" text-anchor="middle" dominant-baseline="central">Inside tmux?</text>
      </g>
      <g class="node" id="node-F2">
        <rect x="842.5999999999998" y="298.9" width="166.4" height="52.8"/>
        <text x="925.7999999999998" y="325.29999999999995" class="label" text-anchor="middle" dominant-baseline="central">Ratatui Buffer</text>
      </g>
      <g class="node" id="node-G1">
        <rect x="1531" y="484.8999999999999" width="185.6" height="89.6" style="fill:#f99 !important;stroke:#f00 !important"/>
        <text x="1623.8" y="529.6999999999999" class="label" dominant-baseline="central" style="fill: #ffffff" text-anchor="middle"><tspan x="1623.8" y="529.6999999999999" dy="-0.6em">DCS Passthrough</tspan><tspan x="1623.8" dy="1.2em">Double ESC chars</tspan></text>
      </g>
      <g class="node" id="node-G2">
        <rect x="-293.0000000000001" y="459.29999999999995" width="204.79999999999998" height="52.8"/>
        <text x="-190.60000000000014" y="485.69999999999993" class="label" dominant-baseline="central" text-anchor="middle">User Opens Diagram</text>
      </g>
      <g class="node" id="node-H1">
        <rect x="1559.8000000000002" y="624.4999999999999" width="128" height="52.8"/>
        <text x="1623.8000000000002" y="650.8999999999999" class="label" text-anchor="middle" dominant-baseline="central">Direct APC</text>
      </g>
      <g class="node" id="node-H2">
        <rect x="-38.2000000000001" y="422.5" width="204.79999999999998" height="126.39999999999999" style="fill:#9f9 !important;stroke:#0f0 !important"/>
        <text x="64.19999999999989" y="485.7" class="label" text-anchor="middle" dominant-baseline="central" style="fill: #000000"><tspan x="64.19999999999989" y="485.7" dy="-1.2em">Fullscreen View</tspan><tspan x="64.19999999999989" dy="1.2em">Simple Context</tspan><tspan x="64.19999999999989" dy="1.2em">No Scroll Tracking</tspan></text>
      </g>
      <g class="node" id="node-I1">
        <rect x="398.20000000000005" y="615.3" width="147.2" height="52.8" style="fill:#f99 !important;stroke:#f00 !important"/>
        <text x="471.80000000000007" y="641.6999999999999" class="label" text-anchor="middle" dominant-baseline="central" style="fill: #ffffff">User Scrolls</text>
      </g>
      <g class="node" id="node-I2">
        <rect x="216.5999999999999" y="459.29999999999995" width="252.79999999999998" height="52.8"/>
        <text x="342.9999999999999" y="485.69999999999993" class="label" text-anchor="middle" dominant-baseline="central">Kitty Graphics Protocol</text>
      </g>
    </g>
  </g>
</svg>
