<?xml version="1.0" encoding="UTF-8"?>
<svg xmlns="http://www.w3.org/2000/svg" width="1065.1" height="1689.8999999999996" viewBox="-8 -8 1065.1 1689.8999999999996" class="mermaid">
  <style>

.mermaid {
  font-family: trebuchet ms, verdana, arial, sans-serif;
  font-size: 16px;
}

.node rect,
.node polygon,
.node circle,
.node ellipse,
.node path {
  fill: #ECECFF;
  stroke: #9370DB;
  stroke-width: 1px;
}

.node line {
  stroke: #9370DB;
  stroke-width: 1px;
}

.node .label {
  fill: #333333;
}

.node text {
  fill: #333333;
  font-family: trebuchet ms, verdana, arial, sans-serif;
  font-size: 16px;
}

.edge-path {
  fill: none;
  stroke: #333333;
  stroke-width: 1px;
}

.edge-label {
  fill: #333333;
  font-family: trebuchet ms, verdana, arial, sans-serif;
}

.edge-label-bg {
  fill: rgba(232, 232, 232, 0.8);
}

.subgraph {
  fill: #ffffde;
  stroke: #aaaa33;
  stroke-width: 1px;
}

.subgraph-title {
  fill: #333333;
  font-weight: bold;
}

.cluster rect {
  fill: #ffffde;
  stroke: #aaaa33;
  stroke-width: 1px;
  rx: 5px;
  ry: 5px;
}

.cluster-label {
  fill: #333333;
  font-family: trebuchet ms, verdana, arial, sans-serif;
  font-size: 16px;
  font-weight: bold;
}

marker path {
  fill: #333333;
  stroke: #333333;
}

  </style>
  <defs>
    <marker id="arrow_point" viewBox="0 0 10 10" refX="10" refY="5" markerWidth="8" markerHeight="8" orient="auto" markerUnits="userSpaceOnUse">
      <path d="M 0 0 L 10 5 L 0 10 z"/>
    </marker>
    <marker id="arrow_point_start" viewBox="0 0 10 10" refX="4.5" refY="5" markerWidth="8" markerHeight="8" orient="auto" markerUnits="userSpaceOnUse">
      <path d="M 0 5 L 10 10 L 10 0 z"/>
    </marker>
    <marker id="arrow_cross" viewBox="0 0 11 11" refX="12" refY="5.2" markerWidth="11" markerHeight="11" orient="auto" markerUnits="userSpaceOnUse">
      <path d="M 1 1 L 10 10 M 10 1 L 1 10" fill="none" stroke-width="2"/>
    </marker>
    <marker id="arrow_cross_start" viewBox="0 0 11 11" refX="-1" refY="5.2" markerWidth="11" markerHeight="11" orient="auto" markerUnits="userSpaceOnUse">
      <path d="M 1 1 L 10 10 M 10 1 L 1 10" stroke-width="2" fill="none"/>
    </marker>
    <marker id="arrow_circle" viewBox="0 0 10 10" refX="11" refY="5" markerWidth="11" markerHeight="11" orient="auto" markerUnits="userSpaceOnUse">
      <circle cx="5" cy="5" r="5"/>
    </marker>
    <marker id="arrow_circle_start" viewBox="0 0 10 10" refX="-1" refY="5" markerWidth="11" markerHeight="11" orient="auto" markerUnits="userSpaceOnUse">
      <circle cx="5" cy="5" r="5"/>
    </marker>
  </defs>
  <g class="root">
    <g class="clusters">
      <g class="subgraph" id="subgraph-app.rs">
        <rect x="239.5" y="907.0999999999998" width="640" height="627.1999999999997" class="cluster"/>
        <text x="559.5" y="923.0999999999998" class="cluster-label" text-anchor="middle">app.rs</text>
      </g>
      <g class="subgraph" id="subgraph-mod.rs">
        <rect x="225.10000000000002" y="1174.1" width="312" height="499.7999999999997" class="cluster"/>
        <text x="381.1" y="1190.1" class="cluster-label" text-anchor="middle">mod.rs</text>
      </g>
      <g class="subgraph" id="subgraph-src/bin/midtown/cli/chat/">
        <rect x="225.10000000000002" y="713.4999999999998" width="823.9999999999999" height="960.3999999999999" class="cluster"/>
        <text x="637.0999999999999" y="729.4999999999998" class="cluster-label" text-anchor="middle">src/bin/midtown/cli/chat/</text>
      </g>
    </g>
    <g class="edgePaths">
      <g class="edge" id="edge-L-app_tests-test_helper-0">
        <path d="M 493.10 996.90 C 510.43 996.90, 527.77 996.90, 536.43 1038.33 C 545.10 1079.77, 545.10 1162.63, 553.77 1204.07 C 579.77 1245.50, 597.10 1245.50, 597.10 1245.50" class="edge-path" stroke-width="1" fill="none" marker-end="url(#arrow_point)"/>
      </g>
      <g class="edge" id="edge-L-mod_use-test_helper-0">
        <path d="M 517.1 1245.5 L 597.1 1245.5" class="edge-path" fill="none" stroke-width="1" marker-end="url(#arrow_point)"/>
      </g>
      <g class="edge" id="edge-L-test_fn-test_helper-0">
        <path d="M 512.30 1366.70 C 526.43 1366.70, 540.57 1366.70, 547.63 1346.50 C 554.70 1326.30, 554.70 1285.90, 561.77 1265.70 C 582.97 1245.50, 597.10 1245.50, 597.10 1245.50" class="edge-path" marker-end="url(#arrow_point)" fill="none" stroke-width="1"/>
      </g>
      <g class="edge" id="edge-L-app_tests-mod-0">
        <path d="M 493.10 996.90 C 517.63 996.90, 542.17 996.90, 554.43 973.90 C 566.70 950.90, 566.70 904.90, 578.97 881.90 C 615.77 858.90, 640.30 858.90, 640.30 858.90" class="edge-path" fill="none" marker-end="url(#arrow_point)" stroke-width="2" stroke-dasharray="3,3"/>
      </g>
      <g class="edge" id="edge-L-mod-app-0">
        <path d="M 816.30 858.90 C 836.83 858.90, 857.37 858.90, 867.63 846.57 C 877.90 834.23, 877.90 809.57, 888.17 797.23 C 918.97 784.90, 939.50 784.90, 939.50 784.90" class="edge-path" fill="none" marker-end="url(#arrow_point)" stroke-dasharray="3,3" stroke-width="2"/>
      </g>
      <g class="edge" id="edge-L-mod-ui-0">
        <path d="M 816.30 858.90 C 837.63 858.90, 858.97 858.90, 869.63 871.23 C 880.30 883.57, 880.30 908.23, 890.97 920.57 C 922.97 932.90, 944.30 932.90, 944.30 932.90" class="edge-path" stroke-width="2" marker-end="url(#arrow_point)" fill="none" stroke-dasharray="3,3"/>
      </g>
    </g>
    <g class="edgeLabels">
      <g class="edgeLabel" id="edge-label-L-app_tests-test_helper-0">
        <rect x="512.3000000000001" y="1110.1999999999998" width="65.6" height="22" class="edge-label-bg"/>
        <text x="545.1" y="1121.1999999999998" class="edge-label" text-anchor="middle" dominant-baseline="central">contains</text>
      </g>
      <g class="edgeLabel" id="edge-label-L-mod_use-test_helper-0">
        <rect x="527.9" y="1234.5" width="58.4" height="22" class="edge-label-bg"/>
        <text x="557.1" y="1245.5" class="edge-label" dominant-baseline="central" text-anchor="middle">imports</text>
      </g>
      <g class="edgeLabel" id="edge-label-L-test_fn-test_helper-0">
        <rect x="532.7" y="1295.1" width="44" height="22" class="edge-label-bg"/>
        <text x="554.7" y="1306.1" class="edge-label" dominant-baseline="central" text-anchor="middle">calls</text>
      </g>
      <g class="edgeLabel" id="edge-label-L-app_tests-mod-0">
        <rect x="454.70000000000005" y="916.8999999999999" width="224" height="22" class="edge-label-bg"/>
        <text x="566.7" y="927.8999999999999" class="edge-label" text-anchor="middle" dominant-baseline="central">pub(super) = visible to parent</text>
      </g>
      <g class="edgeLabel" id="edge-label-L-mod-app-0">
        <rect x="823.5" y="810.8999999999997" width="108.8" height="22" class="edge-label-bg"/>
        <text x="877.9" y="821.8999999999997" class="edge-label" text-anchor="middle" dominant-baseline="central">parent of both</text>
      </g>
      <g class="edgeLabel" id="edge-label-L-mod-ui-0">
        <rect x="825.9" y="884.8999999999997" width="108.8" height="22" class="edge-label-bg"/>
        <text x="880.3" y="895.8999999999997" class="edge-label" text-anchor="middle" dominant-baseline="central">parent of both</text>
      </g>
    </g>
    <g class="nodes">
      <g class="node" id="node-app">
        <rect x="939.5" y="758.4999999999998" width="89.6" height="52.8"/>
        <text x="984.3" y="784.8999999999997" class="label" dominant-baseline="central" text-anchor="middle">app.rs</text>
      </g>
      <g class="node" id="node-app_code">
        <rect x="259.5" y="1461.4999999999995" width="243.2" height="52.8"/>
        <text x="381.1" y="1487.8999999999996" class="label" text-anchor="middle" dominant-baseline="central">pub struct App { ... }</text>
      </g>
      <g class="node" id="node-app_tests">
        <rect x="269.1" y="952.0999999999998" width="224" height="89.6" style="stroke:#666 !important;stroke-width:2px !important;stroke-dasharray: 5 5 !important;fill:#fff4e1 !important"/>
        <text x="381.1" y="996.8999999999997" class="label" dominant-baseline="central" text-anchor="middle" style="fill: #000000"><tspan x="381.1" y="996.8999999999997" dy="-0.6em">#[cfg(test)]</tspan><tspan x="381.1" dy="1.2em">pub(super) mod tests</tspan></text>
      </g>
      <g class="node" id="node-mod">
        <rect x="640.3" y="814.0999999999998" width="176" height="89.6"/>
        <text x="728.3" y="858.8999999999997" class="label" dominant-baseline="central" text-anchor="middle"><tspan x="728.3" y="858.8999999999997" dy="-0.6em">mod.rs</tspan><tspan x="728.3" dy="1.2em">(parent module)</tspan></text>
      </g>
      <g class="node" id="node-mod_tests">
        <rect x="307.5" y="1564.2999999999997" width="147.2" height="89.6"/>
        <text x="381.1" y="1609.0999999999997" class="label" text-anchor="middle" dominant-baseline="central"><tspan x="381.1" y="1609.0999999999997" dy="-0.6em">#[cfg(test)]</tspan><tspan x="381.1" dy="1.2em">mod tests</tspan></text>
      </g>
      <g class="node" id="node-mod_use">
        <rect x="245.10000000000002" y="1219.1" width="272" height="52.8" style="fill:#e1f5e1 !important"/>
        <text x="381.1" y="1245.5" class="label" style="fill: #000000" text-anchor="middle" dominant-baseline="central">use app::tests::test_app;</text>
      </g>
      <g class="node" id="node-test_fn">
        <rect x="249.90000000000003" y="1321.8999999999996" width="262.4" height="89.6"/>
        <text x="381.1" y="1366.6999999999996" class="label" text-anchor="middle" dominant-baseline="central"><tspan x="381.1" y="1366.6999999999996" dy="-0.6em">#[test]</tspan><tspan x="381.1" dy="1.2em">fn test_number_key_...()</tspan></text>
      </g>
      <g class="node" id="node-test_helper">
        <rect x="597.1" y="1219.1" width="262.4" height="52.8" style="stroke:#666 !important;stroke-width:2px !important;stroke-dasharray: 5 5 !important;fill:#e1f5e1 !important"/>
        <text x="728.3" y="1245.5" class="label" dominant-baseline="central" style="fill: #000000" text-anchor="middle">pub(super) fn test_app()</text>
      </g>
      <g class="node" id="node-ui">
        <rect x="944.3" y="906.4999999999998" width="80" height="52.8"/>
        <text x="984.3" y="932.8999999999997" class="label" text-anchor="middle" dominant-baseline="central">ui.rs</text>
      </g>
    </g>
  </g>
</svg>
