<?xml version="1.0" encoding="UTF-8"?>
<svg xmlns="http://www.w3.org/2000/svg" width="1318.8" height="967.8000000000001" viewBox="-8 -27.999999999999964 1318.8 967.8000000000001" class="mermaid">
  <style>

.mermaid {
  font-family: trebuchet ms, verdana, arial, sans-serif;
  font-size: 16px;
}

.node rect,
.node polygon,
.node circle,
.node ellipse,
.node path {
  fill: #ECECFF;
  stroke: #9370DB;
  stroke-width: 1px;
}

.node line {
  stroke: #9370DB;
  stroke-width: 1px;
}

.node .label {
  fill: #333333;
}

.node text {
  fill: #333333;
  font-family: trebuchet ms, verdana, arial, sans-serif;
  font-size: 16px;
}

.edge-path {
  fill: none;
  stroke: #333333;
  stroke-width: 1px;
}

.edge-label {
  fill: #333333;
  font-family: trebuchet ms, verdana, arial, sans-serif;
}

.edge-label-bg {
  fill: rgba(232, 232, 232, 0.8);
}

.subgraph {
  fill: #ffffde;
  stroke: #aaaa33;
  stroke-width: 1px;
}

.subgraph-title {
  fill: #333333;
  font-weight: bold;
}

.cluster rect {
  fill: #ffffde;
  stroke: #aaaa33;
  stroke-width: 1px;
  rx: 5px;
  ry: 5px;
}

.cluster-label {
  fill: #333333;
  font-family: trebuchet ms, verdana, arial, sans-serif;
  font-size: 16px;
  font-weight: bold;
}

marker path {
  fill: #333333;
  stroke: #333333;
}

  </style>
  <defs>
    <marker id="arrow_point" viewBox="0 0 10 10" refX="10" refY="5" markerWidth="8" markerHeight="8" orient="auto" markerUnits="userSpaceOnUse">
      <path d="M 0 0 L 10 5 L 0 10 z"/>
    </marker>
    <marker id="arrow_point_start" viewBox="0 0 10 10" refX="4.5" refY="5" markerWidth="8" markerHeight="8" orient="auto" markerUnits="userSpaceOnUse">
      <path d="M 0 5 L 10 10 L 10 0 z"/>
    </marker>
    <marker id="arrow_cross" viewBox="0 0 11 11" refX="12" refY="5.2" markerWidth="11" markerHeight="11" orient="auto" markerUnits="userSpaceOnUse">
      <path d="M 1 1 L 10 10 M 10 1 L 1 10" stroke-width="2" fill="none"/>
    </marker>
    <marker id="arrow_cross_start" viewBox="0 0 11 11" refX="-1" refY="5.2" markerWidth="11" markerHeight="11" orient="auto" markerUnits="userSpaceOnUse">
      <path d="M 1 1 L 10 10 M 10 1 L 1 10" fill="none" stroke-width="2"/>
    </marker>
    <marker id="arrow_circle" viewBox="0 0 10 10" refX="11" refY="5" markerWidth="11" markerHeight="11" orient="auto" markerUnits="userSpaceOnUse">
      <circle cx="5" cy="5" r="5"/>
    </marker>
    <marker id="arrow_circle_start" viewBox="0 0 10 10" refX="-1" refY="5" markerWidth="11" markerHeight="11" orient="auto" markerUnits="userSpaceOnUse">
      <circle cx="5" cy="5" r="5"/>
    </marker>
  </defs>
  <g class="root">
    <g class="clusters">
      <g class="subgraph" id="subgraph-Chat Event Loop (mod.rs)">
        <rect x="20" y="-19.999999999999964" width="312" height="443.3999999999999" class="cluster"/>
        <text x="176" y="-3.9999999999999645" class="cluster-label" text-anchor="middle">Chat Event Loop (mod.rs)</text>
      </g>
      <g class="subgraph" id="subgraph-UI Rendering (ui.rs)">
        <rect x="112.19999999999993" y="191.00000000000003" width="1050.4" height="294.20000000000005" class="cluster"/>
        <text x="637.4" y="207.00000000000003" class="cluster-label" text-anchor="middle">UI Rendering (ui.rs)</text>
      </g>
      <g class="subgraph" id="subgraph-Kitty Protocol (kitty.rs)">
        <rect x="942.8" y="560" width="340" height="366.8000000000002" class="cluster"/>
        <text x="1112.8" y="576" class="cluster-label" text-anchor="middle">Kitty Protocol (kitty.rs)</text>
      </g>
    </g>
    <g class="edgePaths">
      <g class="edge" id="edge-L-RenderMsg-DiagramNum-0">
        <path d="M 317.79999999999995 350.6 L 367.7999999999999 350.6" class="edge-path" marker-end="url(#arrow_point)" fill="none" stroke-width="1"/>
      </g>
      <g class="edge" id="edge-L-DiagramNum-CapCheck-0">
        <path d="M 601.3999999999999 350.6 L 651.4 350.6" class="edge-path" marker-end="url(#arrow_point)" fill="none" stroke-width="1"/>
      </g>
      <g class="edge" id="edge-L-CapCheck-Numbered-0">
        <path d="M 867.40 350.60 C 880.73 350.60, 894.07 350.60, 900.73 338.97 C 907.40 327.33, 907.40 304.07, 914.07 292.43 C 934.07 280.80, 947.40 280.80, 947.40 280.80" class="edge-path" stroke-width="1" fill="none" marker-end="url(#arrow_point)"/>
      </g>
      <g class="edge" id="edge-L-CapCheck-Unnumbered-0">
        <path d="M 867.40 350.60 C 883.93 350.60, 900.47 350.60, 908.73 362.23 C 917.00 373.87, 917.00 397.13, 925.27 408.77 C 950.07 420.40, 966.60 420.40, 966.60 420.40" class="edge-path" marker-end="url(#arrow_point)" stroke-width="1" fill="none"/>
      </g>
      <g class="edge" id="edge-L-KeyPress-HandleEvent-0">
        <path d="M 176.00 77.80 C 176.00 86.13, 176.00 94.47, 176.00 102.80 C 176.00 111.13, 176.00 119.47, 176.00 127.80" class="edge-path" stroke-width="1" fill="none" marker-end="url(#arrow_point)"/>
      </g>
      <g class="edge" id="edge-L-HandleEvent-ViewMode-0">
        <path d="M 176.00 180.60 C 176.00 192.27, 176.00 203.93, 176.00 226.13 C 176.00 248.33, 176.00 281.07, 176.00 313.80" class="edge-path" stroke-width="1" marker-end="url(#arrow_point)" fill="none"/>
      </g>
      <g class="edge" id="edge-L-ViewMode-RenderFull-0">
        <path d="M 176.00 403.40 C 176.00 432.80, 176.00 462.20, 332.13 482.73 C 488.27 503.27, 800.53 514.93, 956.67 533.83 C 1112.80 578.87, 1112.80 605.00, 1112.80 605.00" class="edge-path" marker-end="url(#arrow_point)" fill="none" stroke-width="1"/>
      </g>
      <g class="edge" id="edge-L-RenderFull-TmuxCheck-0">
        <path d="M 1112.80 657.80 C 1112.80 672.27, 1112.80 686.73, 1112.80 698.13 C 1112.80 709.53, 1112.80 717.87, 1112.80 726.20 C 1112.80 742.87, 1112.80 751.20, 1112.80 751.20" class="edge-path" fill="none" marker-end="url(#arrow_point)" stroke-width="1"/>
      </g>
      <g class="edge" id="edge-L-TmuxCheck-Inner-0">
        <path d="M 1112.80 804.00 C 1112.80 812.33, 1112.80 820.67, 1112.80 829.00 C 1112.80 837.33, 1112.80 845.67, 1112.80 854.00" class="edge-path" stroke-width="1" marker-end="url(#arrow_point)" fill="none"/>
      </g>
    </g>
    <g class="edgeLabels">
      <g class="edgeLabel" id="edge-label-L-CapCheck-Numbered-0">
        <rect x="892.6" y="304.70000000000005" width="29.599999999999998" height="22" class="edge-label-bg"/>
        <text x="907.4" y="315.70000000000005" class="edge-label" text-anchor="middle" dominant-baseline="central">Yes</text>
      </g>
      <g class="edgeLabel" id="edge-label-L-CapCheck-Unnumbered-0">
        <rect x="905.8" y="374.5" width="22.4" height="22" class="edge-label-bg"/>
        <text x="917" y="385.5" class="edge-label" dominant-baseline="central" text-anchor="middle">No</text>
      </g>
      <g class="edgeLabel" id="edge-label-L-HandleEvent-ViewMode-0">
        <rect x="139.6" y="236.20000000000005" width="72.8" height="22" class="edge-label-bg"/>
        <text x="176" y="247.20000000000005" class="edge-label" text-anchor="middle" dominant-baseline="central">idx &lt; len</text>
      </g>
    </g>
    <g class="nodes">
      <g class="node" id="node-CapCheck">
        <polygon points="759.4,242.60000000000002 867.4,350.6 759.4,458.6 651.4,350.6" style="fill:#f96 !important"/>
        <text x="759.4" y="350.6" class="label" dominant-baseline="central" style="fill: #ffffff" text-anchor="middle">diagram_num &lt;= 9?</text>
      </g>
      <g class="node" id="node-DiagramNum">
        <rect x="367.7999999999999" y="324.20000000000005" width="233.6" height="52.8"/>
        <text x="484.5999999999999" y="350.6" class="label" dominant-baseline="central" text-anchor="middle">diagram_num = len + 1</text>
      </g>
      <g class="node" id="node-HandleEvent">
        <rect x="92.8" y="127.80000000000004" width="166.4" height="52.8"/>
        <text x="176" y="154.20000000000005" class="label" dominant-baseline="central" text-anchor="middle">handle_event()</text>
      </g>
      <g class="node" id="node-Inner">
        <rect x="962.8" y="854.0000000000002" width="300" height="52.8" style="fill:#9f6 !important"/>
        <text x="1112.8" y="880.4000000000002" class="label" text-anchor="middle" dominant-baseline="central" style="fill: #000000">render_fullscreen_image_inner()</text>
      </g>
      <g class="node" id="node-KeyPress">
        <rect x="102.4" y="25.000000000000036" width="147.2" height="52.8"/>
        <text x="176" y="51.400000000000034" class="label" dominant-baseline="central" text-anchor="middle">KeyPress 1-9</text>
      </g>
      <g class="node" id="node-Numbered">
        <rect x="947.4" y="236.00000000000003" width="195.2" height="89.6"/>
        <text x="1045" y="280.8" class="label" text-anchor="middle" dominant-baseline="central"><tspan x="1045" y="280.8" dy="-0.6em">[N] Diagram: type</tspan><tspan x="1045" dy="1.2em">(press N to view)</tspan></text>
      </g>
      <g class="node" id="node-RenderFull">
        <rect x="976.8" y="605" width="272" height="52.8"/>
        <text x="1112.8" y="631.4" class="label" dominant-baseline="central" text-anchor="middle">render_fullscreen_image()</text>
      </g>
      <g class="node" id="node-RenderMsg">
        <rect x="132.19999999999993" y="324.20000000000005" width="185.6" height="52.8"/>
        <text x="224.99999999999994" y="350.6" class="label" dominant-baseline="central" text-anchor="middle">render_message()</text>
      </g>
      <g class="node" id="node-TmuxCheck">
        <rect x="1020" y="751.2000000000003" width="185.6" height="52.8" style="fill:#f96 !important"/>
        <text x="1112.8" y="777.6000000000003" class="label" text-anchor="middle" dominant-baseline="central" style="fill: #ffffff">is_inside_tmux()</text>
      </g>
      <g class="node" id="node-Unnumbered">
        <rect x="966.6" y="375.6" width="156.8" height="89.6"/>
        <text x="1045" y="420.40000000000003" class="label" dominant-baseline="central" text-anchor="middle"><tspan x="1045" y="420.40000000000003" dy="-0.6em">Diagram: type</tspan><tspan x="1045" dy="1.2em">(no shortcut)</tspan></text>
      </g>
      <g class="node" id="node-ViewMode">
        <rect x="40" y="313.8" width="272" height="89.6"/>
        <text x="176" y="358.6" class="label" dominant-baseline="central" text-anchor="middle"><tspan x="176" y="358.6" dy="-0.6em">ViewMode enum</tspan><tspan x="176" dy="1.2em">Chat | DiagramViewer(idx)</tspan></text>
      </g>
    </g>
  </g>
</svg>
