<?xml version="1.0" encoding="UTF-8"?>
<svg xmlns="http://www.w3.org/2000/svg" width="1146.3" height="1198.1999999999998" viewBox="-8 -27.999999999999993 1146.3 1198.1999999999998" class="mermaid">
  <style>

.mermaid {
  font-family: trebuchet ms, verdana, arial, sans-serif;
  font-size: 16px;
}

.node rect,
.node polygon,
.node circle,
.node ellipse,
.node path {
  fill: #ECECFF;
  stroke: #9370DB;
  stroke-width: 1px;
}

.node line {
  stroke: #9370DB;
  stroke-width: 1px;
}

.node .label {
  fill: #333333;
}

.node text {
  fill: #333333;
  font-family: trebuchet ms, verdana, arial, sans-serif;
  font-size: 16px;
}

.edge-path {
  fill: none;
  stroke: #333333;
  stroke-width: 1px;
}

.edge-label {
  fill: #333333;
  font-family: trebuchet ms, verdana, arial, sans-serif;
}

.edge-label-bg {
  fill: rgba(232, 232, 232, 0.8);
}

.subgraph {
  fill: #ffffde;
  stroke: #aaaa33;
  stroke-width: 1px;
}

.subgraph-title {
  fill: #333333;
  font-weight: bold;
}

.cluster rect {
  fill: #ffffde;
  stroke: #aaaa33;
  stroke-width: 1px;
  rx: 5px;
  ry: 5px;
}

.cluster-label {
  fill: #333333;
  font-family: trebuchet ms, verdana, arial, sans-serif;
  font-size: 16px;
  font-weight: bold;
}

marker path {
  fill: #333333;
  stroke: #333333;
}

  </style>
  <defs>
    <marker id="arrow_point" viewBox="0 0 10 10" refX="10" refY="5" markerWidth="8" markerHeight="8" orient="auto" markerUnits="userSpaceOnUse">
      <path d="M 0 0 L 10 5 L 0 10 z"/>
    </marker>
    <marker id="arrow_point_start" viewBox="0 0 10 10" refX="4.5" refY="5" markerWidth="8" markerHeight="8" orient="auto" markerUnits="userSpaceOnUse">
      <path d="M 0 5 L 10 10 L 10 0 z"/>
    </marker>
    <marker id="arrow_cross" viewBox="0 0 11 11" refX="12" refY="5.2" markerWidth="11" markerHeight="11" orient="auto" markerUnits="userSpaceOnUse">
      <path d="M 1 1 L 10 10 M 10 1 L 1 10" stroke-width="2" fill="none"/>
    </marker>
    <marker id="arrow_cross_start" viewBox="0 0 11 11" refX="-1" refY="5.2" markerWidth="11" markerHeight="11" orient="auto" markerUnits="userSpaceOnUse">
      <path d="M 1 1 L 10 10 M 10 1 L 1 10" fill="none" stroke-width="2"/>
    </marker>
    <marker id="arrow_circle" viewBox="0 0 10 10" refX="11" refY="5" markerWidth="11" markerHeight="11" orient="auto" markerUnits="userSpaceOnUse">
      <circle cx="5" cy="5" r="5"/>
    </marker>
    <marker id="arrow_circle_start" viewBox="0 0 10 10" refX="-1" refY="5" markerWidth="11" markerHeight="11" orient="auto" markerUnits="userSpaceOnUse">
      <circle cx="5" cy="5" r="5"/>
    </marker>
  </defs>
  <g class="root">
    <g class="clusters">
      <g class="subgraph" id="subgraph-OLD: Inline Graphics (Problematic)">
        <rect x="112.29999999999995" y="-19.999999999999993" width="938.5" height="1177.1999999999998" class="cluster"/>
        <text x="581.55" y="-3.999999999999993" class="cluster-label" text-anchor="middle">OLD: Inline Graphics (Problematic)</text>
      </g>
      <g class="subgraph" id="subgraph-NEW: Text Placeholders + Fullscreen View">
        <rect x="35.39999999999998" y="-19.999999999999993" width="1094.9" height="774.6" class="cluster"/>
        <text x="582.85" y="-3.999999999999993" class="cluster-label" text-anchor="middle">NEW: Text Placeholders + Fullscreen View</text>
      </g>
    </g>
    <g class="edgePaths">
      <g class="edge" id="edge-L-A1-B1-0">
        <path d="M 288.80 77.80 C 288.80 86.13, 288.80 94.47, 288.80 108.93 C 288.80 123.40, 288.80 144.00, 288.80 164.60" class="edge-path" marker-end="url(#arrow_point)" fill="none" stroke-width="1"/>
      </g>
      <g class="edge" id="edge-L-B1-C1-0">
        <path d="M 288.80 217.40 C 288.80 238.00, 288.80 258.60, 353.47 284.01 C 418.13 309.43, 547.47 339.65, 676.80 369.88" class="edge-path" fill="none" stroke-width="1" marker-end="url(#arrow_point)"/>
      </g>
      <g class="edge" id="edge-L-C1-D1-0">
        <path d="M 755.20 414.60 C 755.20 445.47, 755.20 476.33, 701.38 500.85 C 647.57 525.36, 539.93 543.53, 432.30 561.69" class="edge-path" marker-end="url(#arrow_point)" fill="none" stroke-width="1"/>
      </g>
      <g class="edge" id="edge-L-D1-E1-0">
        <path d="M 282.30 613.40 C 282.30 627.87, 282.30 642.33, 344.10 655.96 C 405.90 669.58, 529.50 682.36, 653.10 695.13" class="edge-path" fill="none" stroke-width="1" marker-end="url(#arrow_point)"/>
      </g>
      <g class="edge" id="edge-L-E1-F1-0">
        <path d="M 779.50 734.60 C 779.50 742.93, 779.50 751.27, 779.50 759.60 C 779.50 767.93, 779.50 776.27, 779.50 784.60 C 779.50 801.27, 779.50 809.60, 779.50 809.60" class="edge-path" marker-end="url(#arrow_point)" stroke-width="1" fill="none"/>
      </g>
      <g class="edge" id="edge-L-F1-G1-0">
        <path d="M 762.05 960.15 L 748.30 1047.60" class="edge-path" stroke-width="1" marker-end="url(#arrow_point)" fill="none"/>
      </g>
      <g class="edge" id="edge-L-F1-H1-0">
        <path d="M 829.57 927.53 C 871.41 955.89, 913.26 984.24, 934.18 1007.32 C 955.10 1030.40, 955.10 1048.20, 955.10 1066.00" class="edge-path" marker-end="url(#arrow_point)" fill="none" stroke-width="1"/>
      </g>
      <g class="edge" id="edge-L-I1-D1-0">
        <path d="M 957.20 414.60 C 957.20 445.47, 957.20 476.33, 869.72 502.11 C 782.23 527.89, 607.27 548.58, 432.30 569.26" class="edge-path" fill="none" stroke-width="2" marker-end="url(#arrow_point)" stroke-dasharray="3,3"/>
      </g>
      <g class="edge" id="edge-L-A2-B2-0">
        <path d="M 717.30 77.80 C 717.30 86.13, 717.30 94.47, 717.30 108.93 C 717.30 123.40, 717.30 144.00, 717.30 164.60" class="edge-path" marker-end="url(#arrow_point)" fill="none" stroke-width="1"/>
      </g>
      <g class="edge" id="edge-L-B2-C2-0">
        <path d="M 717.30 217.40 C 717.30 238.00, 717.30 258.60, 632.76 284.85 C 548.22 311.09, 379.15 342.98, 210.07 374.87" class="edge-path" marker-end="url(#arrow_point)" fill="none" stroke-width="1"/>
      </g>
      <g class="edge" id="edge-L-C2-D2-0">
        <path d="M 94.08 426.88 C 62.72 453.66, 31.36 480.43, 116.13 505.11 C 200.90 529.78, 401.80 552.37, 602.70 574.95" class="edge-path" fill="none" marker-end="url(#arrow_point)" stroke-width="1"/>
      </g>
      <g class="edge" id="edge-L-C2-E2-0">
        <path d="M 187.56 424.04 C 224.81 451.76, 262.05 479.48, 375.31 504.29 C 488.57 529.11, 677.83 551.02, 867.10 572.92" class="edge-path" marker-end="url(#arrow_point)" stroke-width="1" fill="none"/>
      </g>
      <g class="edge" id="edge-L-D2-F2-0">
        <path d="M 709.90 631.80 C 709.90 640.13, 709.90 648.47, 677.73 658.62 C 645.57 668.77, 581.23 680.74, 516.90 692.72" class="edge-path" marker-end="url(#arrow_point)" fill="none" stroke-width="1"/>
      </g>
      <g class="edge" id="edge-L-E2-F2-0">
        <path d="M 988.70 631.80 C 988.70 640.13, 988.70 648.47, 910.07 659.92 C 831.43 671.36, 674.17 685.93, 516.90 700.49" class="edge-path" stroke-width="1" marker-end="url(#arrow_point)" fill="none"/>
      </g>
      <g class="edge" id="edge-L-G2-H2-0">
        <path d="M 967.70 77.80 C 967.70 86.13, 967.70 94.47, 967.70 102.80 C 967.70 111.13, 967.70 119.47, 967.70 127.80" class="edge-path" marker-end="url(#arrow_point)" fill="none" stroke-width="1"/>
      </g>
      <g class="edge" id="edge-L-H2-I2-0">
        <path d="M 967.70 254.20 C 967.70 262.53, 967.70 270.87, 894.12 289.16 C 820.53 307.45, 673.37 335.69, 526.20 363.94" class="edge-path" fill="none" marker-end="url(#arrow_point)" stroke-width="1"/>
      </g>
    </g>
    <g class="edgeLabels">
      <g class="edgeLabel" id="edge-label-L-F1-G1-0">
        <rect x="735.937405964212" y="992.30348366214" width="29.599999999999998" height="22" class="edge-label-bg"/>
        <text x="750.7374059642119" y="1003.30348366214" class="edge-label" text-anchor="middle" dominant-baseline="central">Yes</text>
      </g>
      <g class="edgeLabel" id="edge-label-L-F1-H1-0">
        <rect x="903.2374124092219" y="974.0439184322174" width="22.4" height="22" class="edge-label-bg"/>
        <text x="914.4374124092219" y="985.0439184322174" class="edge-label" text-anchor="middle" dominant-baseline="central">No</text>
      </g>
      <g class="edgeLabel" id="edge-label-L-I1-D1-0">
        <rect x="664.7297028607895" y="521.7953914827516" width="152" height="22" class="edge-label-bg"/>
        <text x="740.7297028607895" y="532.7953914827516" class="edge-label" text-anchor="middle" dominant-baseline="central">Recalc ALL positions</text>
      </g>
      <g class="edgeLabel" id="edge-label-L-C2-D2-0">
        <rect x="221.48554927683003" y="523.165582240162" width="36.8" height="22" class="edge-label-bg"/>
        <text x="239.88554927683003" y="534.165582240162" class="edge-label" text-anchor="middle" dominant-baseline="central">Text</text>
      </g>
      <g class="edgeLabel" id="edge-label-L-C2-E2-0">
        <rect x="484.81737672814876" y="521.0541436943811" width="58.4" height="22" class="edge-label-bg"/>
        <text x="514.0173767281487" y="532.0541436943811" class="edge-label" text-anchor="middle" dominant-baseline="central">Mermaid</text>
      </g>
    </g>
    <g class="nodes">
      <g class="node" id="node-A1">
        <rect x="200.79999999999995" y="25.000000000000007" width="176" height="52.8"/>
        <text x="288.79999999999995" y="51.400000000000006" class="label" text-anchor="middle" dominant-baseline="central">Message Content</text>
      </g>
      <g class="node" id="node-A2">
        <rect x="629.2999999999998" y="25.000000000000007" width="176" height="52.8"/>
        <text x="717.2999999999998" y="51.400000000000006" class="label" dominant-baseline="central" text-anchor="middle">Message Content</text>
      </g>
      <g class="node" id="node-B1">
        <rect x="210.39999999999995" y="164.6" width="156.8" height="52.8"/>
        <text x="288.79999999999995" y="191" class="label" dominant-baseline="central" text-anchor="middle">Parse Mermaid</text>
      </g>
      <g class="node" id="node-B2">
        <rect x="634.0999999999998" y="164.6" width="166.4" height="52.8"/>
        <text x="717.2999999999998" y="191" class="label" dominant-baseline="central" text-anchor="middle">Parse Segments</text>
      </g>
      <g class="node" id="node-C1">
        <rect x="676.8" y="361.8" width="156.8" height="52.8"/>
        <text x="755.1999999999999" y="388.2" class="label" text-anchor="middle" dominant-baseline="central">Render to PNG</text>
      </g>
      <g class="node" id="node-C2">
        <polygon points="139.39999999999998,304.2 223.39999999999998,388.2 139.39999999999998,472.2 55.39999999999998,388.2"/>
        <text x="139.39999999999998" y="388.2" class="label" dominant-baseline="central" text-anchor="middle">Segment Type</text>
      </g>
      <g class="node" id="node-D1">
        <rect x="132.29999999999995" y="560.6" width="300" height="52.8"/>
        <text x="282.29999999999995" y="587" class="label" text-anchor="middle" dominant-baseline="central">Calculate Absolute Pixel Coords</text>
      </g>
      <g class="node" id="node-D2">
        <rect x="602.6999999999999" y="542.2" width="214.4" height="89.6" style="fill:#9f9 !important;stroke:#0f0 !important"/>
        <text x="709.9" y="587" class="label" text-anchor="middle" style="fill: #000000" dominant-baseline="central"><tspan x="709.9" y="587" dy="-0.6em">Normal Ratatui Flow</tspan><tspan x="709.9" dy="1.2em">Cell-based Layout</tspan></text>
      </g>
      <g class="node" id="node-E1">
        <rect x="653.1000000000001" y="681.8000000000001" width="252.79999999999998" height="52.8"/>
        <text x="779.5000000000001" y="708.2" class="label" text-anchor="middle" dominant-baseline="central">Kitty Graphics Protocol</text>
      </g>
      <g class="node" id="node-E2">
        <rect x="867.0999999999999" y="542.2" width="243.2" height="89.6" style="fill:#9f9 !important;stroke:#0f0 !important"/>
        <text x="988.6999999999999" y="587" class="label" text-anchor="middle" style="fill: #000000" dominant-baseline="central"><tspan x="988.6999999999999" y="587" dy="-0.6em">Text Placeholder</tspan><tspan x="988.6999999999999" dy="1.2em">&apos;rendering diagram...&apos;</tspan></text>
      </g>
      <g class="node" id="node-F1">
        <polygon points="779.5000000000001,809.6 863.5000000000001,893.6 779.5000000000001,977.6 695.5000000000001,893.6"/>
        <text x="779.5000000000001" y="893.6" class="label" dominant-baseline="central" text-anchor="middle">Inside tmux?</text>
      </g>
      <g class="node" id="node-F2">
        <rect x="350.49999999999994" y="681.8000000000001" width="166.4" height="52.8"/>
        <text x="433.69999999999993" y="708.2" class="label" text-anchor="middle" dominant-baseline="central">Ratatui Buffer</text>
      </g>
      <g class="node" id="node-G1">
        <rect x="655.4999999999999" y="1047.6" width="185.6" height="89.6" style="fill:#f99 !important;stroke:#f00 !important"/>
        <text x="748.2999999999998" y="1092.3999999999999" class="label" style="fill: #ffffff" text-anchor="middle" dominant-baseline="central"><tspan x="748.2999999999998" y="1092.3999999999999" dy="-0.6em">DCS Passthrough</tspan><tspan x="748.2999999999998" dy="1.2em">Double ESC chars</tspan></text>
      </g>
      <g class="node" id="node-G2">
        <rect x="865.3" y="25.000000000000007" width="204.79999999999998" height="52.8"/>
        <text x="967.6999999999999" y="51.400000000000006" class="label" dominant-baseline="central" text-anchor="middle">User Opens Diagram</text>
      </g>
      <g class="node" id="node-H1">
        <rect x="891.1" y="1065.9999999999998" width="128" height="52.8"/>
        <text x="955.1" y="1092.3999999999999" class="label" text-anchor="middle" dominant-baseline="central">Direct APC</text>
      </g>
      <g class="node" id="node-H2">
        <rect x="865.3" y="127.80000000000001" width="204.79999999999998" height="126.39999999999999" style="fill:#9f9 !important;stroke:#0f0 !important"/>
        <text x="967.6999999999999" y="191" class="label" style="fill: #000000" text-anchor="middle" dominant-baseline="central"><tspan x="967.6999999999999" y="191" dy="-1.2em">Fullscreen View</tspan><tspan x="967.6999999999999" dy="1.2em">Simple Context</tspan><tspan x="967.6999999999999" dy="1.2em">No Scroll Tracking</tspan></text>
      </g>
      <g class="node" id="node-I1">
        <rect x="883.5999999999999" y="361.8" width="147.2" height="52.8" style="fill:#f99 !important;stroke:#f00 !important"/>
        <text x="957.1999999999999" y="388.2" class="label" dominant-baseline="central" style="fill: #ffffff" text-anchor="middle">User Scrolls</text>
      </g>
      <g class="node" id="node-I2">
        <rect x="273.4000000000001" y="361.8" width="252.79999999999998" height="52.8"/>
        <text x="399.80000000000007" y="388.2" class="label" dominant-baseline="central" text-anchor="middle">Kitty Graphics Protocol</text>
      </g>
    </g>
  </g>
</svg>
