<?xml version="1.0" encoding="UTF-8"?>
<svg xmlns="http://www.w3.org/2000/svg" width="1153.7000000000003" height="2156.5999999999995" viewBox="-28 -27.999999999999993 1153.7000000000003 2156.5999999999995" class="mermaid">
  <style>

.mermaid {
  font-family: trebuchet ms, verdana, arial, sans-serif;
  font-size: 16px;
}

.node rect,
.node polygon,
.node circle,
.node ellipse,
.node path {
  fill: #ECECFF;
  stroke: #9370DB;
  stroke-width: 1px;
}

.node line {
  stroke: #9370DB;
  stroke-width: 1px;
}

.node .label {
  fill: #333333;
}

.node text {
  fill: #333333;
  font-family: trebuchet ms, verdana, arial, sans-serif;
  font-size: 16px;
}

.edge-path {
  fill: none;
  stroke: #333333;
  stroke-width: 1px;
}

.edge-label {
  fill: #333333;
  font-family: trebuchet ms, verdana, arial, sans-serif;
}

.edge-label-bg {
  fill: rgba(232, 232, 232, 0.8);
}

.subgraph {
  fill: #ffffde;
  stroke: #aaaa33;
  stroke-width: 1px;
}

.subgraph-title {
  fill: #333333;
  font-weight: bold;
}

.cluster rect {
  fill: #ffffde;
  stroke: #aaaa33;
  stroke-width: 1px;
  rx: 5px;
  ry: 5px;
}

.cluster-label {
  fill: #333333;
  font-family: trebuchet ms, verdana, arial, sans-serif;
  font-size: 16px;
  font-weight: bold;
}

marker path {
  fill: #333333;
  stroke: #333333;
}

  </style>
  <defs>
    <marker id="arrow_point" viewBox="0 0 10 10" refX="10" refY="5" markerWidth="8" markerHeight="8" orient="auto" markerUnits="userSpaceOnUse">
      <path d="M 0 0 L 10 5 L 0 10 z"/>
    </marker>
    <marker id="arrow_point_start" viewBox="0 0 10 10" refX="4.5" refY="5" markerWidth="8" markerHeight="8" orient="auto" markerUnits="userSpaceOnUse">
      <path d="M 0 5 L 10 10 L 10 0 z"/>
    </marker>
    <marker id="arrow_cross" viewBox="0 0 11 11" refX="12" refY="5.2" markerWidth="11" markerHeight="11" orient="auto" markerUnits="userSpaceOnUse">
      <path d="M 1 1 L 10 10 M 10 1 L 1 10" stroke-width="2" fill="none"/>
    </marker>
    <marker id="arrow_cross_start" viewBox="0 0 11 11" refX="-1" refY="5.2" markerWidth="11" markerHeight="11" orient="auto" markerUnits="userSpaceOnUse">
      <path d="M 1 1 L 10 10 M 10 1 L 1 10" fill="none" stroke-width="2"/>
    </marker>
    <marker id="arrow_circle" viewBox="0 0 10 10" refX="11" refY="5" markerWidth="11" markerHeight="11" orient="auto" markerUnits="userSpaceOnUse">
      <circle cx="5" cy="5" r="5"/>
    </marker>
    <marker id="arrow_circle_start" viewBox="0 0 10 10" refX="-1" refY="5" markerWidth="11" markerHeight="11" orient="auto" markerUnits="userSpaceOnUse">
      <circle cx="5" cy="5" r="5"/>
    </marker>
  </defs>
  <g class="root">
    <g class="clusters">
      <g class="subgraph" id="subgraph-subGraph0">
        <rect x="320" y="-19.999999999999993" width="312" height="373.40000000000003" class="cluster"/>
        <text x="476" y="-3.999999999999993" class="cluster-label" text-anchor="middle">Tick N: Evaluate</text>
      </g>
      <g class="subgraph" id="subgraph-subGraph1">
        <rect x="-20" y="235.60000000000002" width="1098.1000000000001" height="853.2000000000002" class="cluster"/>
        <text x="529.0500000000001" y="251.60000000000002" class="cluster-label" text-anchor="middle">Within-Tick Deduplication</text>
      </g>
      <g class="subgraph" id="subgraph-subGraph2">
        <rect x="161.4" y="971.0000000000001" width="916.7000000000002" height="307.39999999999975" class="cluster"/>
        <text x="619.7500000000001" y="987.0000000000001" class="cluster-label" text-anchor="middle">Effect Generation</text>
      </g>
      <g class="subgraph" id="subgraph-subGraph3">
        <rect x="161.4" y="1123.8" width="633.2" height="446.9999999999998" class="cluster"/>
        <text x="478" y="1139.8" class="cluster-label" text-anchor="middle">Cross-Tick Tracking</text>
      </g>
      <g class="subgraph" id="subgraph-subGraph4">
        <rect x="246.89999999999998" y="1452.9999999999998" width="244.79999999999995" height="662.5999999999997" class="cluster"/>
        <text x="369.29999999999995" y="1468.9999999999998" class="cluster-label" text-anchor="middle">Tick N+1: Next Evaluation</text>
      </g>
    </g>
    <g class="edgePaths">
      <g class="edge" id="edge-L-Event-Snapshot-0">
        <path d="M 476.00 77.80 C 476.00 86.13, 476.00 94.47, 476.00 102.80 C 476.00 111.13, 476.00 119.47, 476.00 127.80" class="edge-path" marker-end="url(#arrow_point)" stroke-width="1" fill="none"/>
      </g>
      <g class="edge" id="edge-L-Snapshot-Rules-0">
        <path d="M 476.00 180.60 C 476.00 188.93, 476.00 197.27, 476.00 205.60 C 476.00 213.93, 476.00 222.27, 476.00 230.60 C 476.00 238.93, 476.00 247.27, 476.00 255.60 C 476.00 272.27, 476.00 280.60, 476.00 280.60" class="edge-path" fill="none" stroke-width="1" marker-end="url(#arrow_point)"/>
      </g>
      <g class="edge" id="edge-L-Rules-Check-0">
        <path d="M 476.00 333.40 C 476.00 341.73, 476.00 350.07, 476.00 358.40 C 476.00 366.73, 476.00 375.07, 476.00 383.40" class="edge-path" marker-end="url(#arrow_point)" fill="none" stroke-width="1"/>
      </g>
      <g class="edge" id="edge-L-Check-Bypass-0">
        <path d="M 426.39 463.39 C 334.26 491.59, 242.13 519.80, 196.06 539.73 C 150.00 559.67, 150.00 571.33, 150.00 583.00" class="edge-path" stroke-width="1" marker-end="url(#arrow_point)" fill="none"/>
      </g>
      <g class="edge" id="edge-L-Check-BlockSnap-0">
        <path d="M 486.64 502.36 C 489.62 517.58, 492.61 532.79, 494.11 546.23 C 495.60 559.67, 495.60 571.33, 495.60 583.00" class="edge-path" stroke-width="1" marker-end="url(#arrow_point)" fill="none"/>
      </g>
      <g class="edge" id="edge-L-Bypass-AssignCheck-0">
        <path d="M 150.00 635.80 C 150.00 644.13, 150.00 652.47, 190.70 674.44 C 231.40 696.40, 312.79 732.01, 394.19 767.61" class="edge-path" stroke-width="1" fill="none" marker-end="url(#arrow_point)"/>
      </g>
      <g class="edge" id="edge-L-BlockSnap-AssignCheck-0">
        <path d="M 495.60 635.80 C 495.60 644.13, 495.60 652.47, 494.70 663.17 C 493.80 673.87, 492.01 686.94, 490.21 700.01" class="edge-path" fill="none" marker-end="url(#arrow_point)" stroke-width="1"/>
      </g>
      <g class="edge" id="edge-L-AssignCheck-Block1-0">
        <path d="M 393.95 838.95 C 303.90 877.97, 213.85 916.98, 168.83 946.49 C 123.80 976.00, 123.80 996.00, 123.80 1016.00" class="edge-path" fill="none" marker-end="url(#arrow_point)" stroke-width="1"/>
      </g>
      <g class="edge" id="edge-L-AssignCheck-Allow1-0">
        <path d="M 516.08 880.92 C 529.02 917.61, 541.96 954.31, 598.16 979.03 C 654.37 1003.76, 753.83 1016.51, 853.30 1029.27" class="edge-path" marker-end="url(#arrow_point)" stroke-width="1" fill="none"/>
      </g>
      <g class="edge" id="edge-L-Allow1-Effect1-0">
        <path d="M 853.30 1050.46 C 669.87 1064.91, 486.43 1079.35, 394.72 1102.14 C 303.00 1124.93, 303.00 1156.07, 303.00 1187.20" class="edge-path" marker-end="url(#arrow_point)" stroke-width="1" fill="none"/>
      </g>
      <g class="edge" id="edge-L-Allow1-Effect2-0">
        <path d="M 853.30 1058.30 C 777.07 1070.13, 700.83 1081.97, 662.72 1100.38 C 624.60 1118.80, 624.60 1143.80, 624.60 1168.80" class="edge-path" marker-end="url(#arrow_point)" fill="none" stroke-width="1"/>
      </g>
      <g class="edge" id="edge-L-Effect1-Track1-0">
        <path d="M 303.00 1240.00 C 303.00 1254.47, 303.00 1268.93, 303.00 1283.40 C 303.00 1297.87, 303.00 1312.33, 303.00 1326.80" class="edge-path" stroke-width="1" marker-end="url(#arrow_point)" fill="none"/>
      </g>
      <g class="edge" id="edge-L-Effect2-Track2-0">
        <path d="M 624.60 1258.40 C 624.60 1266.73, 624.60 1275.07, 624.60 1283.40 C 624.60 1291.73, 624.60 1300.07, 624.60 1308.40" class="edge-path" fill="none" stroke-width="1" marker-end="url(#arrow_point)"/>
      </g>
      <g class="edge" id="edge-L-Track1-InFlight-0">
        <path d="M 303.00 1379.60 L 335.25 1498.00" class="edge-path" marker-end="url(#arrow_point)" stroke-width="1" fill="none"/>
      </g>
      <g class="edge" id="edge-L-Track2-InFlight-0">
        <path d="M 624.60 1398.00 C 624.60 1423.00, 624.60 1448.00, 597.52 1465.95 C 570.43 1483.91, 516.27 1494.81, 462.10 1505.72" class="edge-path" marker-end="url(#arrow_point)" stroke-width="1" fill="none"/>
      </g>
      <g class="edge" id="edge-L-InFlight-NextSnapshot-0">
        <path d="M 369.30 1550.80 C 369.30 1559.13, 369.30 1567.47, 369.30 1575.80 C 369.30 1584.13, 369.30 1592.47, 369.30 1600.80" class="edge-path" stroke-width="1" marker-end="url(#arrow_point)" fill="none"/>
      </g>
      <g class="edge" id="edge-L-NextSnapshot-NextRules-0">
        <path d="M 369.30 1690.40 C 369.30 1698.73, 369.30 1707.07, 369.30 1715.40 C 369.30 1723.73, 369.30 1732.07, 369.30 1740.40" class="edge-path" fill="none" marker-end="url(#arrow_point)" stroke-width="1"/>
      </g>
      <g class="edge" id="edge-L-NextRules-Check2-0">
        <path d="M 369.30 1793.20 C 369.30 1801.53, 369.30 1809.87, 369.30 1818.20 C 369.30 1826.53, 369.30 1834.87, 369.30 1843.20" class="edge-path" stroke-width="1" marker-end="url(#arrow_point)" fill="none"/>
      </g>
      <g class="edge" id="edge-L-Check2-Block2-0">
        <path d="M 369.30 1972.80 C 369.30 1984.47, 369.30 1996.13, 369.30 2007.80 C 369.30 2019.47, 369.30 2031.13, 369.30 2042.80" class="edge-path" fill="none" stroke-width="1" marker-end="url(#arrow_point)"/>
      </g>
    </g>
    <g class="edgeLabels">
      <g class="edgeLabel" id="edge-label-L-Check-Bypass-0">
        <rect x="213.4605472074394" y="499.8166791064342" width="116" height="22" class="edge-label-bg"/>
        <text x="271.4605472074394" y="510.8166791064342" class="edge-label" dominant-baseline="central" text-anchor="middle">Grouped PR task</text>
      </g>
      <g class="edgeLabel" id="edge-label-L-Check-BlockSnap-0">
        <rect x="447.29104409931836" y="531.3533776077528" width="94.39999999999999" height="22" class="edge-label-bg"/>
        <text x="494.49104409931834" y="542.3533776077528" class="edge-label" dominant-baseline="central" text-anchor="middle">Regular task</text>
      </g>
      <g class="edgeLabel" id="edge-label-L-AssignCheck-Block1-0">
        <rect x="216.54787984841258" y="898.4020259373431" width="29.599999999999998" height="22" class="edge-label-bg"/>
        <text x="231.3478798484126" y="909.4020259373431" class="edge-label" text-anchor="middle" dominant-baseline="central">Yes</text>
      </g>
      <g class="edgeLabel" id="edge-label-L-AssignCheck-Allow1-0">
        <rect x="633.6242476377158" y="991.5322014186094" width="22.4" height="22" class="edge-label-bg"/>
        <text x="644.8242476377159" y="1002.5322014186094" class="edge-label" dominant-baseline="central" text-anchor="middle">No</text>
      </g>
      <g class="edgeLabel" id="edge-label-L-Check2-Block2-0">
        <rect x="304.09999999999997" y="1996.7999999999993" width="130.39999999999998" height="22" class="edge-label-bg"/>
        <text x="369.29999999999995" y="2007.7999999999993" class="edge-label" dominant-baseline="central" text-anchor="middle">in_flight tracked</text>
      </g>
    </g>
    <g class="nodes">
      <g class="node" id="node-Allow1">
        <rect x="853.3000000000001" y="1016.0000000000001" width="204.79999999999998" height="52.8" style="fill:#ccffcc !important"/>
        <text x="955.7" y="1042.4" class="label" dominant-baseline="central" style="fill: #000000" text-anchor="middle">✓ Allow assignment</text>
      </g>
      <g class="node" id="node-AssignCheck">
        <polygon points="476,685.8 593.5999999999999,803.4 476,921 358.4,803.4"/>
        <text x="476" y="803.4" class="label" dominant-baseline="central" text-anchor="middle">assigned_this_tick?</text>
      </g>
      <g class="node" id="node-Block1">
        <rect x="26.19999999999996" y="1016.0000000000001" width="195.2" height="52.8" style="fill:#ffcccc !important"/>
        <text x="123.79999999999995" y="1042.4" class="label" text-anchor="middle" style="fill: #000000" dominant-baseline="central">❌ Block duplicate</text>
      </g>
      <g class="node" id="node-Block2">
        <rect x="271.69999999999993" y="2042.7999999999993" width="195.2" height="52.8" style="fill:#ffcccc !important"/>
        <text x="369.29999999999995" y="2069.1999999999994" class="label" dominant-baseline="central" text-anchor="middle" style="fill: #000000">❌ Block duplicate</text>
      </g>
      <g class="node" id="node-BlockSnap">
        <rect x="350.0000000000001" y="583" width="291.2" height="52.8"/>
        <text x="495.60000000000014" y="609.4" class="label" text-anchor="middle" dominant-baseline="central">block if busy from snapshot</text>
      </g>
      <g class="node" id="node-Bypass">
        <rect x="0" y="583" width="300" height="52.8"/>
        <text x="150" y="609.4" class="label" text-anchor="middle" dominant-baseline="central">bypass is_busy_from_snapshot</text>
      </g>
      <g class="node" id="node-Check">
        <polygon points="476,383.40000000000003 540.8,448.20000000000005 476,513 411.2,448.20000000000005"/>
        <text x="476" y="448.20000000000005" class="label" text-anchor="middle" dominant-baseline="central">is_busy?</text>
      </g>
      <g class="node" id="node-Check2">
        <polygon points="369.29999999999995,1843.1999999999996 434.0999999999999,1907.9999999999995 369.29999999999995,1972.7999999999995 304.49999999999994,1907.9999999999995"/>
        <text x="369.29999999999995" y="1907.9999999999995" class="label" text-anchor="middle" dominant-baseline="central">is_busy?</text>
      </g>
      <g class="node" id="node-Effect1">
        <rect x="181.4" y="1187.1999999999998" width="243.2" height="52.8"/>
        <text x="303" y="1213.6" class="label" text-anchor="middle" dominant-baseline="central">Effect::AssignAndSpawn</text>
      </g>
      <g class="node" id="node-Effect2">
        <rect x="474.6" y="1168.8" width="300" height="89.6"/>
        <text x="624.6" y="1213.6" class="label" dominant-baseline="central" text-anchor="middle"><tspan x="624.6" y="1213.6" dy="-0.6em">Effect::NudgeCoworkerWithCallbacks</tspan><tspan x="624.6" dy="1.2em">└─ RecordTaskAssignment</tspan></text>
      </g>
      <g class="node" id="node-Event">
        <rect x="407.2" y="25.000000000000007" width="137.6" height="52.8"/>
        <text x="476" y="51.400000000000006" class="label" dominant-baseline="central" text-anchor="middle">DaemonEvent</text>
      </g>
      <g class="node" id="node-InFlight">
        <rect x="276.49999999999994" y="1497.9999999999998" width="185.6" height="52.8" style="fill:#ffffcc !important"/>
        <text x="369.29999999999995" y="1524.3999999999999" class="label" dominant-baseline="central" style="fill: #000000" text-anchor="middle">in_flight_spawns</text>
      </g>
      <g class="node" id="node-NextRules">
        <rect x="290.9" y="1740.3999999999996" width="156.8" height="52.8"/>
        <text x="369.29999999999995" y="1766.7999999999997" class="label" dominant-baseline="central" text-anchor="middle">evaluate_tick</text>
      </g>
      <g class="node" id="node-NextSnapshot">
        <rect x="266.9" y="1600.7999999999997" width="204.79999999999998" height="89.6"/>
        <text x="369.29999999999995" y="1645.5999999999997" class="label" text-anchor="middle" dominant-baseline="central"><tspan x="369.29999999999995" y="1645.5999999999997" dy="-0.6em">collect_snapshot</tspan><tspan x="369.29999999999995" dy="1.2em">includes in_flight</tspan></text>
      </g>
      <g class="node" id="node-Rules">
        <rect x="340" y="280.6" width="272" height="52.8"/>
        <text x="476" y="307" class="label" text-anchor="middle" dominant-baseline="central">evaluate_tick in rules.rs</text>
      </g>
      <g class="node" id="node-Snapshot">
        <rect x="383.2" y="127.80000000000001" width="185.6" height="52.8"/>
        <text x="476" y="154.20000000000002" class="label" dominant-baseline="central" text-anchor="middle">collect_snapshot</text>
      </g>
      <g class="node" id="node-Track1">
        <rect x="186.2" y="1326.7999999999997" width="233.6" height="52.8"/>
        <text x="303" y="1353.1999999999998" class="label" text-anchor="middle" dominant-baseline="central">mark_in_flight_spawns</text>
      </g>
      <g class="node" id="node-Track2">
        <rect x="507.8" y="1308.3999999999999" width="233.6" height="89.6"/>
        <text x="624.6" y="1353.1999999999998" class="label" dominant-baseline="central" text-anchor="middle"><tspan x="624.6" y="1353.1999999999998" dy="-0.6em">mark_in_flight_spawns</tspan><tspan x="624.6" dy="1.2em">scans sub-effects</tspan></text>
      </g>
    </g>
  </g>
</svg>
