<?xml version="1.0" encoding="UTF-8"?>
<svg xmlns="http://www.w3.org/2000/svg" width="2764" height="796.15" viewBox="-185.05000000000007 -8 2764 796.15" class="mermaid">
  <style>

.mermaid {
  font-family: trebuchet ms, verdana, arial, sans-serif;
  font-size: 16px;
}

.node rect,
.node polygon,
.node circle,
.node ellipse,
.node path {
  fill: #ECECFF;
  stroke: #9370DB;
  stroke-width: 1px;
}

.node line {
  stroke: #9370DB;
  stroke-width: 1px;
}

.node .label {
  fill: #333333;
}

.node text {
  fill: #333333;
  font-family: trebuchet ms, verdana, arial, sans-serif;
  font-size: 16px;
}

.edge-path {
  fill: none;
  stroke: #333333;
  stroke-width: 1px;
}

.edge-label {
  fill: #333333;
  font-family: trebuchet ms, verdana, arial, sans-serif;
}

.edge-label-bg {
  fill: rgba(232, 232, 232, 0.8);
}

.subgraph {
  fill: #ffffde;
  stroke: #aaaa33;
  stroke-width: 1px;
}

.subgraph-title {
  fill: #333333;
  font-weight: bold;
}

.cluster rect {
  fill: #ffffde;
  stroke: #aaaa33;
  stroke-width: 1px;
  rx: 5px;
  ry: 5px;
}

.cluster-label {
  fill: #333333;
  font-family: trebuchet ms, verdana, arial, sans-serif;
  font-size: 16px;
  font-weight: bold;
}

marker path {
  fill: #333333;
  stroke: #333333;
}

  </style>
  <defs>
    <marker id="arrow_point" viewBox="0 0 10 10" refX="10" refY="5" markerWidth="8" markerHeight="8" orient="auto" markerUnits="userSpaceOnUse">
      <path d="M 0 0 L 10 5 L 0 10 z"/>
    </marker>
    <marker id="arrow_point_start" viewBox="0 0 10 10" refX="4.5" refY="5" markerWidth="8" markerHeight="8" orient="auto" markerUnits="userSpaceOnUse">
      <path d="M 0 5 L 10 10 L 10 0 z"/>
    </marker>
    <marker id="arrow_cross" viewBox="0 0 11 11" refX="12" refY="5.2" markerWidth="11" markerHeight="11" orient="auto" markerUnits="userSpaceOnUse">
      <path d="M 1 1 L 10 10 M 10 1 L 1 10" stroke-width="2" fill="none"/>
    </marker>
    <marker id="arrow_cross_start" viewBox="0 0 11 11" refX="-1" refY="5.2" markerWidth="11" markerHeight="11" orient="auto" markerUnits="userSpaceOnUse">
      <path d="M 1 1 L 10 10 M 10 1 L 1 10" fill="none" stroke-width="2"/>
    </marker>
    <marker id="arrow_circle" viewBox="0 0 10 10" refX="11" refY="5" markerWidth="11" markerHeight="11" orient="auto" markerUnits="userSpaceOnUse">
      <circle cx="5" cy="5" r="5"/>
    </marker>
    <marker id="arrow_circle_start" viewBox="0 0 10 10" refX="-1" refY="5" markerWidth="11" markerHeight="11" orient="auto" markerUnits="userSpaceOnUse">
      <circle cx="5" cy="5" r="5"/>
    </marker>
  </defs>
  <g class="root">
    <g class="clusters">
      <g class="subgraph" id="subgraph-Without sccache">
        <rect x="847.6999999999999" y="138.40000000000015" width="1391.1999999999998" height="546.5999999999999" class="cluster"/>
        <text x="1543.2999999999997" y="154.40000000000015" class="cluster-label" text-anchor="middle">Without sccache</text>
      </g>
      <g class="subgraph" id="subgraph-With sccache (RUSTC_WRAPPER)">
        <rect x="-177.05000000000007" y="171.05000000000007" width="1356.8000000000002" height="609.0999999999999" class="cluster"/>
        <text x="501.35" y="187.05000000000007" class="cluster-label" text-anchor="middle">With sccache (RUSTC_WRAPPER)</text>
      </g>
    </g>
    <g class="edgePaths">
      <g class="edge" id="edge-L-W1-B1-0">
        <path d="M 1072.5 316.40000000000015 L 1132.1 316.4000000000001" class="edge-path" fill="none" stroke-width="1" marker-end="url(#arrow_point)"/>
      </g>
      <g class="edge" id="edge-L-W2-B2-0">
        <path d="M 1279.3 498.20000000000016 L 1382.1 498.20000000000016" class="edge-path" fill="none" stroke-width="1" marker-end="url(#arrow_point)"/>
      </g>
      <g class="edge" id="edge-L-W3-B3-0">
        <path d="M 1543.6999999999998 620.2 L 1705.3 620.2000000000002" class="edge-path" marker-end="url(#arrow_point)" fill="none" stroke-width="1"/>
      </g>
      <g class="edge" id="edge-L-B1-D1-0">
        <path d="M 1269.70 316.40 C 1279.63 316.40, 1289.57 316.40, 1294.53 304.77 C 1299.50 293.13, 1299.50 269.87, 1304.47 258.23 C 1319.37 246.60, 1329.30 246.60, 1329.30 246.60" class="edge-path" fill="none" marker-end="url(#arrow_point)" stroke-width="1"/>
      </g>
      <g class="edge" id="edge-L-B1-M1-0">
        <path d="M 1269.70 316.40 C 1283.63 316.40, 1297.57 316.40, 1304.53 328.03 C 1311.50 339.67, 1311.50 362.93, 1318.47 374.57 C 1339.37 386.20, 1353.30 386.20, 1353.30 386.20" class="edge-path" stroke-width="1" fill="none" marker-end="url(#arrow_point)"/>
      </g>
      <g class="edge" id="edge-L-B2-D2-0">
        <path d="M 1519.70 498.20 C 1541.83 498.20, 1563.97 498.20, 1575.03 465.27 C 1586.10 432.33, 1586.10 366.47, 1597.17 333.53 C 1630.37 300.60, 1652.50 300.60, 1652.50 300.60" class="edge-path" stroke-width="1" marker-end="url(#arrow_point)" fill="none"/>
      </g>
      <g class="edge" id="edge-L-B2-M2-0">
        <path d="M 1519.70 498.20 C 1545.83 498.20, 1571.97 498.20, 1585.03 499.87 C 1598.10 501.53, 1598.10 504.87, 1611.17 506.53 C 1650.37 508.20, 1676.50 508.20, 1676.50 508.20" class="edge-path" fill="none" stroke-width="1" marker-end="url(#arrow_point)"/>
      </g>
      <g class="edge" id="edge-L-B3-D3-0">
        <path d="M 1842.90 620.20 C 1865.03 620.20, 1887.17 620.20, 1898.23 575.93 C 1909.30 531.67, 1909.30 443.13, 1920.37 398.87 C 1953.57 354.60, 1975.70 354.60, 1975.70 354.60" class="edge-path" fill="none" marker-end="url(#arrow_point)" stroke-width="1"/>
      </g>
      <g class="edge" id="edge-L-B3-M3-0">
        <path d="M 1842.90 620.20 C 1869.03 620.20, 1895.17 620.20, 1908.23 621.87 C 1921.30 623.53, 1921.30 626.87, 1934.37 628.53 C 1973.57 630.20, 1999.70 630.20, 1999.70 630.20" class="edge-path" stroke-width="1" marker-end="url(#arrow_point)" fill="none"/>
      </g>
      <g class="edge" id="edge-L-D1-D2-0">
        <path d="M 1572.50 246.60 C 1585.83 246.60, 1599.17 246.60, 1605.83 255.60 C 1612.50 264.60, 1612.50 282.60, 1619.17 291.60 C 1639.17 300.60, 1652.50 300.60, 1652.50 300.60" class="edge-path" stroke-dasharray="3,3" fill="none" stroke-width="2" marker-end="url(#arrow_point)"/>
      </g>
      <g class="edge" id="edge-L-D2-D3-0">
        <path d="M 1895.70 300.60 C 1909.03 300.60, 1922.37 300.60, 1929.03 309.60 C 1935.70 318.60, 1935.70 336.60, 1942.37 345.60 C 1962.37 354.60, 1975.70 354.60, 1975.70 354.60" class="edge-path" stroke-width="2" stroke-dasharray="3,3" fill="none" marker-end="url(#arrow_point)"/>
      </g>
      <g class="edge" id="edge-L-S1-SB1-0">
        <path d="M 47.749999999999915 361.35 L 97.74999999999989 361.35" class="edge-path" marker-end="url(#arrow_point)" fill="none" stroke-width="1"/>
      </g>
      <g class="edge" id="edge-L-S2-SB2-0">
        <path d="M 716.15 507.55 C 735.88 507.55, 755.62 507.55, 765.48 477.63 C 775.35 447.72, 775.35 387.88, 785.22 357.97 C 814.82 328.05, 834.55 328.05, 834.55 328.05" class="edge-path" marker-end="url(#arrow_point)" stroke-width="1" fill="none"/>
      </g>
      <g class="edge" id="edge-L-S3-SB3-0">
        <path d="M 730.55 715.35 C 747.88 715.35, 765.22 715.35, 773.88 702.05 C 782.55 688.75, 782.55 662.15, 791.22 648.85 C 817.22 635.55, 834.55 635.55, 834.55 635.55" class="edge-path" marker-end="url(#arrow_point)" stroke-width="1" fill="none"/>
      </g>
      <g class="edge" id="edge-L-SB1-CACHE-0">
        <path d="M 235.35 361.35 C 243.68 361.35, 252.02 361.35, 256.18 344.60 C 260.35 327.85, 260.35 294.35, 264.52 277.60 C 277.02 260.85, 285.35 260.85, 285.35 260.85" class="edge-path" stroke-width="1" fill="none" marker-end="url(#arrow_point)"/>
      </g>
      <g class="edge" id="edge-L-SB2-CACHE-0">
        <path d="M 972.15 328.05 C 857.68 328.05, 743.22 328.05, 685.98 316.85 C 628.75 305.65, 628.75 283.25, 571.52 272.05 C 399.82 260.85, 285.35 260.85, 285.35 260.85" class="edge-path" marker-end="url(#arrow_point)" fill="none" stroke-width="1"/>
      </g>
      <g class="edge" id="edge-L-SB3-CACHE-0">
        <path d="M 972.15 635.55 C 857.68 635.55, 743.22 635.55, 685.98 573.10 C 628.75 510.65, 628.75 385.75, 571.52 323.30 C 399.82 260.85, 285.35 260.85, 285.35 260.85" class="edge-path" stroke-width="1" marker-end="url(#arrow_point)" fill="none"/>
      </g>
      <g class="edge" id="edge-L-CACHE-SD-0">
        <path d="M 470.95 260.85 C 479.28 260.85, 487.62 260.85, 491.78 278.70 C 495.95 296.55, 495.95 332.25, 500.12 350.10 C 512.62 367.95, 520.95 367.95, 520.95 367.95" class="edge-path" stroke-width="1" marker-end="url(#arrow_point)" fill="none"/>
      </g>
      <g class="edge" id="edge-L-SB1-SM1-0">
        <path d="M 235.35 361.35 C 247.68 361.35, 260.02 361.35, 266.18 376.87 C 272.35 392.38, 272.35 423.42, 278.52 438.93 C 297.02 454.45, 309.35 454.45, 309.35 454.45" class="edge-path" fill="none" stroke-width="1" marker-end="url(#arrow_point)"/>
      </g>
      <g class="edge" id="edge-L-SB2-SM2-0">
        <path d="M 972.1500000000001 328.05 L 1022.15 328.05" class="edge-path" stroke-width="1" fill="none" marker-end="url(#arrow_point)"/>
      </g>
      <g class="edge" id="edge-L-SB3-SM3-0">
        <path d="M 972.1500000000001 635.5500000000001 L 1022.15 635.5500000000001" class="edge-path" fill="none" stroke-width="1" marker-end="url(#arrow_point)"/>
      </g>
      <g class="edge" id="edge-L-SD-SB1-0">
        <path d="M 754.55 367.95 C 645.08 367.95, 535.62 367.95, 480.88 366.85 C 426.15 365.75, 426.15 363.55, 371.42 362.45 C 207.22 361.35, 97.75 361.35, 97.75 361.35" class="edge-path" fill="none" stroke-dasharray="3,3" stroke-width="2" marker-end="url(#arrow_point)"/>
      </g>
      <g class="edge" id="edge-L-SD-SB2-0">
        <path d="M 754.55 367.95 C 767.88 367.95, 781.22 367.95, 787.88 361.30 C 794.55 354.65, 794.55 341.35, 801.22 334.70 C 821.22 328.05, 834.55 328.05, 834.55 328.05" class="edge-path" marker-end="url(#arrow_point)" stroke-width="2" stroke-dasharray="3,3" fill="none"/>
      </g>
      <g class="edge" id="edge-L-SD-SB3-0">
        <path d="M 754.55 367.95 C 767.88 367.95, 781.22 367.95, 787.88 412.55 C 794.55 457.15, 794.55 546.35, 801.22 590.95 C 821.22 635.55, 834.55 635.55, 834.55 635.55" class="edge-path" stroke-dasharray="3,3" stroke-width="2" fill="none" marker-end="url(#arrow_point)"/>
      </g>
    </g>
    <g class="edgeLabels">
      <g class="edgeLabel" id="edge-label-L-D1-D2-0">
        <rect x="1576.1" y="262.60000000000014" width="72.8" height="22" class="edge-label-bg"/>
        <text x="1612.5" y="273.60000000000014" class="edge-label" dominant-baseline="central" text-anchor="middle">redundant</text>
      </g>
      <g class="edgeLabel" id="edge-label-L-D2-D3-0">
        <rect x="1899.2999999999997" y="316.60000000000025" width="72.8" height="22" class="edge-label-bg"/>
        <text x="1935.6999999999998" y="327.60000000000025" class="edge-label" text-anchor="middle" dominant-baseline="central">redundant</text>
      </g>
      <g class="edgeLabel" id="edge-label-L-SD-SB1-0">
        <rect x="389.74999999999994" y="353.65000000000003" width="72.8" height="22" class="edge-label-bg"/>
        <text x="426.1499999999999" y="364.65000000000003" class="edge-label" text-anchor="middle" dominant-baseline="central">cache hit</text>
      </g>
      <g class="edgeLabel" id="edge-label-L-SD-SB2-0">
        <rect x="758.15" y="337" width="72.8" height="22" class="edge-label-bg"/>
        <text x="794.55" y="348" class="edge-label" text-anchor="middle" dominant-baseline="central">cache hit</text>
      </g>
      <g class="edgeLabel" id="edge-label-L-SD-SB3-0">
        <rect x="758.15" y="490.7500000000001" width="72.8" height="22" class="edge-label-bg"/>
        <text x="794.55" y="501.7500000000001" class="edge-label" text-anchor="middle" dominant-baseline="central">cache hit</text>
      </g>
    </g>
    <g class="nodes">
      <g class="node" id="node-B1">
        <rect x="1132.1" y="290.0000000000001" width="137.6" height="52.8"/>
        <text x="1200.8999999999999" y="316.4000000000001" class="label" text-anchor="middle" dominant-baseline="central">cargo build</text>
      </g>
      <g class="node" id="node-B2">
        <rect x="1382.1" y="471.8000000000002" width="137.6" height="52.8"/>
        <text x="1450.8999999999999" y="498.20000000000016" class="label" text-anchor="middle" dominant-baseline="central">cargo build</text>
      </g>
      <g class="node" id="node-B3">
        <rect x="1705.3" y="593.8000000000002" width="137.6" height="52.8"/>
        <text x="1774.1" y="620.2000000000002" class="label" dominant-baseline="central" text-anchor="middle">cargo build</text>
      </g>
      <g class="node" id="node-CACHE">
        <rect x="285.34999999999985" y="216.05000000000007" width="185.6" height="89.6" style="fill:#90EE90 !important"/>
        <text x="378.14999999999986" y="260.8500000000001" class="label" text-anchor="middle" dominant-baseline="central" style="fill: #000000"><tspan x="378.14999999999986" y="260.8500000000001" dy="-0.6em">Shared sccache</tspan><tspan x="378.14999999999986" dy="1.2em">~/.cache/sccache</tspan></text>
      </g>
      <g class="node" id="node-D1">
        <rect x="1329.3" y="183.40000000000015" width="243.2" height="126.39999999999999" style="fill:#FFB6C1 !important"/>
        <text x="1450.8999999999999" y="246.60000000000014" class="label" text-anchor="middle" dominant-baseline="central" style="fill: #000000"><tspan x="1450.8999999999999" y="246.60000000000014" dy="-1.2em">Dependencies: 95%</tspan><tspan x="1450.8999999999999" dy="1.2em">tokio, serde, ratatui,</tspan><tspan x="1450.8999999999999" dy="1.2em">selkie, resvg, etc.</tspan></text>
      </g>
      <g class="node" id="node-D2">
        <rect x="1652.5" y="237.40000000000015" width="243.2" height="126.39999999999999" style="fill:#FFB6C1 !important"/>
        <text x="1774.1" y="300.60000000000014" class="label" dominant-baseline="central" style="fill: #000000" text-anchor="middle"><tspan x="1774.1" y="300.60000000000014" dy="-1.2em">Dependencies: 95%</tspan><tspan x="1774.1" dy="1.2em">tokio, serde, ratatui,</tspan><tspan x="1774.1" dy="1.2em">selkie, resvg, etc.</tspan></text>
      </g>
      <g class="node" id="node-D3">
        <rect x="1975.6999999999998" y="291.40000000000015" width="243.2" height="126.39999999999999" style="fill:#FFB6C1 !important"/>
        <text x="2097.2999999999997" y="354.60000000000014" class="label" style="fill: #000000" text-anchor="middle" dominant-baseline="central"><tspan x="2097.2999999999997" y="354.60000000000014" dy="-1.2em">Dependencies: 95%</tspan><tspan x="2097.2999999999997" dy="1.2em">tokio, serde, ratatui,</tspan><tspan x="2097.2999999999997" dy="1.2em">selkie, resvg, etc.</tspan></text>
      </g>
      <g class="node" id="node-M1">
        <rect x="1353.3" y="359.8000000000001" width="195.2" height="52.8"/>
        <text x="1450.8999999999999" y="386.2000000000001" class="label" text-anchor="middle" dominant-baseline="central">midtown crate: 5%</text>
      </g>
      <g class="node" id="node-M2">
        <rect x="1676.5" y="481.8000000000002" width="195.2" height="52.8"/>
        <text x="1774.1" y="508.20000000000016" class="label" text-anchor="middle" dominant-baseline="central">midtown crate: 5%</text>
      </g>
      <g class="node" id="node-M3">
        <rect x="1999.6999999999998" y="603.8000000000002" width="195.2" height="52.8"/>
        <text x="2097.2999999999997" y="630.2000000000002" class="label" text-anchor="middle" dominant-baseline="central">midtown crate: 5%</text>
      </g>
      <g class="node" id="node-RESULT">
        <rect x="2093.8999999999996" y="25.00000000000007" width="300" height="89.6" style="fill:#FFD700 !important"/>
        <text x="2243.8999999999996" y="69.80000000000007" class="label" text-anchor="middle" dominant-baseline="central" style="fill: #000000"><tspan x="2243.8999999999996" y="69.80000000000007" dy="-0.6em">Result: 3x coworkers = 1x deps + 3x delta</tspan><tspan x="2243.8999999999996" dy="1.2em">Same pattern for pnpm, GOMODCACHE, pip cache</tspan></text>
      </g>
      <g class="node" id="node-S1">
        <rect x="-157.05000000000007" y="316.55" width="204.79999999999998" height="89.6"/>
        <text x="-54.65000000000008" y="361.35" class="label" text-anchor="middle" dominant-baseline="central"><tspan x="-54.65000000000008" y="361.35" dy="-0.6em">Coworker 1</tspan><tspan x="-54.65000000000008" dy="1.2em">lexington worktree</tspan></text>
      </g>
      <g class="node" id="node-S2">
        <rect x="559.3499999999999" y="462.75" width="156.8" height="89.6"/>
        <text x="637.7499999999999" y="507.55" class="label" dominant-baseline="central" text-anchor="middle"><tspan x="637.7499999999999" y="507.55" dy="-0.6em">Coworker 2</tspan><tspan x="637.7499999999999" dy="1.2em">park worktree</tspan></text>
      </g>
      <g class="node" id="node-S3">
        <rect x="544.9499999999999" y="670.55" width="185.6" height="89.6"/>
        <text x="637.7499999999999" y="715.3499999999999" class="label" dominant-baseline="central" text-anchor="middle"><tspan x="637.7499999999999" y="715.3499999999999" dy="-0.6em">Coworker 3</tspan><tspan x="637.7499999999999" dy="1.2em">madison worktree</tspan></text>
      </g>
      <g class="node" id="node-SB1">
        <rect x="97.74999999999989" y="334.95000000000005" width="137.6" height="52.8"/>
        <text x="166.5499999999999" y="361.35" class="label" text-anchor="middle" dominant-baseline="central">cargo build</text>
      </g>
      <g class="node" id="node-SB2">
        <rect x="834.5500000000001" y="301.65000000000003" width="137.6" height="52.8"/>
        <text x="903.35" y="328.05" class="label" dominant-baseline="central" text-anchor="middle">cargo build</text>
      </g>
      <g class="node" id="node-SB3">
        <rect x="834.5500000000001" y="609.1500000000001" width="137.6" height="52.8"/>
        <text x="903.35" y="635.5500000000001" class="label" text-anchor="middle" dominant-baseline="central">cargo build</text>
      </g>
      <g class="node" id="node-SD">
        <rect x="520.9499999999999" y="323.15000000000003" width="233.6" height="89.6" style="fill:#90EE90 !important"/>
        <text x="637.7499999999999" y="367.95000000000005" class="label" style="fill: #000000" text-anchor="middle" dominant-baseline="central"><tspan x="637.7499999999999" y="367.95000000000005" dy="-0.6em">Dependencies: 95%</tspan><tspan x="637.7499999999999" dy="1.2em">compiled once, cached</tspan></text>
      </g>
      <g class="node" id="node-SM1">
        <rect x="309.34999999999985" y="428.05000000000007" width="137.6" height="52.8"/>
        <text x="378.14999999999986" y="454.45000000000005" class="label" text-anchor="middle" dominant-baseline="central">midtown: 5%</text>
      </g>
      <g class="node" id="node-SM2">
        <rect x="1022.15" y="301.65000000000003" width="137.6" height="52.8"/>
        <text x="1090.95" y="328.05" class="label" dominant-baseline="central" text-anchor="middle">midtown: 5%</text>
      </g>
      <g class="node" id="node-SM3">
        <rect x="1022.15" y="609.1500000000001" width="137.6" height="52.8"/>
        <text x="1090.95" y="635.5500000000001" class="label" dominant-baseline="central" text-anchor="middle">midtown: 5%</text>
      </g>
      <g class="node" id="node-W1">
        <rect x="867.6999999999999" y="271.60000000000014" width="204.79999999999998" height="89.6"/>
        <text x="970.0999999999999" y="316.40000000000015" class="label" text-anchor="middle" dominant-baseline="central"><tspan x="970.0999999999999" y="316.40000000000015" dy="-0.6em">Coworker 1</tspan><tspan x="970.0999999999999" dy="1.2em">lexington worktree</tspan></text>
      </g>
      <g class="node" id="node-W2">
        <rect x="1122.5" y="453.40000000000015" width="156.8" height="89.6"/>
        <text x="1200.9" y="498.20000000000016" class="label" text-anchor="middle" dominant-baseline="central"><tspan x="1200.9" y="498.20000000000016" dy="-0.6em">Coworker 2</tspan><tspan x="1200.9" dy="1.2em">park worktree</tspan></text>
      </g>
      <g class="node" id="node-W3">
        <rect x="1358.1" y="575.4000000000001" width="185.6" height="89.6"/>
        <text x="1450.8999999999999" y="620.2" class="label" dominant-baseline="central" text-anchor="middle"><tspan x="1450.8999999999999" y="620.2" dy="-0.6em">Coworker 3</tspan><tspan x="1450.8999999999999" dy="1.2em">madison worktree</tspan></text>
      </g>
    </g>
  </g>
</svg>
