<?xml version="1.0" encoding="UTF-8"?>
<svg xmlns="http://www.w3.org/2000/svg" width="1111.7200000000003" height="658.6000000000001" viewBox="-8 -79.40000000000003 1111.7200000000003 658.6000000000001" class="mermaid">
  <style>

.mermaid {
  font-family: trebuchet ms, verdana, arial, sans-serif;
  font-size: 16px;
}

.node rect,
.node polygon,
.node circle,
.node ellipse,
.node path {
  fill: #ECECFF;
  stroke: #9370DB;
  stroke-width: 1px;
}

.node line {
  stroke: #9370DB;
  stroke-width: 1px;
}

.node .label {
  fill: #333333;
}

.node text {
  fill: #333333;
  font-family: trebuchet ms, verdana, arial, sans-serif;
  font-size: 16px;
}

.edge-path {
  fill: none;
  stroke: #333333;
  stroke-width: 1px;
}

.edge-label {
  fill: #333333;
  font-family: trebuchet ms, verdana, arial, sans-serif;
}

.edge-label-bg {
  fill: rgba(232, 232, 232, 0.8);
}

.subgraph {
  fill: #ffffde;
  stroke: #aaaa33;
  stroke-width: 1px;
}

.subgraph-title {
  fill: #333333;
  font-weight: bold;
}

.cluster rect {
  fill: #ffffde;
  stroke: #aaaa33;
  stroke-width: 1px;
  rx: 5px;
  ry: 5px;
}

.cluster-label {
  fill: #333333;
  font-family: trebuchet ms, verdana, arial, sans-serif;
  font-size: 16px;
  font-weight: bold;
}

marker path {
  fill: #333333;
  stroke: #333333;
}

  </style>
  <defs>
    <marker id="arrow_point" viewBox="0 0 10 10" refX="10" refY="5" markerWidth="8" markerHeight="8" orient="auto" markerUnits="userSpaceOnUse">
      <path d="M 0 0 L 10 5 L 0 10 z"/>
    </marker>
    <marker id="arrow_point_start" viewBox="0 0 10 10" refX="4.5" refY="5" markerWidth="8" markerHeight="8" orient="auto" markerUnits="userSpaceOnUse">
      <path d="M 0 5 L 10 10 L 10 0 z"/>
    </marker>
    <marker id="arrow_cross" viewBox="0 0 11 11" refX="12" refY="5.2" markerWidth="11" markerHeight="11" orient="auto" markerUnits="userSpaceOnUse">
      <path d="M 1 1 L 10 10 M 10 1 L 1 10" stroke-width="2" fill="none"/>
    </marker>
    <marker id="arrow_cross_start" viewBox="0 0 11 11" refX="-1" refY="5.2" markerWidth="11" markerHeight="11" orient="auto" markerUnits="userSpaceOnUse">
      <path d="M 1 1 L 10 10 M 10 1 L 1 10" stroke-width="2" fill="none"/>
    </marker>
    <marker id="arrow_circle" viewBox="0 0 10 10" refX="11" refY="5" markerWidth="11" markerHeight="11" orient="auto" markerUnits="userSpaceOnUse">
      <circle cx="5" cy="5" r="5"/>
    </marker>
    <marker id="arrow_circle_start" viewBox="0 0 10 10" refX="-1" refY="5" markerWidth="11" markerHeight="11" orient="auto" markerUnits="userSpaceOnUse">
      <circle cx="5" cy="5" r="5"/>
    </marker>
  </defs>
  <g class="root">
    <g class="clusters">
      <g class="subgraph" id="subgraph-A">
        <rect x="112.39999999999992" y="-71.40000000000003" width="558.4000000000001" height="382.20000000000005" class="cluster"/>
        <text x="391.59999999999997" y="-55.400000000000034" class="cluster-label" text-anchor="middle">A</text>
      </g>
    </g>
    <g class="edgePaths">
      <g class="edge" id="edge-L-sq-ci-0">
        <path d="M 1134.52 158.60 C 1134.52 193.87, 1134.52 229.13, 1047.05 252.60 C 959.57 276.07, 784.63 287.73, 758.62 312.28 C 855.54 374.24, 978.47 411.66, 978.47 411.66" class="edge-path" stroke-width="1" fill="none" marker-end="url(#arrow_point)"/>
      </g>
      <g class="edge" id="edge-L-od-ro-0">
        <path d="M 304.72 264.40 C 335.47 264.40, 366.21 264.40, 381.59 233.80 C 396.96 203.20, 396.96 142.00, 412.33 111.40 C 458.45 80.80, 489.20 80.80, 489.20 80.80" class="edge-path" fill="none" stroke-width="1" marker-end="url(#arrow_point)"/>
      </g>
      <g class="edge" id="edge-L-di-ro-0">
        <path d="M 346.79999999999995 80.79999999999997 L 489.1999999999999 80.79999999999997" class="edge-path" stroke-width="2" fill="none" stroke-dasharray="3,3" marker-end="url(#arrow_point)"/>
      </g>
      <g class="edge" id="edge-L-di-ro2-0">
        <path d="M 346.80 80.80 C 360.13 80.80, 373.47 80.80, 380.13 108.07 C 386.80 135.33, 386.80 189.87, 393.47 217.13 C 413.47 244.40, 426.80 244.40, 426.80 244.40" class="edge-path" stroke-width="3.5" marker-end="url(#arrow_point)" fill="none"/>
      </g>
      <g class="edge" id="edge-L-e-od3-0">
        <path d="M 870.67 207.61 C 858.15 226.54, 845.64 245.47, 732.07 260.77 C 618.51 276.07, 403.89 287.73, 343.34 307.80 C 376.31 356.33, 469.83 384.80, 469.83 384.80" class="edge-path" stroke-width="1" marker-end="url(#arrow_point)" fill="none"/>
      </g>
      <g class="edge" id="edge-L-e-f-0">
        <path d="M 974.00 205.08 C 988.51 224.86, 1003.01 244.63, 914.63 260.35 C 826.24 276.07, 634.96 287.73, 601.54 312.51 C 692.56 375.16, 817.00 413.04, 817.00 413.04" class="edge-path" marker-end="url(#arrow_point)" stroke-width="1" fill="none"/>
      </g>
      <g class="edge" id="edge-L-cyr-cyr2-0">
        <path d="M 725.72 158.60 C 725.72 193.87, 725.72 229.13, 604.77 252.60 C 483.81 276.07, 241.91 287.73, 159.88 309.32 C 155.70 362.40, 233.55 393.89, 233.55 393.89" class="edge-path" fill="none" stroke-width="1" marker-end="url(#arrow_point)"/>
      </g>
    </g>
    <g class="edgeLabels">
      <g class="edgeLabel" id="edge-label-L-od-ro-0">
        <rect x="349.75999999999993" y="152.6" width="94.39999999999999" height="40" class="edge-label-bg"/>
        <text x="396.9599999999999" y="172.6" class="edge-label" dominant-baseline="central" text-anchor="middle"><tspan x="396.9599999999999" y="172.6" dy="-0.6em">Two line</tspan><tspan x="396.9599999999999" dy="1.2em">edge comment</tspan></text>
      </g>
    </g>
    <g class="nodes">
      <g class="node" id="node-ci">
        <circle cx="1037.3999999999999" cy="429.6" r="61.599999999999994"/>
        <text x="1037.3999999999999" y="429.6" class="label" text-anchor="middle" dominant-baseline="central">Circle shape</text>
      </g>
      <g class="node" id="node-cyr">
        <rect x="671.3199999999999" y="105.79999999999998" width="108.8" height="52.8"/>
        <text x="725.7199999999999" y="132.2" class="label" text-anchor="middle" dominant-baseline="central">Cyrillic</text>
      </g>
      <g class="node" id="node-cyr2">
        <circle cx="321.79999999999995" cy="429.59999999999997" r="95.2"/>
        <text x="321.79999999999995" y="429.59999999999997" class="label" dominant-baseline="central" text-anchor="middle">Circle shape Начало</text>
      </g>
      <g class="node" id="node-di">
        <polygon points="239.5999999999999,-26.400000000000034 346.79999999999995,80.79999999999997 239.5999999999999,187.99999999999997 132.39999999999992,80.79999999999997" style="fill:#f96 !important;stroke:#333 !important;stroke-width:4px !important"/>
        <text x="239.5999999999999" y="80.79999999999997" class="label" text-anchor="middle" dominant-baseline="central" style="fill: #ffffff"><tspan x="239.5999999999999" y="80.79999999999997" dy="-0.6em">Diamond with </tspan><tspan x="239.5999999999999" dy="1.2em"> line break</tspan></text>
      </g>
      <g class="node" id="node-e">
        <circle cx="920.52" cy="132.2" r="90.39999999999999" style="fill:#9f6 !important;stroke:#333 !important;stroke-width:2px !important"/>
        <text x="920.52" y="132.2" class="label" style="fill: #000000" text-anchor="middle" dominant-baseline="central"><tspan x="920.52" y="132.2" dy="-1.2em">Inner / circle</tspan><tspan x="920.52" dy="1.2em">and some odd </tspan><tspan x="920.52" dy="1.2em">special characters</tspan></text>
      </g>
      <g class="node" id="node-f">
        <path d="M 821.9999999999999 403.2 H 920.7999999999998 A 5 5 0 0 1 925.7999999999998 408.2 V 451 A 5 5 0 0 1 920.7999999999998 456 H 821.9999999999999 A 5 5 0 0 1 816.9999999999999 451 V 408.2 A 5 5 0 0 1 821.9999999999999 403.2 Z"/>
        <text x="871.3999999999999" y="429.59999999999997" class="label" text-anchor="middle" dominant-baseline="central">,.?!+-*ز</text>
      </g>
      <g class="node" id="node-od">
        <path d="M 174.4799999999999 238 L 304.7199999999999 238 L 285.1839999999999 264.4 L 304.7199999999999 290.8 L 174.4799999999999 290.8 Z"/>
        <text x="239.5999999999999" y="264.4" class="label" text-anchor="middle" dominant-baseline="central">Odd shape</text>
      </g>
      <g class="node" id="node-od3">
        <path d="M 467 384.79999999999995 L 767 384.79999999999995 L 722 429.59999999999997 L 767 474.4 L 467 474.4 Z"/>
        <text x="617" y="429.59999999999997" class="label" text-anchor="middle" dominant-baseline="central"><tspan x="617" y="429.59999999999997" dy="-0.6em">Really long text with linebreak</tspan><tspan x="617" dy="1.2em">in an Odd shape</tspan></text>
      </g>
      <g class="node" id="node-ro">
        <path d="M 494.1999999999999 17.599999999999973 H 583.3999999999999 A 5 5 0 0 1 588.3999999999999 22.599999999999973 V 138.99999999999997 A 5 5 0 0 1 583.3999999999999 143.99999999999997 H 494.1999999999999 A 5 5 0 0 1 489.1999999999999 138.99999999999997 V 22.599999999999973 A 5 5 0 0 1 494.1999999999999 17.599999999999973 Z"/>
        <text x="538.7999999999998" y="80.79999999999997" class="label" text-anchor="middle" dominant-baseline="central"><tspan x="538.7999999999998" y="80.79999999999997" dy="-1.2em">Rounded</tspan><tspan x="538.7999999999998" dy="1.2em">square</tspan><tspan x="538.7999999999998" dy="1.2em">shape</tspan></text>
      </g>
      <g class="node" id="node-ro2">
        <path d="M 431.7999999999999 217.99999999999997 H 645.8 A 5 5 0 0 1 650.8 222.99999999999997 V 265.79999999999995 A 5 5 0 0 1 645.8 270.79999999999995 H 431.7999999999999 A 5 5 0 0 1 426.7999999999999 265.79999999999995 V 222.99999999999997 A 5 5 0 0 1 431.7999999999999 217.99999999999997 Z"/>
        <text x="538.8" y="244.39999999999998" class="label" text-anchor="middle" dominant-baseline="central">Rounded square shape</text>
      </g>
      <g class="node" id="node-sq">
        <rect x="1060.92" y="105.79999999999998" width="147.2" height="52.8" style="fill:#9f6 !important;stroke:#333 !important;stroke-width:2px !important"/>
        <text x="1134.52" y="132.2" class="label" dominant-baseline="central" style="fill: #000000" text-anchor="middle">Square shape</text>
      </g>
    </g>
  </g>
</svg>
