<?xml version="1.0" encoding="UTF-8"?>
<svg xmlns="http://www.w3.org/2000/svg" width="1680" height="470" viewBox="0 0 1680 470" class="mermaid">
  <style>

.journey-title {
  font-family: trebuchet ms, verdana, arial, sans-serif;
}
.journey-section text {
  font-family: trebuchet ms, verdana, arial, sans-serif;
}
.task {
  cursor: pointer;
}
.task-line {
  stroke: #666;
  stroke-width: 1px;
  stroke-dasharray: 4 2;
}
.face {
  fill: white;
  stroke: #666;
}
.mouth {
  stroke: #666;
}
.legend {
  font-family: trebuchet ms, verdana, arial, sans-serif;
}
.label {
  font-family: trebuchet ms, verdana, arial, sans-serif;
  font-size: 14px;
}
.activity-line {
  fill: none;
}

.section-type-0 {
  fill: #191970;
}
.task-type-0 {
  fill: #191970;
}

.section-type-1 {
  fill: #8B008B;
}
.task-type-1 {
  fill: #8B008B;
}

.section-type-2 {
  fill: #4B0082;
}
.task-type-2 {
  fill: #4B0082;
}

.section-type-3 {
  fill: #2F4F4F;
}
.task-type-3 {
  fill: #2F4F4F;
}

.section-type-4 {
  fill: #800000;
}
.task-type-4 {
  fill: #800000;
}

.section-type-5 {
  fill: #8B4513;
}
.task-type-5 {
  fill: #8B4513;
}

.section-type-6 {
  fill: #00008B;
}
.task-type-6 {
  fill: #00008B;
}


.actor-0 {
  fill: #8FBC8F;
}

.actor-1 {
  fill: #7CFC00;
}

.actor-2 {
  fill: #00FFFF;
}

.actor-3 {
  fill: #20B2AA;
}

.actor-4 {
  fill: #B0E0E6;
}

.actor-5 {
  fill: #FFFFE0;
}


  </style>
  <defs>
    <defs>
    <marker id="arrowhead" refX="5" refY="2" markerWidth="6" markerHeight="4" orient="auto">
      <path d="M 0,0 V 4 L6,2 Z"/>
    </marker>
  </defs>
  </defs>
  <g class="root">
    <g class="clusters">

    </g>
    <g class="edgePaths">
      <line x1="150" y1="250" x2="1576" y2="250" class="activity-line" stroke="black" stroke-width="4" marker-end="url(#arrowhead)"/>
    </g>
    <g class="edgeLabels">

    </g>
    <g class="nodes">
      <g class="actor-legend">
        <circle cx="20" cy="110" r="7" class="actor-0" stroke="#000" fill="#8FBC8F"/>
        <text x="40" y="115" class="legend" fill="#666" font-size="14px">Courier</text>
        <circle cx="20" cy="135" r="7" class="actor-1" stroke="#000" fill="#7CFC00"/>
        <text x="40" y="140" class="legend" font-size="14px" fill="#666">Customer</text>
        <circle cx="20" cy="160" r="7" class="actor-2" stroke="#000" fill="#00FFFF"/>
        <text x="40" y="165" class="legend" fill="#666" font-size="14px">Payment System</text>
        <circle cx="20" cy="185" r="7" class="actor-3" fill="#20B2AA" stroke="#000"/>
        <text x="40" y="190" class="legend" fill="#666" font-size="14px">System</text>
        <circle cx="20" cy="210" r="7" class="actor-4" fill="#B0E0E6" stroke="#000"/>
        <text x="40" y="215" class="legend" fill="#666" font-size="14px">Warehouse</text>
      </g>
      <text x="150" y="25" class="journey-title" fill="#333333" font-size="24px" font-weight="bold">Online Shopping Experience</text>
      <g class="journey-sections">
        <g>
          <rect x="150" y="100" width="470" height="50" rx="3" ry="3" class="journey-section section-type-0" fill="#191970"/>
          <text x="385" y="130" class="journey-section section-type-0" font-size="14px" fill="#fff" text-anchor="middle">Discovery</text>
        </g>
        <g>
          <rect x="630" y="100" width="470" height="50" rx="3" ry="3" class="journey-section section-type-1" fill="#8B008B"/>
          <text x="865" y="130" class="journey-section section-type-1" text-anchor="middle" fill="#fff" font-size="14px">Purchase</text>
        </g>
        <g>
          <rect x="1110" y="100" width="470" height="50" rx="3" ry="3" class="journey-section section-type-2" fill="#4B0082"/>
          <text x="1345" y="130" class="journey-section section-type-2" fill="#fff" font-size="14px" text-anchor="middle">Fulfillment</text>
        </g>
      </g>
      <g class="journey-tasks">
        <g class="task-group task-0" id="task0">
          <line x1="225" y1="150" x2="225" y2="450" class="task-line" stroke-width="1" stroke-dasharray="4 2" stroke="#666"/>
          <g class="face-group">
            <circle cx="225" cy="330" r="15" class="face" stroke-width="2" overflow="visible"/>
            <circle cx="220" cy="325" r="1.5" stroke="#666" fill="#666" stroke-width="2"/>
            <circle cx="230" cy="325" r="1.5" stroke-width="2" stroke="#666" fill="#666"/>
            <path d="M 217.5 332 A 7.5,6.8181818181818175 0 0,0 232.5,332" class="mouth" fill="none" stroke="#666" stroke-width="2"/>
          </g>
          <rect x="150" y="150" width="150" height="50" rx="3" ry="3" class="task task-type-0" fill="#191970"/>
          <circle cx="164" cy="150" r="7" class="actor-1" stroke="#000" fill="#7CFC00" title="Customer"/>
          <foreignObject x="150" y="150" width="150" height="50"><div xmlns="http://www.w3.org/1999/xhtml" style="display:table;height:100%;width:100%;"><div class="label" style="display:table-cell;text-align:center;vertical-align:middle;color:#fff;">Search for product</div></div></foreignObject>
        </g>
        <g class="task-group task-1" id="task1">
          <line x1="385" y1="150" x2="385" y2="450" class="task-line" stroke-width="1" stroke="#666" stroke-dasharray="4 2"/>
          <g class="face-group">
            <circle cx="385" cy="360" r="15" class="face" overflow="visible" stroke-width="2"/>
            <circle cx="380" cy="355" r="1.5" fill="#666" stroke-width="2" stroke="#666"/>
            <circle cx="390" cy="355" r="1.5" fill="#666" stroke="#666" stroke-width="2"/>
            <line x1="380" y1="367" x2="390" y2="367" class="mouth" stroke-width="1" stroke="#666"/>
          </g>
          <rect x="310" y="150" width="150" height="50" rx="3" ry="3" class="task task-type-0" fill="#191970"/>
          <circle cx="324" cy="150" r="7" class="actor-1" fill="#7CFC00" stroke="#000" title="Customer"/>
          <foreignObject x="310" y="150" width="150" height="50"><div xmlns="http://www.w3.org/1999/xhtml" style="display:table;height:100%;width:100%;"><div class="label" style="display:table-cell;text-align:center;vertical-align:middle;color:#fff;">Browse recommendations</div></div></foreignObject>
        </g>
        <g class="task-group task-2" id="task2">
          <line x1="545" y1="150" x2="545" y2="450" class="task-line" stroke-dasharray="4 2" stroke="#666" stroke-width="1"/>
          <g class="face-group">
            <circle cx="545" cy="300" r="15" class="face" overflow="visible" stroke-width="2"/>
            <circle cx="540" cy="295" r="1.5" stroke="#666" stroke-width="2" fill="#666"/>
            <circle cx="550" cy="295" r="1.5" stroke-width="2" fill="#666" stroke="#666"/>
            <path d="M 537.5 302 A 7.5,6.8181818181818175 0 0,0 552.5,302" class="mouth" stroke="#666" fill="none" stroke-width="2"/>
          </g>
          <rect x="470" y="150" width="150" height="50" rx="3" ry="3" class="task task-type-0" fill="#191970"/>
          <circle cx="484" cy="150" r="7" class="actor-1" fill="#7CFC00" stroke="#000" title="Customer"/>
          <foreignObject x="470" y="150" width="150" height="50"><div xmlns="http://www.w3.org/1999/xhtml" style="display:table;height:100%;width:100%;"><div class="label" style="display:table-cell;text-align:center;vertical-align:middle;color:#fff;">Read reviews</div></div></foreignObject>
        </g>
        <g class="task-group task-3" id="task3">
          <line x1="705" y1="150" x2="705" y2="450" class="task-line" stroke-width="1" stroke="#666" stroke-dasharray="4 2"/>
          <g class="face-group">
            <circle cx="705" cy="300" r="15" class="face" overflow="visible" stroke-width="2"/>
            <circle cx="700" cy="295" r="1.5" stroke="#666" stroke-width="2" fill="#666"/>
            <circle cx="710" cy="295" r="1.5" fill="#666" stroke="#666" stroke-width="2"/>
            <path d="M 697.5 302 A 7.5,6.8181818181818175 0 0,0 712.5,302" class="mouth" stroke-width="2" stroke="#666" fill="none"/>
          </g>
          <rect x="630" y="150" width="150" height="50" rx="3" ry="3" class="task task-type-1" fill="#8B008B"/>
          <circle cx="644" cy="150" r="7" class="actor-1" title="Customer" stroke="#000" fill="#7CFC00"/>
          <foreignObject x="630" y="150" width="150" height="50"><div xmlns="http://www.w3.org/1999/xhtml" style="display:table;height:100%;width:100%;"><div class="label" style="display:table-cell;text-align:center;vertical-align:middle;color:#fff;">Add to cart</div></div></foreignObject>
        </g>
        <g class="task-group task-4" id="task4">
          <line x1="865" y1="150" x2="865" y2="450" class="task-line" stroke-dasharray="4 2" stroke="#666" stroke-width="1"/>
          <g class="face-group">
            <circle cx="865" cy="360" r="15" class="face" stroke-width="2" overflow="visible"/>
            <circle cx="860" cy="355" r="1.5" stroke-width="2" stroke="#666" fill="#666"/>
            <circle cx="870" cy="355" r="1.5" fill="#666" stroke="#666" stroke-width="2"/>
            <line x1="860" y1="367" x2="870" y2="367" class="mouth" stroke-width="1" stroke="#666"/>
          </g>
          <rect x="790" y="150" width="150" height="50" rx="3" ry="3" class="task task-type-1" fill="#8B008B"/>
          <circle cx="804" cy="150" r="7" class="actor-1" title="Customer" fill="#7CFC00" stroke="#000"/>
          <foreignObject x="790" y="150" width="150" height="50"><div xmlns="http://www.w3.org/1999/xhtml" style="display:table;height:100%;width:100%;"><div class="label" style="display:table-cell;text-align:center;vertical-align:middle;color:#fff;">Enter shipping details</div></div></foreignObject>
        </g>
        <g class="task-group task-5" id="task5">
          <line x1="1025" y1="150" x2="1025" y2="450" class="task-line" stroke-width="1" stroke-dasharray="4 2" stroke="#666"/>
          <g class="face-group">
            <circle cx="1025" cy="330" r="15" class="face" overflow="visible" stroke-width="2"/>
            <circle cx="1020" cy="325" r="1.5" fill="#666" stroke="#666" stroke-width="2"/>
            <circle cx="1030" cy="325" r="1.5" stroke="#666" stroke-width="2" fill="#666"/>
            <path d="M 1017.5 332 A 7.5,6.8181818181818175 0 0,0 1032.5,332" class="mouth" stroke-width="2" fill="none" stroke="#666"/>
          </g>
          <rect x="950" y="150" width="150" height="50" rx="3" ry="3" class="task task-type-1" fill="#8B008B"/>
          <circle cx="964" cy="150" r="7" class="actor-1" fill="#7CFC00" title="Customer" stroke="#000"/>
          <circle cx="974" cy="150" r="7" class="actor-2" title="Payment System" stroke="#000" fill="#00FFFF"/>
          <foreignObject x="950" y="150" width="150" height="50"><div xmlns="http://www.w3.org/1999/xhtml" style="display:table;height:100%;width:100%;"><div class="label" style="display:table-cell;text-align:center;vertical-align:middle;color:#fff;">Make payment</div></div></foreignObject>
        </g>
        <g class="task-group task-6" id="task6">
          <line x1="1185" y1="150" x2="1185" y2="450" class="task-line" stroke="#666" stroke-width="1" stroke-dasharray="4 2"/>
          <g class="face-group">
            <circle cx="1185" cy="300" r="15" class="face" stroke-width="2" overflow="visible"/>
            <circle cx="1180" cy="295" r="1.5" stroke="#666" stroke-width="2" fill="#666"/>
            <circle cx="1190" cy="295" r="1.5" stroke-width="2" fill="#666" stroke="#666"/>
            <path d="M 1177.5 302 A 7.5,6.8181818181818175 0 0,0 1192.5,302" class="mouth" stroke="#666" stroke-width="2" fill="none"/>
          </g>
          <rect x="1110" y="150" width="150" height="50" rx="3" ry="3" class="task task-type-2" fill="#4B0082"/>
          <circle cx="1124" cy="150" r="7" class="actor-1" title="Customer" fill="#7CFC00" stroke="#000"/>
          <circle cx="1134" cy="150" r="7" class="actor-3" title="System" stroke="#000" fill="#20B2AA"/>
          <foreignObject x="1110" y="150" width="150" height="50"><div xmlns="http://www.w3.org/1999/xhtml" style="display:table;height:100%;width:100%;"><div class="label" style="display:table-cell;text-align:center;vertical-align:middle;color:#fff;">Order confirmed</div></div></foreignObject>
        </g>
        <g class="task-group task-7" id="task7">
          <line x1="1345" y1="150" x2="1345" y2="450" class="task-line" stroke-width="1" stroke-dasharray="4 2" stroke="#666"/>
          <g class="face-group">
            <circle cx="1345" cy="330" r="15" class="face" overflow="visible" stroke-width="2"/>
            <circle cx="1340" cy="325" r="1.5" fill="#666" stroke-width="2" stroke="#666"/>
            <circle cx="1350" cy="325" r="1.5" stroke-width="2" fill="#666" stroke="#666"/>
            <path d="M 1337.5 332 A 7.5,6.8181818181818175 0 0,0 1352.5,332" class="mouth" fill="none" stroke-width="2" stroke="#666"/>
          </g>
          <rect x="1270" y="150" width="150" height="50" rx="3" ry="3" class="task task-type-2" fill="#4B0082"/>
          <circle cx="1284" cy="150" r="7" class="actor-4" stroke="#000" title="Warehouse" fill="#B0E0E6"/>
          <foreignObject x="1270" y="150" width="150" height="50"><div xmlns="http://www.w3.org/1999/xhtml" style="display:table;height:100%;width:100%;"><div class="label" style="display:table-cell;text-align:center;vertical-align:middle;color:#fff;">Package shipped</div></div></foreignObject>
        </g>
        <g class="task-group task-8" id="task8">
          <line x1="1505" y1="150" x2="1505" y2="450" class="task-line" stroke-width="1" stroke-dasharray="4 2" stroke="#666"/>
          <g class="face-group">
            <circle cx="1505" cy="300" r="15" class="face" stroke-width="2" overflow="visible"/>
            <circle cx="1500" cy="295" r="1.5" stroke="#666" fill="#666" stroke-width="2"/>
            <circle cx="1510" cy="295" r="1.5" stroke="#666" stroke-width="2" fill="#666"/>
            <path d="M 1497.5 302 A 7.5,6.8181818181818175 0 0,0 1512.5,302" class="mouth" stroke-width="2" fill="none" stroke="#666"/>
          </g>
          <rect x="1430" y="150" width="150" height="50" rx="3" ry="3" class="task task-type-2" fill="#4B0082"/>
          <circle cx="1444" cy="150" r="7" class="actor-1" fill="#7CFC00" title="Customer" stroke="#000"/>
          <circle cx="1454" cy="150" r="7" class="actor-0" stroke="#000" title="Courier" fill="#8FBC8F"/>
          <foreignObject x="1430" y="150" width="150" height="50"><div xmlns="http://www.w3.org/1999/xhtml" style="display:table;height:100%;width:100%;"><div class="label" style="display:table-cell;text-align:center;vertical-align:middle;color:#fff;">Delivery</div></div></foreignObject>
        </g>
      </g>
    </g>
  </g>
</svg>
