<?xml version="1.0" encoding="UTF-8"?>
<svg xmlns="http://www.w3.org/2000/svg" width="2000" height="520" viewBox="0 0 2000 520" class="mermaid">
  <style>

.journey-title {
  font-family: trebuchet ms, verdana, arial, sans-serif;
  fill: #333333;
}
.journey-section text {
  font-family: trebuchet ms, verdana, arial, sans-serif;
}
.task {
  cursor: pointer;
  font-family: trebuchet ms, verdana, arial, sans-serif;
}
.task-line {
  stroke: #666;
  stroke-width: 1px;
  stroke-dasharray: 4 2;
}
.face {
  fill: white;
  stroke: #666;
}
.mouth {
  stroke: #666;
}
.legend {
  font-family: trebuchet ms, verdana, arial, sans-serif;
  font-size: 14px;
}
.label {
  font-family: trebuchet ms, verdana, arial, sans-serif;
}
.activity-line {
  fill: none;
}

.section-type-0 {
  fill: #191970;
}
.task-type-0 {
  fill: #191970;
}

.section-type-1 {
  fill: #8B008B;
}
.task-type-1 {
  fill: #8B008B;
}

.section-type-2 {
  fill: #4B0082;
}
.task-type-2 {
  fill: #4B0082;
}

.section-type-3 {
  fill: #2F4F4F;
}
.task-type-3 {
  fill: #2F4F4F;
}

.section-type-4 {
  fill: #800000;
}
.task-type-4 {
  fill: #800000;
}

.section-type-5 {
  fill: #8B4513;
}
.task-type-5 {
  fill: #8B4513;
}

.section-type-6 {
  fill: #00008B;
}
.task-type-6 {
  fill: #00008B;
}


.actor-0 {
  fill: #8FBC8F;
}

.actor-1 {
  fill: #7CFC00;
}

.actor-2 {
  fill: #00FFFF;
}

.actor-3 {
  fill: #20B2AA;
}

.actor-4 {
  fill: #B0E0E6;
}

.actor-5 {
  fill: #FFFFE0;
}


  </style>
  <defs>
    <marker id="arrowhead" refX="5" refY="2" markerWidth="6" markerHeight="4" orient="auto">
      <path d="M 0,0 V 4 L6,2 Z"/>
    </marker>
  </defs>
  <g class="root">
    <g class="clusters">

    </g>
    <g class="edgePaths">
      <line x1="150" y1="250" x2="1896" y2="250" class="activity-line" stroke="black" stroke-width="4" marker-end="url(#arrowhead)"/>
    </g>
    <g class="edgeLabels">

    </g>
    <g class="nodes">
      <text x="150" y="25" class="journey-title" font-weight="bold" font-size="24px" fill="#333333">Online Shopping Experience</text>
      <g class="actor-legend">
        <circle cx="20" cy="110" r="7" class="actor-0" fill="#8FBC8F" stroke="#000"/>
        <text x="40" y="117" class="legend" fill="#666" text-anchor="start">Courier</text>
        <circle cx="20" cy="135" r="7" class="actor-1" stroke="#000" fill="#7CFC00"/>
        <text x="40" y="142" class="legend" text-anchor="start" fill="#666">Customer</text>
        <circle cx="20" cy="160" r="7" class="actor-2" fill="#00FFFF" stroke="#000"/>
        <text x="40" y="167" class="legend" fill="#666" text-anchor="start">Payment System</text>
        <circle cx="20" cy="185" r="7" class="actor-3" stroke="#000" fill="#20B2AA"/>
        <text x="40" y="192" class="legend" fill="#666" text-anchor="start">System</text>
        <circle cx="20" cy="210" r="7" class="actor-4" stroke="#000" fill="#B0E0E6"/>
        <text x="40" y="217" class="legend" text-anchor="start" fill="#666">Warehouse</text>
      </g>
      <g class="journey-sections">
        <g>
          <rect x="150" y="100" width="550" height="50" rx="3" ry="3" class="journey-section section-type-0" fill="#191970"/>
          <text x="425" y="130" class="journey-section section-type-0" text-anchor="middle" dominant-baseline="middle" fill="#fff">Discovery</text>
        </g>
        <g>
          <rect x="750" y="100" width="550" height="50" rx="3" ry="3" class="journey-section section-type-1" fill="#8B008B"/>
          <text x="1025" y="130" class="journey-section section-type-1" fill="#fff" text-anchor="middle" dominant-baseline="middle">Purchase</text>
        </g>
        <g>
          <rect x="1350" y="100" width="550" height="50" rx="3" ry="3" class="journey-section section-type-2" fill="#4B0082"/>
          <text x="1625" y="130" class="journey-section section-type-2" text-anchor="middle" dominant-baseline="middle" fill="#fff">Fulfillment</text>
        </g>
      </g>
      <g class="journey-tasks">
        <g class="task-group task-0" id="task0">
          <line x1="225" y1="150" x2="225" y2="450" class="task-line" stroke-width="1" stroke-dasharray="4 2" stroke="#666" id="task0"/>
          <g class="face-group">
            <circle cx="225" cy="330" r="15" class="face" overflow="visible" stroke-width="2"/>
            <circle cx="220" cy="325" r="1.5" stroke="#666" fill="#666" stroke-width="2"/>
            <circle cx="230" cy="325" r="1.5" stroke="#666" stroke-width="2" fill="#666"/>
            <path d="M 217.5,332 A 7.5,6.8181818181818175 0 0,0 232.5,332" class="mouth" fill="none" stroke-width="2" stroke="#666"/>
          </g>
          <rect x="150" y="150" width="150" height="50" rx="3" ry="3" class="task task-type-0" fill="#191970"/>
          <g>
            <circle cx="164" cy="150" r="7" class="actor-1" fill="#7CFC00" stroke="#000"/>
            <title>Customer</title>
          </g>
          <text x="225" y="180" class="task" dominant-baseline="middle" font-size="12px" fill="#fff" text-anchor="middle">Search for product</text>
        </g>
        <g class="task-group task-1" id="task1">
          <line x1="425" y1="150" x2="425" y2="450" class="task-line" stroke="#666" stroke-width="1" id="task1" stroke-dasharray="4 2"/>
          <g class="face-group">
            <circle cx="425" cy="360" r="15" class="face" overflow="visible" stroke-width="2"/>
            <circle cx="420" cy="355" r="1.5" stroke="#666" stroke-width="2" fill="#666"/>
            <circle cx="430" cy="355" r="1.5" stroke="#666" stroke-width="2" fill="#666"/>
            <line x1="420" y1="367" x2="430" y2="367" class="mouth" stroke-width="1" stroke="#666"/>
          </g>
          <rect x="350" y="150" width="150" height="50" rx="3" ry="3" class="task task-type-0" fill="#191970"/>
          <g>
            <circle cx="364" cy="150" r="7" class="actor-1" stroke="#000" fill="#7CFC00"/>
            <title>Customer</title>
          </g>
          <text x="425" y="180" class="task" dominant-baseline="middle" fill="#fff" font-size="12px" text-anchor="middle">Browse recommendations</text>
        </g>
        <g class="task-group task-2" id="task2">
          <line x1="625" y1="150" x2="625" y2="450" class="task-line" stroke="#666" stroke-width="1" id="task2" stroke-dasharray="4 2"/>
          <g class="face-group">
            <circle cx="625" cy="300" r="15" class="face" stroke-width="2" overflow="visible"/>
            <circle cx="620" cy="295" r="1.5" fill="#666" stroke-width="2" stroke="#666"/>
            <circle cx="630" cy="295" r="1.5" stroke-width="2" fill="#666" stroke="#666"/>
            <path d="M 617.5,302 A 7.5,6.8181818181818175 0 0,0 632.5,302" class="mouth" stroke="#666" fill="none" stroke-width="2"/>
          </g>
          <rect x="550" y="150" width="150" height="50" rx="3" ry="3" class="task task-type-0" fill="#191970"/>
          <g>
            <circle cx="564" cy="150" r="7" class="actor-1" stroke="#000" fill="#7CFC00"/>
            <title>Customer</title>
          </g>
          <text x="625" y="180" class="task" text-anchor="middle" dominant-baseline="middle" fill="#fff" font-size="12px">Read reviews</text>
        </g>
        <g class="task-group task-3" id="task3">
          <line x1="825" y1="150" x2="825" y2="450" class="task-line" stroke-dasharray="4 2" id="task3" stroke="#666" stroke-width="1"/>
          <g class="face-group">
            <circle cx="825" cy="300" r="15" class="face" stroke-width="2" overflow="visible"/>
            <circle cx="820" cy="295" r="1.5" stroke-width="2" fill="#666" stroke="#666"/>
            <circle cx="830" cy="295" r="1.5" stroke="#666" stroke-width="2" fill="#666"/>
            <path d="M 817.5,302 A 7.5,6.8181818181818175 0 0,0 832.5,302" class="mouth" stroke="#666" stroke-width="2" fill="none"/>
          </g>
          <rect x="750" y="150" width="150" height="50" rx="3" ry="3" class="task task-type-1" fill="#8B008B"/>
          <g>
            <circle cx="764" cy="150" r="7" class="actor-1" stroke="#000" fill="#7CFC00"/>
            <title>Customer</title>
          </g>
          <text x="825" y="180" class="task" fill="#fff" dominant-baseline="middle" text-anchor="middle" font-size="12px">Add to cart</text>
        </g>
        <g class="task-group task-4" id="task4">
          <line x1="1025" y1="150" x2="1025" y2="450" class="task-line" stroke-dasharray="4 2" id="task4" stroke-width="1" stroke="#666"/>
          <g class="face-group">
            <circle cx="1025" cy="360" r="15" class="face" overflow="visible" stroke-width="2"/>
            <circle cx="1020" cy="355" r="1.5" stroke-width="2" fill="#666" stroke="#666"/>
            <circle cx="1030" cy="355" r="1.5" stroke="#666" fill="#666" stroke-width="2"/>
            <line x1="1020" y1="367" x2="1030" y2="367" class="mouth" stroke="#666" stroke-width="1"/>
          </g>
          <rect x="950" y="150" width="150" height="50" rx="3" ry="3" class="task task-type-1" fill="#8B008B"/>
          <g>
            <circle cx="964" cy="150" r="7" class="actor-1" stroke="#000" fill="#7CFC00"/>
            <title>Customer</title>
          </g>
          <text x="1025" y="180" class="task" fill="#fff" font-size="12px" text-anchor="middle" dominant-baseline="middle">Enter shipping details</text>
        </g>
        <g class="task-group task-5" id="task5">
          <line x1="1225" y1="150" x2="1225" y2="450" class="task-line" stroke-dasharray="4 2" stroke="#666" id="task5" stroke-width="1"/>
          <g class="face-group">
            <circle cx="1225" cy="330" r="15" class="face" overflow="visible" stroke-width="2"/>
            <circle cx="1220" cy="325" r="1.5" stroke="#666" stroke-width="2" fill="#666"/>
            <circle cx="1230" cy="325" r="1.5" stroke="#666" stroke-width="2" fill="#666"/>
            <path d="M 1217.5,332 A 7.5,6.8181818181818175 0 0,0 1232.5,332" class="mouth" stroke-width="2" stroke="#666" fill="none"/>
          </g>
          <rect x="1150" y="150" width="150" height="50" rx="3" ry="3" class="task task-type-1" fill="#8B008B"/>
          <g>
            <circle cx="1164" cy="150" r="7" class="actor-1" stroke="#000" fill="#7CFC00"/>
            <title>Customer</title>
          </g>
          <g>
            <circle cx="1174" cy="150" r="7" class="actor-2" fill="#00FFFF" stroke="#000"/>
            <title>Payment System</title>
          </g>
          <text x="1225" y="180" class="task" text-anchor="middle" dominant-baseline="middle" fill="#fff" font-size="12px">Make payment</text>
        </g>
        <g class="task-group task-6" id="task6">
          <line x1="1425" y1="150" x2="1425" y2="450" class="task-line" stroke="#666" id="task6" stroke-width="1" stroke-dasharray="4 2"/>
          <g class="face-group">
            <circle cx="1425" cy="300" r="15" class="face" overflow="visible" stroke-width="2"/>
            <circle cx="1420" cy="295" r="1.5" fill="#666" stroke-width="2" stroke="#666"/>
            <circle cx="1430" cy="295" r="1.5" stroke="#666" fill="#666" stroke-width="2"/>
            <path d="M 1417.5,302 A 7.5,6.8181818181818175 0 0,0 1432.5,302" class="mouth" stroke="#666" stroke-width="2" fill="none"/>
          </g>
          <rect x="1350" y="150" width="150" height="50" rx="3" ry="3" class="task task-type-2" fill="#4B0082"/>
          <g>
            <circle cx="1364" cy="150" r="7" class="actor-1" fill="#7CFC00" stroke="#000"/>
            <title>Customer</title>
          </g>
          <g>
            <circle cx="1374" cy="150" r="7" class="actor-3" fill="#20B2AA" stroke="#000"/>
            <title>System</title>
          </g>
          <text x="1425" y="180" class="task" text-anchor="middle" font-size="12px" dominant-baseline="middle" fill="#fff">Order confirmed</text>
        </g>
        <g class="task-group task-7" id="task7">
          <line x1="1625" y1="150" x2="1625" y2="450" class="task-line" stroke="#666" stroke-width="1" stroke-dasharray="4 2" id="task7"/>
          <g class="face-group">
            <circle cx="1625" cy="330" r="15" class="face" stroke-width="2" overflow="visible"/>
            <circle cx="1620" cy="325" r="1.5" stroke="#666" fill="#666" stroke-width="2"/>
            <circle cx="1630" cy="325" r="1.5" stroke-width="2" stroke="#666" fill="#666"/>
            <path d="M 1617.5,332 A 7.5,6.8181818181818175 0 0,0 1632.5,332" class="mouth" stroke-width="2" stroke="#666" fill="none"/>
          </g>
          <rect x="1550" y="150" width="150" height="50" rx="3" ry="3" class="task task-type-2" fill="#4B0082"/>
          <g>
            <circle cx="1564" cy="150" r="7" class="actor-4" stroke="#000" fill="#B0E0E6"/>
            <title>Warehouse</title>
          </g>
          <text x="1625" y="180" class="task" fill="#fff" text-anchor="middle" dominant-baseline="middle" font-size="12px">Package shipped</text>
        </g>
        <g class="task-group task-8" id="task8">
          <line x1="1825" y1="150" x2="1825" y2="450" class="task-line" stroke="#666" id="task8" stroke-width="1" stroke-dasharray="4 2"/>
          <g class="face-group">
            <circle cx="1825" cy="300" r="15" class="face" overflow="visible" stroke-width="2"/>
            <circle cx="1820" cy="295" r="1.5" stroke-width="2" stroke="#666" fill="#666"/>
            <circle cx="1830" cy="295" r="1.5" stroke-width="2" fill="#666" stroke="#666"/>
            <path d="M 1817.5,302 A 7.5,6.8181818181818175 0 0,0 1832.5,302" class="mouth" stroke="#666" stroke-width="2" fill="none"/>
          </g>
          <rect x="1750" y="150" width="150" height="50" rx="3" ry="3" class="task task-type-2" fill="#4B0082"/>
          <g>
            <circle cx="1764" cy="150" r="7" class="actor-1" fill="#7CFC00" stroke="#000"/>
            <title>Customer</title>
          </g>
          <g>
            <circle cx="1774" cy="150" r="7" class="actor-0" stroke="#000" fill="#8FBC8F"/>
            <title>Courier</title>
          </g>
          <text x="1825" y="180" class="task" text-anchor="middle" fill="#fff" dominant-baseline="middle" font-size="12px">Delivery</text>
        </g>
      </g>
    </g>
  </g>
</svg>
