<?xml version="1.0" encoding="UTF-8"?>
<svg xmlns="http://www.w3.org/2000/svg" width="681.9635231865757" height="554.2437242452008" viewBox="-315.10662092096686 -287.12123332154255 681.9635231865757 554.2437242452008" class="mermaid">
  <style>

.mindmap-node {
  cursor: pointer;
}
.mindmap-node-label {
  font-family: trebuchet ms, verdana, arial, sans-serif;
}
.node-bkg {
  stroke: #333333;
  stroke-width: 1px;
}
.edge {
  fill: none;
  stroke-width: 3px;
}
.icon-container {
  height: 100%;
  display: flex;
  justify-content: center;
  align-items: center;
}
.icon-container i {
  font-size: 40px;
}

.section-root rect, .section-root path, .section-root circle, .section-root polygon {
  fill: hsl(240, 100%, 46.3%);
}
.section-root text {
  fill: #ffffff;
}
.section-edge-root {
  stroke: hsl(240, 100%, 76.3%);
}

.section-0 rect, .section-0 path, .section-0 circle, .section-0 polygon {
  fill: hsl(60, 100%, 73.5%);
}
.section-0 text {
  fill: black;
}
.section-edge-0 {
  stroke: hsl(60, 100%, 73.5%);
}
.edge-depth-0 {
  stroke-width: 17;
}

.section-1 rect, .section-1 path, .section-1 circle, .section-1 polygon {
  fill: hsl(80, 100%, 76.3%);
}
.section-1 text {
  fill: black;
}
.section-edge-1 {
  stroke: hsl(80, 100%, 76.3%);
}
.edge-depth-1 {
  stroke-width: 14;
}

.section-2 rect, .section-2 path, .section-2 circle, .section-2 polygon {
  fill: hsl(270, 100%, 76.3%);
}
.section-2 text {
  fill: #ffffff;
}
.section-edge-2 {
  stroke: hsl(270, 100%, 76.3%);
}
.edge-depth-2 {
  stroke-width: 11;
}

.section-3 rect, .section-3 path, .section-3 circle, .section-3 polygon {
  fill: hsl(300, 100%, 76.3%);
}
.section-3 text {
  fill: black;
}
.section-edge-3 {
  stroke: hsl(300, 100%, 76.3%);
}
.edge-depth-3 {
  stroke-width: 8;
}

.section-4 rect, .section-4 path, .section-4 circle, .section-4 polygon {
  fill: hsl(330, 100%, 76.3%);
}
.section-4 text {
  fill: black;
}
.section-edge-4 {
  stroke: hsl(330, 100%, 76.3%);
}
.edge-depth-4 {
  stroke-width: 5;
}

.section-5 rect, .section-5 path, .section-5 circle, .section-5 polygon {
  fill: hsl(0, 100%, 76.3%);
}
.section-5 text {
  fill: black;
}
.section-edge-5 {
  stroke: hsl(0, 100%, 76.3%);
}
.edge-depth-5 {
  stroke-width: 2;
}

.section-6 rect, .section-6 path, .section-6 circle, .section-6 polygon {
  fill: hsl(30, 100%, 76.3%);
}
.section-6 text {
  fill: black;
}
.section-edge-6 {
  stroke: hsl(30, 100%, 76.3%);
}
.edge-depth-6 {
  stroke-width: -1;
}

.section-7 rect, .section-7 path, .section-7 circle, .section-7 polygon {
  fill: hsl(90, 100%, 76.3%);
}
.section-7 text {
  fill: black;
}
.section-edge-7 {
  stroke: hsl(90, 100%, 76.3%);
}
.edge-depth-7 {
  stroke-width: -4;
}

.section-8 rect, .section-8 path, .section-8 circle, .section-8 polygon {
  fill: hsl(150, 100%, 76.3%);
}
.section-8 text {
  fill: black;
}
.section-edge-8 {
  stroke: hsl(150, 100%, 76.3%);
}
.edge-depth-8 {
  stroke-width: -7;
}

.section-9 rect, .section-9 path, .section-9 circle, .section-9 polygon {
  fill: hsl(180, 100%, 76.3%);
}
.section-9 text {
  fill: black;
}
.section-edge-9 {
  stroke: hsl(180, 100%, 76.3%);
}
.edge-depth-9 {
  stroke-width: -10;
}

.section-10 rect, .section-10 path, .section-10 circle, .section-10 polygon {
  fill: hsl(210, 100%, 76.3%);
}
.section-10 text {
  fill: black;
}
.section-edge-10 {
  stroke: hsl(210, 100%, 76.3%);
}
.edge-depth-10 {
  stroke-width: -13;
}


  </style>
  <g class="root">
    <g class="clusters">

    </g>
    <g class="edgePaths">
      <g class="mindmap-edges">
        <path d="M44.8,8.5 C56.3,13.2 80.2,17.8 92.6,17.7" class="edge section-edge-0 edge-depth-1" fill="none" stroke-width="14"/>
        <path d="M168.6,30.0 C183.8,35.1 214.9,39.3 230.9,38.2" class="edge section-edge-0 edge-depth-2" fill="none" stroke-width="11"/>
        <path d="M-26.8,36.9 C-35.2,44.7 -48.4,62.8 -53.2,73.2" class="edge section-edge-1 edge-depth-1" fill="none" stroke-width="14"/>
        <path d="M-64.8,111.2 C-66.9,136.3 -61.2,185.2 -53.5,209.1" class="edge section-edge-1 edge-depth-2" fill="none" stroke-width="11"/>
        <path d="M-109.0,100.7 C-108.5,100.7 -107.6,100.5 -107.1,100.3" class="edge section-edge-1 edge-depth-2" fill="none" stroke-width="11"/>
        <path d="M24.4,-38.5 C35.9,-50.5 53.3,-77.9 59.2,-93.3" class="edge section-edge-2 edge-depth-1" stroke-width="14" fill="none"/>
        <path d="M73.5,-131.3 C81.4,-155.2 87.2,-204.1 85.3,-229.1" class="edge section-edge-2 edge-depth-2" stroke-width="11" fill="none"/>
        <path d="M101.3,-131.1 C122.3,-139.1 159.8,-162.5 176.2,-178.0" class="edge section-edge-2 edge-depth-2" fill="none" stroke-width="11"/>
      </g>
    </g>
    <g class="edgeLabels">

    </g>
    <g class="nodes">
      <g class="mindmap-nodes">
        <g class="mindmap-node section-root" id="node-mindmap-root" transform="translate(-45.6, -45.6)">
          <circle cx="45.6" cy="45.6" r="45.6" class="node-bkg node-circle"/>
          <text x="45.6" y="45.6" class="mindmap-node-label" text-anchor="middle" font-size="14px" dominant-baseline="middle">mindmap</text>
        </g>
        <g class="mindmap-node section-0" id="node-Origins" transform="translate(92.64420434691559, 5.921714839901373)">
          <path d="M0 33 v-28 q0,-5 5,-5 h66 q5,0 5,5 v33 H0 Z" class="node-bkg node-default"/>
          <line x1="0" y1="38" x2="76" y2="38" class="node-line-0"/>
          <text x="38" y="19" class="mindmap-node-label" text-anchor="middle" dominant-baseline="middle" font-size="14px">Origins</text>
        </g>
        <g class="mindmap-node section-0" id="node-mindmap-node-1" transform="translate(230.85690226560882, 26.91938655102966)">
          <path d="M0 33 v-28 q0,-5 5,-5 h106 q5,0 5,5 v33 H0 Z" class="node-bkg node-default"/>
          <line x1="0" y1="38" x2="116" y2="38" class="node-line-0"/>
          <text x="58" y="19" class="mindmap-node-label" text-anchor="middle" dominant-baseline="middle" font-size="14px">Long history</text>
        </g>
        <g class="mindmap-node section-1" id="node-Research" transform="translate(-109.00751876134193, 73.22793735874401)">
          <path d="M0 33 v-28 q0,-5 5,-5 h74 q5,0 5,5 v33 H0 Z" class="node-bkg node-default"/>
          <line x1="0" y1="38" x2="84" y2="38" class="node-line-1"/>
          <text x="42" y="19" class="mindmap-node-label" text-anchor="middle" dominant-baseline="middle" font-size="14px">Research</text>
        </g>
        <g class="mindmap-node section-1" id="node-mindmap-node-3" transform="translate(-125.29413874962391, 209.12249092365823)">
          <path d="M0 33 v-28 q0,-5 5,-5 h138 q5,0 5,5 v33 H0 Z" class="node-bkg node-default"/>
          <line x1="0" y1="38" x2="148" y2="38" class="node-line-1"/>
          <text x="74" y="19" class="mindmap-node-label" dominant-baseline="middle" text-anchor="middle" font-size="14px">On effectiveness</text>
        </g>
        <g class="mindmap-node section-1" transform="translate(-295.10662092096686, 100.27735140013269)" id="node-mindmap-node-4">
          <path d="M0 33 v-28 q0,-5 5,-5 h178 q5,0 5,5 v33 H0 Z" class="node-bkg node-default"/>
          <line x1="0" y1="38" x2="188" y2="38" class="node-line-1"/>
          <text x="94" y="19" class="mindmap-node-label" dominant-baseline="middle" font-size="14px" text-anchor="middle">On Automatic creation</text>
        </g>
        <g class="mindmap-node section-2" id="node-Tools" transform="translate(41.26496373220654, -131.29561409176802)">
          <path d="M0 33 v-28 q0,-5 5,-5 h50 q5,0 5,5 v33 H0 Z" class="node-bkg node-default"/>
          <line x1="0" y1="38" x2="60" y2="38" class="node-line-2"/>
          <text x="30" y="19" class="mindmap-node-label" dominant-baseline="middle" text-anchor="middle" font-size="14px">Tools</text>
        </g>
        <g class="mindmap-node section-2" id="node-mindmap-node-6" transform="translate(25.563465529865567, -267.12123332154255)">
          <path d="M0 33 v-28 q0,-5 5,-5 h114 q5,0 5,5 v33 H0 Z" class="node-bkg node-default"/>
          <line x1="0" y1="38" x2="124" y2="38" class="node-line-2"/>
          <text x="62" y="19" class="mindmap-node-label" font-size="14px" dominant-baseline="middle" text-anchor="middle">Pen and paper</text>
        </g>
        <g class="mindmap-node section-2" transform="translate(168.55061557162094, -215.97118557720142)" id="node-Mermaid">
          <path d="M0 33 v-28 q0,-5 5,-5 h66 q5,0 5,5 v33 H0 Z" class="node-bkg node-default"/>
          <line x1="0" y1="38" x2="76" y2="38" class="node-line-2"/>
          <text x="38" y="19" class="mindmap-node-label" dominant-baseline="middle" font-size="14px" text-anchor="middle">Mermaid</text>
        </g>
      </g>
    </g>
  </g>
</svg>
