<?xml version="1.0" encoding="UTF-8"?>
<svg xmlns="http://www.w3.org/2000/svg" width="1350" height="1425" viewBox="-50 -10 1350 1425" class="mermaid">
  <style>

.mermaid {
  font-family: trebuchet ms, verdana, arial, sans-serif;
  font-size: 16px;
}

.node rect,
.node polygon,
.node circle,
.node ellipse,
.node path {
  fill: #ECECFF;
  stroke: #9370DB;
  stroke-width: 1px;
}

.node line {
  stroke: #9370DB;
  stroke-width: 1px;
}

.node .label {
  fill: #333333;
}

.node text {
  fill: #333333;
  font-family: trebuchet ms, verdana, arial, sans-serif;
  font-size: 16px;
}

.edge-path {
  fill: none;
  stroke: #333333;
  stroke-width: 1px;
}

.edge-label {
  fill: #333333;
  font-family: trebuchet ms, verdana, arial, sans-serif;
}

.edge-label-bg {
  fill: rgba(232, 232, 232, 0.8);
}

.subgraph {
  fill: #ffffde;
  stroke: #aaaa33;
  stroke-width: 1px;
}

.subgraph-title {
  fill: #333333;
  font-weight: bold;
}

.cluster rect {
  fill: #ffffde;
  stroke: #aaaa33;
  stroke-width: 1px;
  rx: 5px;
  ry: 5px;
}

.cluster-label {
  fill: #333333;
  font-family: trebuchet ms, verdana, arial, sans-serif;
  font-size: 16px;
  font-weight: bold;
}

marker path {
  fill: #333333;
  stroke: #333333;
}


.sequence-title {
  fill: #333333;
}

.actor {
  stroke: #9370DB;
  fill: #ECECFF;
}

.actor-box {
  stroke: #9370DB;
  fill: #ECECFF;
}

/* Actor text - no stroke (avoid outlined appearance) */
text.actor, text.actor > tspan, text.actor-box, text.actor-label {
  fill: #333333;
  stroke: none;
}

.actor-line {
  stroke: #999999;
  stroke-width: 0.5px;
}

.messageLine0 {
  stroke-width: 1.5;
  stroke-dasharray: none;
  stroke: #333333;
}

.messageLine1 {
  stroke-width: 1.5;
  stroke-dasharray: 2, 2;
  stroke: #333333;
}

.message-line {
  stroke: #333333;
}

.messageText {
  fill: #333333;
  stroke: none;
}

.message-label {
  fill: #333333;
  stroke: none;
}

.note {
  stroke: #aaaa33;
  fill: #fff5ad;
}

.noteText, .noteText > tspan {
  fill: black;
  stroke: none;
}

.note-text, .note-text > tspan {
  fill: black;
  stroke: none;
}

.activation {
  fill: #f4f4f4;
  stroke: #666666;
}

.loopLine {
  stroke: #9370DB;
  fill: none;
  stroke-width: 2px;
  stroke-dasharray: 2, 2;
}

.loopText {
  fill: #333333;
}

.labelBox {
  stroke: #9370DB;
  fill: #ECECFF;
}

.sequence-marker-filled {
  fill: #333333;
  stroke: #333333;
}

.sequence-marker-open {
  fill: none;
  stroke: #333333;
}

.sequence-marker-cross {
  stroke: #333333;
}

.sequence-number {
  fill: #333333;
}

.sequenceNumber-circle {
  fill: #333333;
  stroke: #333333;
}

.sequenceNumber {
  fill: white;
}

  </style>
  <defs>
    <marker id="arrow-filled" viewBox="0 0 10 10" refX="10" refY="5" markerWidth="12" markerHeight="12" orient="auto">
      <path d="M 0 0 L 10 5 L 0 10 z" class="sequence-marker-filled" stroke-width="1"/>
    </marker>
    <marker id="arrow-open" viewBox="0 0 10 10" refX="10" refY="5" markerWidth="12" markerHeight="12" orient="auto">
      <path d="M 0 0 L 10 5 L 0 10" class="sequence-marker-open" stroke-width="1"/>
    </marker>
    <marker id="arrow-cross" viewBox="0 0 10 10" refX="5" refY="5" markerWidth="12" markerHeight="12" orient="auto">
      <line x1="0" y1="0" x2="10" y2="10" class="sequence-marker-cross" stroke-width="2"/>
      <line x1="10" y1="0" x2="0" y2="10" class="sequence-marker-cross" stroke-width="2"/>
    </marker>
    <marker id="sequencenumber" refX="15" refY="15" markerWidth="60" markerHeight="40" orient="auto">
      <circle cx="15" cy="15" r="6" class="sequence-number"/>
    </marker>
  </defs>
  <g class="root">
    <g class="clusters">
      <g>
        <line x1="380" y1="711" x2="1270" y2="711" class="loopLine"/>
        <line x1="1270" y1="711" x2="1270" y2="937" class="loopLine"/>
        <line x1="380" y1="937" x2="1270" y2="937" class="loopLine"/>
        <line x1="380" y1="711" x2="380" y2="937" class="loopLine"/>
      </g>
      <polygon points="390,711 440,711 440,724 432,731 390,731" class="labelBox"/>
      <line x1="380" y1="853" x2="1270" y2="853" class="loopLine" stroke-dasharray="3,3"/>
      <g>
        <line x1="380" y1="1035" x2="1270" y2="1035" class="loopLine"/>
        <line x1="1270" y1="1035" x2="1270" y2="1163" class="loopLine"/>
        <line x1="380" y1="1163" x2="1270" y2="1163" class="loopLine"/>
        <line x1="380" y1="1035" x2="380" y2="1163" class="loopLine"/>
      </g>
      <polygon points="390,1035 440,1035 440,1048 432,1055 390,1055" class="labelBox"/>
      <g>
        <line x1="-10" y1="471" x2="1260" y2="471" class="loopLine"/>
        <line x1="1260" y1="471" x2="1260" y2="1320" class="loopLine"/>
        <line x1="-10" y1="1320" x2="1260" y2="1320" class="loopLine"/>
        <line x1="-10" y1="471" x2="-10" y2="1320" class="loopLine"/>
      </g>
      <polygon points="0,471 50,471 50,484 42,491 0,491" class="labelBox"/>
      <line x1="-10" y1="613" x2="1260" y2="613" class="loopLine" stroke-dasharray="3,3"/>
      <line x1="75" y1="65" x2="75" y2="1340" class="actor-line" stroke-width="0.5px"/>
      <line x1="275" y1="65" x2="275" y2="1340" class="actor-line" stroke-width="0.5px"/>
      <line x1="475" y1="65" x2="475" y2="1340" class="actor-line" stroke-width="0.5px"/>
      <line x1="775" y1="65" x2="775" y2="1340" class="actor-line" stroke-width="0.5px"/>
      <line x1="975" y1="65" x2="975" y2="1340" class="actor-line" stroke-width="0.5px"/>
      <line x1="1175" y1="65" x2="1175" y2="1340" class="actor-line" stroke-width="0.5px"/>
      <rect x="770" y="295" width="10" height="132" rx="1" ry="1" class="activation"/>
      <rect x="970" y="667" width="10" height="324" rx="1" ry="1" class="activation"/>
      <rect x="470" y="202" width="10" height="1054" rx="1" ry="1" class="activation"/>
      <rect x="270" y="158" width="10" height="1162" rx="1" ry="1" class="activation"/>
    </g>
    <g class="edgePaths">
      <line x1="75" y1="158" x2="275" y2="158" class="messageLine0" style="fill: none;" stroke="none" marker-end="url(#arrow-filled)" stroke-width="2"/>
      <line x1="75" y1="158" x2="75" y2="158" stroke-width="0" marker-start="url(#sequencenumber)"/>
      <line x1="275" y1="202" x2="475" y2="202" class="messageLine0" stroke-width="2" style="fill: none;" stroke="none" marker-end="url(#arrow-filled)"/>
      <line x1="275" y1="202" x2="275" y2="202" stroke-width="0" marker-start="url(#sequencenumber)"/>
      <line x1="475" y1="295" x2="775" y2="295" class="messageLine0" stroke-width="2" stroke="none" style="fill: none;" marker-end="url(#arrow-filled)"/>
      <line x1="475" y1="295" x2="475" y2="295" marker-start="url(#sequencenumber)" stroke-width="0"/>
      <line x1="775" y1="339" x2="975" y2="339" class="messageLine0" style="fill: none;" stroke-width="2" marker-end="url(#arrow-filled)" stroke="none"/>
      <line x1="775" y1="339" x2="775" y2="339" stroke-width="0" marker-start="url(#sequencenumber)"/>
      <line x1="975" y1="383" x2="775" y2="383" class="messageLine1" stroke="none" marker-end="url(#arrow-filled)" style="stroke-dasharray: 3, 3; fill: none;" stroke-width="2"/>
      <line x1="975" y1="383" x2="975" y2="383" marker-start="url(#sequencenumber)" stroke-width="0"/>
      <line x1="775" y1="427" x2="475" y2="427" class="messageLine1" stroke-width="2" stroke="none" marker-end="url(#arrow-filled)" style="stroke-dasharray: 3, 3; fill: none;"/>
      <line x1="775" y1="427" x2="775" y2="427" stroke-width="0" marker-start="url(#sequencenumber)"/>
      <line x1="475" y1="525" x2="275" y2="525" class="messageLine1" marker-end="url(#arrow-filled)" stroke-width="2" stroke="none" style="stroke-dasharray: 3, 3; fill: none;"/>
      <line x1="475" y1="525" x2="475" y2="525" marker-start="url(#sequencenumber)" stroke-width="0"/>
      <line x1="275" y1="569" x2="75" y2="569" class="messageLine1" stroke-width="2" marker-end="url(#arrow-filled)" stroke="none" style="stroke-dasharray: 3, 3; fill: none;"/>
      <line x1="275" y1="569" x2="275" y2="569" stroke-width="0" marker-start="url(#sequencenumber)"/>
      <line x1="475" y1="667" x2="975" y2="667" class="messageLine0" marker-end="url(#arrow-filled)" stroke="none" style="fill: none;" stroke-width="2"/>
      <line x1="475" y1="667" x2="475" y2="667" stroke-width="0" marker-start="url(#sequencenumber)"/>
      <line x1="475" y1="765" x2="1175" y2="765" class="messageLine0" stroke-width="2" style="fill: none;" marker-end="url(#arrow-filled)" stroke="none"/>
      <line x1="475" y1="765" x2="475" y2="765" stroke-width="0" marker-start="url(#sequencenumber)"/>
      <line x1="1175" y1="809" x2="475" y2="809" class="messageLine1" marker-end="url(#arrow-filled)" stroke-width="2" stroke="none" style="stroke-dasharray: 3, 3; fill: none;"/>
      <line x1="1175" y1="809" x2="1175" y2="809" marker-start="url(#sequencenumber)" stroke-width="0"/>
      <path d="M 475 907 L 515 907 L 515 937 L 475 937" class="message-line" stroke-dasharray="3,3" marker-end="url(#arrow-filled)" fill="none" stroke-width="1.5"/>
      <line x1="475" y1="907" x2="475" y2="907" stroke-width="0" marker-start="url(#sequencenumber)"/>
      <line x1="975" y1="991" x2="475" y2="991" class="messageLine1" style="stroke-dasharray: 3, 3; fill: none;" stroke-width="2" stroke="none" marker-end="url(#arrow-filled)"/>
      <line x1="975" y1="991" x2="975" y2="991" marker-start="url(#sequencenumber)" stroke-width="0"/>
      <line x1="475" y1="1089" x2="1175" y2="1089" class="messageLine0" style="fill: none;" stroke-width="2" marker-end="url(#arrow-filled)" stroke="none"/>
      <line x1="475" y1="1089" x2="475" y2="1089" stroke-width="0" marker-start="url(#sequencenumber)"/>
      <line x1="1175" y1="1133" x2="475" y2="1133" class="messageLine1" marker-end="url(#arrow-filled)" stroke-width="2" stroke="none" style="stroke-dasharray: 3, 3; fill: none;"/>
      <line x1="1175" y1="1133" x2="1175" y2="1133" marker-start="url(#sequencenumber)" stroke-width="0"/>
      <line x1="475" y1="1256" x2="275" y2="1256" class="messageLine1" stroke-width="2" style="stroke-dasharray: 3, 3; fill: none;" stroke="none" marker-end="url(#arrow-filled)"/>
      <line x1="475" y1="1256" x2="475" y2="1256" marker-start="url(#sequencenumber)" stroke-width="0"/>
      <line x1="275" y1="1300" x2="75" y2="1300" class="messageLine1" stroke-width="2" marker-end="url(#arrow-filled)" stroke="none" style="stroke-dasharray: 3, 3; fill: none;"/>
      <line x1="275" y1="1300" x2="275" y2="1300" stroke-width="0" marker-start="url(#sequencenumber)"/>
    </g>
    <g class="edgeLabels">
      <text x="415" y="724" class="labelText" font-size="16" text-anchor="middle">par</text>
      <text x="825" y="729" class="loopText" font-size="16" text-anchor="middle">[Process Payment]</text>
      <text x="825" y="871" class="loopText" text-anchor="middle" font-size="16">[Send Notifications]</text>
      <text x="415" y="1048" class="labelText" text-anchor="middle" font-size="16">loop</text>
      <text x="825" y="1053" class="loopText" font-size="16" text-anchor="middle">[Retry up to 3 times]</text>
      <text x="25" y="484" class="labelText" font-size="16" text-anchor="middle">alt</text>
      <text x="625" y="489" class="loopText" text-anchor="middle" font-size="16">[Cart Empty]</text>
      <text x="625" y="631" class="loopText" text-anchor="middle" font-size="16">[Cart Valid]</text>
      <text x="75" y="162" class="sequenceNumber" text-anchor="middle" font-size="12" font-family="sans-serif">1</text>
      <text x="175" y="148" class="message-label" font-size="16" text-anchor="middle">Click Checkout</text>
      <text x="275" y="206" class="sequenceNumber" font-size="12" text-anchor="middle" font-family="sans-serif">2</text>
      <text x="375" y="192" class="message-label" text-anchor="middle" font-size="16">POST /checkout</text>
      <text x="475" y="299" class="sequenceNumber" font-family="sans-serif" font-size="12" text-anchor="middle">3</text>
      <text x="625" y="285" class="message-label" font-size="16" text-anchor="middle">Verify session</text>
      <text x="775" y="343" class="sequenceNumber" text-anchor="middle" font-size="12" font-family="sans-serif">4</text>
      <text x="875" y="329" class="message-label" text-anchor="middle" font-size="16">Query user</text>
      <text x="975" y="387" class="sequenceNumber" text-anchor="middle" font-size="12" font-family="sans-serif">5</text>
      <text x="875" y="373" class="message-label" text-anchor="middle" font-size="16">User record</text>
      <text x="775" y="431" class="sequenceNumber" text-anchor="middle" font-size="12" font-family="sans-serif">6</text>
      <text x="625" y="417" class="message-label" font-size="16" text-anchor="middle">Session valid</text>
      <text x="475" y="529" class="sequenceNumber" text-anchor="middle" font-size="12" font-family="sans-serif">7</text>
      <text x="375" y="515" class="message-label" text-anchor="middle" font-size="16">Error: Empty cart</text>
      <text x="275" y="573" class="sequenceNumber" font-size="12" text-anchor="middle" font-family="sans-serif">8</text>
      <text x="175" y="559" class="message-label" text-anchor="middle" font-size="16">Show error</text>
      <text x="475" y="671" class="sequenceNumber" font-family="sans-serif" text-anchor="middle" font-size="12">9</text>
      <text x="725" y="657" class="message-label" text-anchor="middle" font-size="16">Reserve inventory</text>
      <text x="475" y="769" class="sequenceNumber" font-family="sans-serif" font-size="12" text-anchor="middle">10</text>
      <text x="825" y="755" class="message-label" font-size="16" text-anchor="middle">Queue payment job</text>
      <text x="1175" y="813" class="sequenceNumber" text-anchor="middle" font-size="12" font-family="sans-serif">11</text>
      <text x="825" y="799" class="message-label" text-anchor="middle" font-size="16">Job queued</text>
      <text x="475" y="911" class="sequenceNumber" font-size="12" text-anchor="middle" font-family="sans-serif">12</text>
      <text x="520" y="922" class="message-label" font-size="16" text-anchor="start">Queue email confirmation</text>
      <text x="975" y="995" class="sequenceNumber" text-anchor="middle" font-family="sans-serif" font-size="12">13</text>
      <text x="725" y="981" class="message-label" text-anchor="middle" font-size="16">Inventory reserved</text>
      <text x="475" y="1093" class="sequenceNumber" font-size="12" text-anchor="middle" font-family="sans-serif">14</text>
      <text x="825" y="1079" class="message-label" text-anchor="middle" font-size="16">Check payment status</text>
      <text x="1175" y="1137" class="sequenceNumber" font-size="12" text-anchor="middle" font-family="sans-serif">15</text>
      <text x="825" y="1123" class="message-label" font-size="16" text-anchor="middle">Payment pending</text>
      <text x="475" y="1260" class="sequenceNumber" text-anchor="middle" font-size="12" font-family="sans-serif">16</text>
      <text x="375" y="1246" class="message-label" text-anchor="middle" font-size="16">Order confirmed</text>
      <text x="275" y="1304" class="sequenceNumber" font-family="sans-serif" text-anchor="middle" font-size="12">17</text>
      <text x="175" y="1290" class="message-label" text-anchor="middle" font-size="16">Show confirmation</text>
    </g>
    <g class="nodes">

    </g>
    <g class="actor">
      <rect x="0" y="0" width="150" height="65" rx="3" ry="3" class="actor actor-box" fill="#eaeaea" stroke="#666" stroke-width="1"/>
      <text x="75" y="32.5" class="actor actor-box" text-anchor="middle" font-size="16" dominant-baseline="central">User</text>
    </g>
    <g class="actor">
      <rect x="200" y="0" width="150" height="65" rx="3" ry="3" class="actor actor-box" stroke-width="1" fill="#eaeaea" stroke="#666"/>
      <text x="275" y="32.5" class="actor actor-box" dominant-baseline="central" text-anchor="middle" font-size="16">Browser</text>
    </g>
    <g class="actor">
      <rect x="400" y="0" width="150" height="65" rx="3" ry="3" class="actor actor-box" stroke="#666" fill="#eaeaea" stroke-width="1"/>
      <text x="475" y="32.5" class="actor actor-box" font-size="16" text-anchor="middle" dominant-baseline="central">API</text>
    </g>
    <g class="actor">
      <rect x="700" y="0" width="150" height="65" rx="3" ry="3" class="actor actor-box" stroke="#666" fill="#eaeaea" stroke-width="1"/>
      <text x="775" y="32.5" class="actor actor-box" text-anchor="middle" dominant-baseline="central" font-size="16">Auth</text>
    </g>
    <g class="actor">
      <rect x="900" y="0" width="150" height="65" rx="3" ry="3" class="actor actor-box" stroke-width="1" stroke="#666" fill="#eaeaea"/>
      <text x="975" y="32.5" class="actor actor-box" font-size="16" text-anchor="middle" dominant-baseline="central">DB</text>
    </g>
    <g class="actor">
      <rect x="1100" y="0" width="150" height="65" rx="3" ry="3" class="actor actor-box" stroke-width="1" fill="#eaeaea" stroke="#666"/>
      <text x="1175" y="32.5" class="actor actor-box" text-anchor="middle" dominant-baseline="central" font-size="16">Queue</text>
    </g>
    <g class="note">
      <rect x="50" y="75" width="1150" height="39" class="note" fill="#EDF2AE" stroke="#666"/>
      <text x="625" y="80" class="noteText" dy="1em" alignment-baseline="middle" dominant-baseline="middle" text-anchor="middle" font-size="16">E-Commerce Checkout Flow</text>
    </g>
    <g class="note">
      <rect x="500" y="212" width="150" height="39" class="note" stroke="#666" fill="#EDF2AE"/>
      <text x="575" y="217" class="noteText" alignment-baseline="middle" font-size="16" dominant-baseline="middle" dy="1em" text-anchor="middle">Validate cart items</text>
    </g>
    <g class="note">
      <rect x="450" y="1173" width="750" height="39" class="note" fill="#EDF2AE" stroke="#666"/>
      <text x="825" y="1178" class="noteText" dominant-baseline="middle" dy="1em" text-anchor="middle" font-size="16" alignment-baseline="middle">Payment confirmed</text>
    </g>
    <g class="actor">
      <rect x="0" y="1340" width="150" height="65" rx="3" ry="3" class="actor actor-box" stroke="#666" stroke-width="1" fill="#eaeaea"/>
      <text x="75" y="1372.5" class="actor actor-box" text-anchor="middle" dominant-baseline="central" font-size="16">User</text>
    </g>
    <g class="actor">
      <rect x="200" y="1340" width="150" height="65" rx="3" ry="3" class="actor actor-box" stroke-width="1" fill="#eaeaea" stroke="#666"/>
      <text x="275" y="1372.5" class="actor actor-box" font-size="16" text-anchor="middle" dominant-baseline="central">Browser</text>
    </g>
    <g class="actor">
      <rect x="400" y="1340" width="150" height="65" rx="3" ry="3" class="actor actor-box" fill="#eaeaea" stroke="#666" stroke-width="1"/>
      <text x="475" y="1372.5" class="actor actor-box" text-anchor="middle" dominant-baseline="central" font-size="16">API</text>
    </g>
    <g class="actor">
      <rect x="700" y="1340" width="150" height="65" rx="3" ry="3" class="actor actor-box" stroke="#666" stroke-width="1" fill="#eaeaea"/>
      <text x="775" y="1372.5" class="actor actor-box" dominant-baseline="central" font-size="16" text-anchor="middle">Auth</text>
    </g>
    <g class="actor">
      <rect x="900" y="1340" width="150" height="65" rx="3" ry="3" class="actor actor-box" stroke="#666" fill="#eaeaea" stroke-width="1"/>
      <text x="975" y="1372.5" class="actor actor-box" dominant-baseline="central" font-size="16" text-anchor="middle">DB</text>
    </g>
    <g class="actor">
      <rect x="1100" y="1340" width="150" height="65" rx="3" ry="3" class="actor actor-box" stroke-width="1" fill="#eaeaea" stroke="#666"/>
      <text x="1175" y="1372.5" class="actor actor-box" font-size="16" text-anchor="middle" dominant-baseline="central">Queue</text>
    </g>
  </g>
</svg>
