<?xml version="1.0" encoding="UTF-8"?>
<svg xmlns="http://www.w3.org/2000/svg" width="774.391015625" height="1984" viewBox="-8 -8 774.391015625 1984" class="mermaid">
  <style>

.statediagram {
  font-family: trebuchet ms, verdana, arial, sans-serif;
  font-size: 16px;
  fill: #333333;
}

.error-icon {
  fill: #552222;
}

.error-text {
  fill: #552222;
  stroke: #552222;
}

.state-title {
  fill: #131300;
}

.state-box {
  fill: #ECECFF;
  stroke: #9370DB;
}

.state-label {
  fill: #131300;
}

.state-description {
  fill: #333333;
}

.state-start {
  fill: #333333;
}

.state-end-outer {
  fill: none;
  stroke: #9370DB;
  stroke-width: 2;
}

.state-end-inner {
  fill: #9370DB;
  stroke: #9370DB;
  stroke-width: 2;
}

.state-fork-join {
  fill: #333333;
}

.state-choice {
  fill: #ECECFF;
  stroke: #333333;
}

.state-divider {
  stroke: #333333;
  stroke-dasharray: 5, 5;
  fill: none;
}

.transition-path {
  stroke: #333333;
  fill: none;
}

.transition-label {
  fill: #333333;
}

.transition-label-bg {
  fill: rgba(232, 232, 232, 0.8);
  stroke: none;
}

.note-box {
  fill: #fff5ad;
  stroke: #aaaa33;
}

.note-text {
  fill: black;
}

.state-composite-outer {
  fill: #ECECFF;
  stroke: #9370DB;
  stroke-width: 1px;
}

.state-composite-inner {
  fill: white;
  stroke: none;
}

.state-composite-inner-alt {
  fill: #e0e0e0;
  stroke: none;
}

.state-composite-label {
  fill: #333333;
  font-weight: bold;
}

.state-composite-divider {
  stroke: #9370DB;
  stroke-width: 1px;
  fill: none;
}

  </style>
  <defs>
    <marker id="arrow" viewBox="0 0 20 14" refX="19" refY="7" markerWidth="20" markerHeight="14" orient="auto" markerUnits="userSpaceOnUse">
      <path d="M 19,7 L9,13 L14,7 L9,1 Z" stroke="#333333" fill="#333333" stroke-width="1"/>
    </marker>
  </defs>
  <g class="root">
    <g class="clusters">

    </g>
    <g class="edgePaths">

    </g>
    <g class="edgeLabels">

    </g>
    <g class="nodes">

    </g>
    <g class="composite-state" id="composite-Idle">
      <rect x="0" y="68" width="675.391015625" height="1722" rx="5" ry="5" class="state-composite-outer"/>
      <rect x="1" y="89" width="673.391015625" height="1697" rx="0" ry="0" class="state-composite-inner"/>
      <path d="M 0 89 L 675.391015625 89" class="state-composite-divider"/>
      <text x="337.6955078125" y="84" class="state-composite-label" font-size="14" text-anchor="middle">Idle</text>
    </g>
    <g class="composite-state" id="composite-Processing">
      <rect x="26.99999999999997" y="313" width="621.391015625" height="1465" rx="5" ry="5" class="state-composite-outer"/>
      <rect x="27.99999999999997" y="334" width="619.391015625" height="1440" rx="0" ry="0" class="state-composite-inner-alt"/>
      <path d="M 26.99999999999997 334 L 648.391015625 334" class="state-composite-divider"/>
      <text x="337.69550781249995" y="329" class="state-composite-label" font-size="14" text-anchor="middle">Processing</text>
    </g>
    <g class="composite-state" id="composite-Paused">
      <rect x="382.64374999999995" y="1413" width="188.9296875" height="353" rx="5" ry="5" class="state-composite-outer"/>
      <rect x="383.64374999999995" y="1434" width="186.9296875" height="328" rx="0" ry="0" class="state-composite-inner-alt"/>
      <path d="M 382.64374999999995 1434 L 571.5734375 1434" class="state-composite-divider"/>
      <text x="477.10859374999995" y="1429" class="state-composite-label" font-size="14" text-anchor="middle">Paused</text>
    </g>
    <g class="composite-state" id="composite-Running">
      <rect x="211.221875" y="728" width="146.265625" height="581" rx="5" ry="5" class="state-composite-outer"/>
      <rect x="212.221875" y="749" width="144.265625" height="556" rx="0" ry="0" class="state-composite-inner-alt"/>
      <path d="M 211.221875 749 L 357.4875 749" class="state-composite-divider"/>
      <text x="284.3546875" y="744" class="state-composite-label" text-anchor="middle" font-size="14">Running</text>
    </g>
    <g class="state-node" id="state-Cancelled">
      <path d="M 301.1173828125 1864 H 374.2736328125 A 5 5 0 0 1 379.2736328125 1869 V 1895 A 5 5 0 0 1 374.2736328125 1900 H 301.1173828125 A 5 5 0 0 1 296.1173828125 1895 V 1869 A 5 5 0 0 1 301.1173828125 1864 Z" class="state-box" fill="#ECECFF" stroke-width="1" stroke="#9370DB"/>
      <text x="337.6955078125" y="1887" class="state-label" text-anchor="middle" font-size="16">Cancelled</text>
    </g>
    <g class="state-node" id="state-Completed">
      <path d="M 108.81757812500001 1571.5 H 188.192578125 A 5 5 0 0 1 193.192578125 1576.5 V 1602.5 A 5 5 0 0 1 188.192578125 1607.5 H 108.81757812500001 A 5 5 0 0 1 103.81757812500001 1602.5 V 1576.5 A 5 5 0 0 1 108.81757812500001 1571.5 Z" class="state-box" stroke-width="1" fill="#ECECFF" stroke="#9370DB"/>
      <text x="148.505078125" y="1594.5" class="state-label" font-size="16" text-anchor="middle">Completed</text>
    </g>
    <g class="state-node" id="state-Executing">
      <path d="M 248.221875 1013 H 320.4875 A 5 5 0 0 1 325.4875 1018 V 1044 A 5 5 0 0 1 320.4875 1049 H 248.221875 A 5 5 0 0 1 243.221875 1044 V 1018 A 5 5 0 0 1 248.221875 1013 Z" class="state-box" fill="#ECECFF" stroke="#9370DB" stroke-width="1"/>
      <text x="284.3546875" y="1036" class="state-label" text-anchor="middle" font-size="16">Executing</text>
    </g>
    <g class="state-node" id="state-Failed">
      <path d="M 261.565625 1571.5 H 307.14375 A 5 5 0 0 1 312.14375 1576.5 V 1602.5 A 5 5 0 0 1 307.14375 1607.5 H 261.565625 A 5 5 0 0 1 256.565625 1602.5 V 1576.5 A 5 5 0 0 1 261.565625 1571.5 Z" class="state-box" stroke-width="1" fill="#ECECFF" stroke="#9370DB"/>
      <text x="284.3546875" y="1594.5" class="state-label" font-size="16" text-anchor="middle">Failed</text>
    </g>
    <g class="state-node" id="state-Finalizing">
      <path d="M 249.56171875 1148 H 319.14765625 A 5 5 0 0 1 324.14765625 1153 V 1179 A 5 5 0 0 1 319.14765625 1184 H 249.56171875 A 5 5 0 0 1 244.56171875 1179 V 1153 A 5 5 0 0 1 249.56171875 1148 Z" class="state-box" fill="#ECECFF" stroke-width="1" stroke="#9370DB"/>
      <text x="284.3546875" y="1171" class="state-label" text-anchor="middle" font-size="16">Finalizing</text>
    </g>
    <g class="state-node" id="state-Idle_start">
      <circle cx="337.6955078125" cy="112" r="7" class="state-start" fill="#333333"/>
    </g>
    <g class="state-node" id="state-Initializing">
      <path d="M 248.22578125 878 H 320.48359375 A 5 5 0 0 1 325.48359375 883 V 909 A 5 5 0 0 1 320.48359375 914 H 248.22578125 A 5 5 0 0 1 243.22578125 909 V 883 A 5 5 0 0 1 248.22578125 878 Z" class="state-box" fill="#ECECFF" stroke-width="1" stroke="#9370DB"/>
      <text x="284.3546875" y="901" class="state-label" text-anchor="middle" font-size="16">Initializing</text>
    </g>
    <g class="state-node" id="state-Paused_start">
      <circle cx="477.10859375" cy="1457" r="7" class="state-start" fill="#333333"/>
    </g>
    <g class="state-node" id="state-Processing_start">
      <circle cx="373.8546875" cy="357" r="7" class="state-start" fill="#333333"/>
    </g>
    <g class="state-node" id="state-Queued">
      <path d="M 254.8859375 588 H 313.8234375 A 5 5 0 0 1 318.8234375 593 V 619 A 5 5 0 0 1 313.8234375 624 H 254.8859375 A 5 5 0 0 1 249.8859375 619 V 593 A 5 5 0 0 1 254.8859375 588 Z" class="state-box" stroke="#9370DB" stroke-width="1" fill="#ECECFF"/>
      <text x="284.3546875" y="611" class="state-label" text-anchor="middle" font-size="16">Queued</text>
    </g>
    <g class="state-node" id="state-Ready">
      <path d="M 313.5705078125 188 H 361.8205078125 A 5 5 0 0 1 366.8205078125 193 V 219 A 5 5 0 0 1 361.8205078125 224 H 313.5705078125 A 5 5 0 0 1 308.5705078125 219 V 193 A 5 5 0 0 1 313.5705078125 188 Z" class="state-box" fill="#ECECFF" stroke-width="1" stroke="#9370DB"/>
      <text x="337.6955078125" y="211" class="state-label" font-size="16" text-anchor="middle">Ready</text>
    </g>
    <g class="state-node" id="state-Running_end">
      <path d="M 277.3546875 1290 A 7 7 0 1 0 291.3546875 1290 A 7 7 0 1 0 277.3546875 1290 Z" class="state-end-outer" stroke-width="2" stroke="#9370DB" fill="none"/>
      <path d="M 281.83468750000003 1290 A 2.52 2.52 0 1 0 286.8746875 1290 A 2.52 2.52 0 1 0 281.83468750000003 1290 Z" class="state-end-inner" stroke-width="2" fill="#9370DB" stroke="#9370DB"/>
    </g>
    <g class="state-node" id="state-Running_start">
      <circle cx="284.3546875" cy="772" r="7" class="state-start" fill="#333333"/>
    </g>
    <g class="state-node" id="state-Timeout">
      <path d="M 447.21015625 1718 H 507.00703124999995 A 5 5 0 0 1 512.00703125 1723 V 1749 A 5 5 0 0 1 507.00703124999995 1754 H 447.21015625 A 5 5 0 0 1 442.21015625 1749 V 1723 A 5 5 0 0 1 447.21015625 1718 Z" class="state-box" stroke="#9370DB" stroke-width="1" fill="#ECECFF"/>
      <text x="477.10859375" y="1741" class="state-label" text-anchor="middle" font-size="16">Timeout</text>
    </g>
    <g class="state-node" id="state-Validating">
      <path d="M 337.71796875 448 H 409.99140625 A 5 5 0 0 1 414.99140625 453 V 479 A 5 5 0 0 1 409.99140625 484 H 337.71796875 A 5 5 0 0 1 332.71796875 479 V 453 A 5 5 0 0 1 337.71796875 448 Z" class="state-box" stroke-width="1" stroke="#9370DB" fill="#ECECFF"/>
      <text x="373.8546875" y="471" class="state-label" font-size="16" text-anchor="middle">Validating</text>
    </g>
    <g class="state-node" id="state-WaitingResume">
      <path d="M 419.64375 1563 H 534.5734375 A 5 5 0 0 1 539.5734375 1568 V 1594 A 5 5 0 0 1 534.5734375 1599 H 419.64375 A 5 5 0 0 1 414.64375 1594 V 1568 A 5 5 0 0 1 419.64375 1563 Z" class="state-box" fill="#ECECFF" stroke="#9370DB" stroke-width="1"/>
      <text x="477.10859375" y="1586" class="state-label" font-size="16" text-anchor="middle">WaitingResume</text>
    </g>
    <g class="state-node" id="state-root_end">
      <path d="M 340.6955078125 1961 A 7 7 0 1 0 354.6955078125 1961 A 7 7 0 1 0 340.6955078125 1961 Z" class="state-end-outer" fill="none" stroke="#9370DB" stroke-width="2"/>
      <path d="M 345.17550781250003 1961 A 2.52 2.52 0 1 0 350.2155078125 1961 A 2.52 2.52 0 1 0 345.17550781250003 1961 Z" class="state-end-inner" stroke="#9370DB" stroke-width="2" fill="#9370DB"/>
    </g>
    <g class="state-node" id="state-root_start">
      <circle cx="337.6955078125" cy="7" r="7" class="state-start" fill="#333333"/>
    </g>
    <g class="transition">
      <path d="M 337.70 14.00 C 337.70 23.00, 337.70 32.00, 337.70 41.00 C 337.70 50.00, 337.70 59.00, 337.70 68.00" class="transition-path" marker-end="url(#arrow)" fill="none" stroke-width="0.7"/>
    </g>
    <g class="transition">
      <path d="M 337.70 119.00 C 337.70 130.50, 337.70 142.00, 337.70 153.50 C 337.70 165.00, 337.70 176.50, 337.70 188.00" class="transition-path" stroke-width="0.7" fill="none" marker-end="url(#arrow)"/>
    </g>
    <g class="transition">
      <path d="M 337.70 224.00 C 337.70 238.83, 337.70 253.67, 337.70 268.50 C 337.70 283.33, 337.70 298.17, 337.70 313.00" class="transition-path" stroke-width="0.7" marker-end="url(#arrow)" fill="none"/>
      <path d="M 301.6955078125 257.7 H 373.6955078125 A 2 2 0 0 1 375.6955078125 259.7 V 277.3 A 2 2 0 0 1 373.6955078125 279.3 H 301.6955078125 A 2 2 0 0 1 299.6955078125 277.3 V 259.7 A 2 2 0 0 1 301.6955078125 257.7 Z" class="transition-label-bg"/>
      <text x="337.6955078125" y="268.5" class="transition-label" dominant-baseline="central" text-anchor="middle" font-size="16">Start Job</text>
    </g>
    <g class="transition">
      <path d="M 324.04 364.00 C 324.04 378.00, 324.04 392.00, 324.04 406.00 C 324.04 420.00, 324.04 434.00, 324.04 448.00" class="transition-path" stroke-width="0.7" fill="none" marker-end="url(#arrow)"/>
    </g>
    <g class="transition">
      <path d="M 301.02 484.00 C 278.86 501.33, 256.70 518.67, 245.62 536.00 C 234.54 553.33, 234.54 570.67, 234.54 588.00" class="transition-path" stroke-width="0.7" fill="none" marker-end="url(#arrow)"/>
      <path d="M 227.30000872939442 515.2178440803619 H 267.30000872939445 A 2 2 0 0 1 269.30000872939445 517.2178440803619 V 534.817844080362 A 2 2 0 0 1 267.30000872939445 536.817844080362 H 227.30000872939442 A 2 2 0 0 1 225.30000872939442 534.817844080362 V 517.2178440803619 A 2 2 0 0 1 227.30000872939442 515.2178440803619 Z" class="transition-label-bg"/>
      <text x="247.30000872939442" y="526.0178440803619" class="transition-label" dominant-baseline="central" font-size="16" text-anchor="middle">Valid</text>
    </g>
    <g class="transition">
      <path d="M 365.17 477.00 C 438.71 496.67, 512.25 516.33, 549.02 663.67 C 585.79 811.00, 585.79 1086.00, 531.86 1258.58 C 370.07 1501.33, 262.21 1571.50, 262.21 1571.50" class="transition-path" marker-end="url(#arrow)" fill="none" stroke-width="0.7"/>
      <path d="M 557.791015625 1016.5285548314857 H 613.791015625 A 2 2 0 0 1 615.791015625 1018.5285548314857 V 1036.1285548314856 A 2 2 0 0 1 613.791015625 1038.1285548314856 H 557.791015625 A 2 2 0 0 1 555.791015625 1036.1285548314856 V 1018.5285548314857 A 2 2 0 0 1 557.791015625 1016.5285548314857 Z" class="transition-label-bg"/>
      <text x="585.791015625" y="1027.3285548314857" class="transition-label" text-anchor="middle" font-size="16" dominant-baseline="central">Invalid</text>
    </g>
    <g class="transition">
      <path d="M 234.54 624.00 C 234.54 641.33, 234.54 658.67, 242.84 676.00 C 251.14 693.33, 267.75 710.67, 284.35 728.00" class="transition-path" stroke-width="0.7" fill="none" marker-end="url(#arrow)"/>
      <path d="M 170.537109375 665.2 H 298.537109375 A 2 2 0 0 1 300.537109375 667.2 V 684.8000000000001 A 2 2 0 0 1 298.537109375 686.8000000000001 H 170.537109375 A 2 2 0 0 1 168.537109375 684.8000000000001 V 667.2 A 2 2 0 0 1 170.537109375 665.2 Z" class="transition-label-bg"/>
      <text x="234.537109375" y="676" class="transition-label" font-size="16" text-anchor="middle" dominant-baseline="central">Worker Available</text>
    </g>
    <g class="transition">
      <path d="M 284.35 1309.00 C 222.47 1326.33, 160.58 1343.67, 129.63 1387.42 C 98.69 1431.17, 98.69 1501.33, 98.69 1571.50" class="transition-path" fill="none" stroke-width="0.7" marker-end="url(#arrow)"/>
      <path d="M 70.6875 1370.3981861305479 H 126.6875 A 2 2 0 0 1 128.6875 1372.3981861305479 V 1389.9981861305478 A 2 2 0 0 1 126.6875 1391.9981861305478 H 70.6875 A 2 2 0 0 1 68.6875 1389.9981861305478 V 1372.3981861305479 A 2 2 0 0 1 70.6875 1370.3981861305479 Z" class="transition-label-bg"/>
      <text x="98.6875" y="1381.1981861305478" class="transition-label" font-size="16" text-anchor="middle" dominant-baseline="central">Success</text>
    </g>
    <g class="transition">
      <path d="M 284.35 1309.00 C 263.29 1326.33, 242.23 1343.67, 233.75 1387.42 C 225.27 1431.17, 229.38 1501.33, 233.48 1571.50" class="transition-path" fill="none" marker-end="url(#arrow)" stroke-width="0.7"/>
      <path d="M 205.80363985145198 1429.474636118164 H 245.80363985145198 A 2 2 0 0 1 247.80363985145198 1431.474636118164 V 1449.0746361181639 A 2 2 0 0 1 245.80363985145198 1451.0746361181639 H 205.80363985145198 A 2 2 0 0 1 203.80363985145198 1449.0746361181639 V 1431.474636118164 A 2 2 0 0 1 205.80363985145198 1429.474636118164 Z" class="transition-label-bg"/>
      <text x="225.80363985145198" y="1440.274636118164" class="transition-label" dominant-baseline="central" text-anchor="middle" font-size="16">Error</text>
    </g>
    <g class="transition">
      <path d="M 284.35 1309.00 L 477.11 1413.00" class="transition-path" fill="none" marker-end="url(#arrow)" stroke-width="0.7"/>
      <path d="M 294.6422622717188 1299.122212516953 H 398.6422622717188 A 2 2 0 0 1 400.6422622717188 1301.122212516953 V 1318.7222125169528 A 2 2 0 0 1 398.6422622717188 1320.7222125169528 H 294.6422622717188 A 2 2 0 0 1 292.6422622717188 1318.7222125169528 V 1301.122212516953 A 2 2 0 0 1 294.6422622717188 1299.122212516953 Z" class="transition-label-bg"/>
      <text x="346.6422622717188" y="1309.9222125169529" class="transition-label" dominant-baseline="central" text-anchor="middle" font-size="16">Pause Request</text>
    </g>
    <g class="transition">
      <path d="M 284.35 779.00 C 284.35 795.50, 284.35 812.00, 284.35 828.50 C 284.35 845.00, 284.35 861.50, 284.35 878.00" class="transition-path" stroke-width="0.7" marker-end="url(#arrow)" fill="none"/>
    </g>
    <g class="transition">
      <path d="M 284.35 914.00 C 284.35 930.50, 284.35 947.00, 284.35 963.50 C 284.35 980.00, 284.35 996.50, 284.35 1013.00" class="transition-path" marker-end="url(#arrow)" fill="none" stroke-width="0.7"/>
    </g>
    <g class="transition">
      <path d="M 284.35 1049.00 C 284.35 1065.50, 284.35 1082.00, 284.35 1098.50 C 284.35 1115.00, 284.35 1131.50, 284.35 1148.00" class="transition-path" marker-end="url(#arrow)" stroke-width="0.7" fill="none"/>
    </g>
    <g class="transition">
      <path d="M 284.35 1184.00 C 284.35 1200.50, 284.35 1217.00, 284.35 1233.50 C 284.35 1250.00, 284.35 1266.50, 284.35 1283.00" class="transition-path" marker-end="url(#arrow)" stroke-width="0.7" fill="none"/>
    </g>
    <g class="transition">
      <path d="M 477.11 1464.00 C 477.11 1480.50, 477.11 1497.00, 477.11 1513.50 C 477.11 1530.00, 477.11 1546.50, 477.11 1563.00" class="transition-path" stroke-width="0.7" fill="none" marker-end="url(#arrow)"/>
    </g>
    <g class="transition">
      <path d="M 477.11 1599.00 C 477.11 1618.83, 477.11 1638.67, 477.11 1658.50 C 477.11 1678.33, 477.11 1698.17, 477.11 1718.00" class="transition-path" marker-end="url(#arrow)" fill="none" stroke-width="0.7"/>
      <path d="M 453.10859375 1647.7 H 501.10859375 A 2 2 0 0 1 503.10859375 1649.7 V 1667.3 A 2 2 0 0 1 501.10859375 1669.3 H 453.10859375 A 2 2 0 0 1 451.10859375 1667.3 V 1649.7 A 2 2 0 0 1 453.10859375 1647.7 Z" class="transition-label-bg"/>
      <text x="477.10859375" y="1658.5" class="transition-label" text-anchor="middle" dominant-baseline="central" font-size="16">1 hour</text>
    </g>
    <g class="transition">
      <path d="M 477.11 1766.00 C 480.84 1631.00, 484.56 1496.00, 452.44 1323.00 C 420.31 1150.00, 352.33 939.00, 284.35 728.00" class="transition-path" fill="none" marker-end="url(#arrow)" stroke-width="0.7"/>
      <path d="M 390.0004010534095 1249.9275121128514 H 438.0004010534095 A 2 2 0 0 1 440.0004010534095 1251.9275121128514 V 1269.5275121128514 A 2 2 0 0 1 438.0004010534095 1271.5275121128514 H 390.0004010534095 A 2 2 0 0 1 388.0004010534095 1269.5275121128514 V 1251.9275121128514 A 2 2 0 0 1 390.0004010534095 1249.9275121128514 Z" class="transition-label-bg"/>
      <text x="414.0004010534095" y="1260.7275121128514" class="transition-label" text-anchor="middle" dominant-baseline="central" font-size="16">Resume</text>
    </g>
    <g class="transition">
      <path d="M 477.11 1766.00 C 453.87 1782.33, 430.64 1798.67, 407.40 1815.00 C 384.17 1831.33, 360.93 1847.67, 337.70 1864.00" class="transition-path" marker-end="url(#arrow)" stroke-width="0.7" fill="none"/>
      <path d="M 351.40205078125 1804.2 H 463.40205078125 A 2 2 0 0 1 465.40205078125 1806.2 V 1823.8 A 2 2 0 0 1 463.40205078125 1825.8 H 351.40205078125 A 2 2 0 0 1 349.40205078125 1823.8 V 1806.2 A 2 2 0 0 1 351.40205078125 1804.2 Z" class="transition-label-bg"/>
      <text x="407.40205078125" y="1815" class="transition-label" font-size="16" text-anchor="middle" dominant-baseline="central">Cancel Request</text>
    </g>
    <g class="transition">
      <path d="M 477.11 1754.00 C 453.87 1772.33, 430.64 1790.67, 407.40 1809.00 C 384.17 1827.33, 360.93 1845.67, 337.70 1864.00" class="transition-path" stroke-width="0.7" fill="none" marker-end="url(#arrow)"/>
    </g>
    <g class="transition">
      <path d="M 148.51 1571.50 C 180.04 1607.92, 211.57 1644.33, 243.10 1680.75 C 274.63 1717.17, 306.16 1753.58, 337.70 1790.00" class="transition-path" fill="none" stroke-width="0.7" marker-end="url(#arrow)"/>
      <path d="M 223.10029296875 1669.95 H 263.10029296875 A 2 2 0 0 1 265.10029296875 1671.95 V 1689.55 A 2 2 0 0 1 263.10029296875 1691.55 H 223.10029296875 A 2 2 0 0 1 221.10029296875 1689.55 V 1671.95 A 2 2 0 0 1 223.10029296875 1669.95 Z" class="transition-label-bg"/>
      <text x="243.10029296875" y="1680.75" class="transition-label" text-anchor="middle" dominant-baseline="central" font-size="16">Reset</text>
    </g>
    <g class="transition">
      <path d="M 284.35 1571.50 C 293.24 1607.92, 302.13 1644.33, 311.03 1680.75 C 319.92 1717.17, 328.81 1753.58, 337.70 1790.00" class="transition-path" fill="none" marker-end="url(#arrow)" stroke-width="0.7"/>
      <path d="M 291.02509765625 1669.95 H 331.02509765625 A 2 2 0 0 1 333.02509765625 1671.95 V 1689.55 A 2 2 0 0 1 331.02509765625 1691.55 H 291.02509765625 A 2 2 0 0 1 289.02509765625 1689.55 V 1671.95 A 2 2 0 0 1 291.02509765625 1669.95 Z" class="transition-label-bg"/>
      <text x="311.02509765625" y="1680.75" class="transition-label" dominant-baseline="central" text-anchor="middle" font-size="16">Retry</text>
    </g>
    <g class="transition">
      <path d="M 349.64 1864.00 C 357.83 1851.67, 366.01 1839.33, 364.02 1540.00 C 362.03 1240.67, 349.86 654.33, 337.70 68.00" class="transition-path" marker-end="url(#arrow)" fill="none" stroke-width="0.7"/>
      <path d="M 352.15627465628313 1819.2728170847104 H 392.15627465628313 A 2 2 0 0 1 394.15627465628313 1821.2728170847104 V 1838.8728170847103 A 2 2 0 0 1 392.15627465628313 1840.8728170847103 H 352.15627465628313 A 2 2 0 0 1 350.15627465628313 1838.8728170847103 V 1821.2728170847104 A 2 2 0 0 1 352.15627465628313 1819.2728170847104 Z" class="transition-label-bg"/>
      <text x="372.15627465628313" y="1830.0728170847103" class="transition-label" text-anchor="middle" dominant-baseline="central" font-size="16">Reset</text>
    </g>
    <g class="transition">
      <path d="M 148.51 1607.50 C 181.15 1665.39, 213.80 1723.28, 246.45 1781.17 C 279.09 1839.05, 311.74 1896.94, 344.39 1954.83" class="transition-path" stroke-width="0.7" fill="none" marker-end="url(#arrow)"/>
    </g>
    <g class="transition">
      <path d="M 337.70 1900.00 C 337.70 1909.00, 337.70 1918.00, 339.03 1927.05 C 340.37 1936.09, 343.05 1945.19, 345.72 1954.28" class="transition-path" marker-end="url(#arrow)" stroke-width="0.7" fill="none"/>
    </g>
  </g>
</svg>
